AGaramondPro-Thin.ufo
<glyph name="exclam" format="1">
  <advance width="220"/>
  <unicode hex="0021"/>
  <outline>
    <contour>
      <point x="110" y="-14" type="curve" smooth="yes" name="hr01"/>
      <point x="144" y="-14"/>
      <point x="166" y="9"/>
      <point x="166" y="41" type="curve" smooth="yes"/>
      <point x="166" y="73"/>
      <point x="144" y="100"/>
      <point x="110" y="100" type="curve" smooth="yes"/>
      <point x="78" y="100"/>
      <point x="54" y="75"/>
      <point x="54" y="41" type="curve" smooth="yes"/>
      <point x="54" y="7"/>
      <point x="81" y="-14"/>
    </contour>
    <contour>
      <point x="110" y="646" type="curve" smooth="yes" name="hr02"/>
      <point x="78" y="646"/>
      <point x="61" y="642"/>
      <point x="61" y="617" type="curve" smooth="yes"/>
      <point x="61" y="602"/>
      <point x="63" y="581"/>
      <point x="68" y="528" type="curve" smooth="yes"/>
      <point x="97" y="205" type="line"/>
      <point x="102" y="199"/>
      <point x="117" y="199"/>
      <point x="123" y="205" type="curve"/>
      <point x="152" y="528" type="line" smooth="yes"/>
      <point x="157" y="581"/>
      <point x="159" y="602"/>
      <point x="159" y="617" type="curve" smooth="yes"/>
      <point x="159" y="642"/>
      <point x="142" y="646"/>
    </contour>
  </outline>
</glyph>
<glyph name="quotesingle" format="1">
  <advance width="235"/>
  <unicode hex="0027"/>
  <outline>
    <contour>
      <point x="118" y="700" type="curve" smooth="yes" name="hr00"/>
      <point x="90" y="700"/>
      <point x="75" y="698"/>
      <point x="75" y="676" type="curve" smooth="yes"/>
      <point x="75" y="669"/>
      <point x="77" y="658"/>
      <point x="80" y="637" type="curve" smooth="yes"/>
      <point x="106" y="476" type="line"/>
      <point x="114" y="468"/>
      <point x="122" y="468"/>
      <point x="130" y="476" type="curve"/>
      <point x="156" y="637" type="line" smooth="yes"/>
      <point x="159" y="658"/>
      <point x="161" y="669"/>
      <point x="161" y="676" type="curve" smooth="yes"/>
      <point x="161" y="698"/>
      <point x="146" y="700"/>
    </contour>
  </outline>
</glyph>
<glyph name="parenleft" format="1">
  <advance width="320"/>
  <unicode hex="0028"/>
  <outline>
    <contour>
      <point x="146" y="270" type="curve" smooth="yes" name="hr00"/>
      <point x="146" y="450"/>
      <point x="201" y="584"/>
      <point x="300" y="688" type="curve"/>
      <point x="300" y="698"/>
      <point x="296" y="702"/>
      <point x="286" y="703" type="curve"/>
      <point x="163" y="622"/>
      <point x="80" y="457"/>
      <point x="80" y="270" type="curve" smooth="yes"/>
      <point x="80" y="83"/>
      <point x="163" y="-82"/>
      <point x="286" y="-163" type="curve"/>
      <point x="296" y="-162"/>
      <point x="300" y="-158"/>
      <point x="300" y="-148" type="curve"/>
      <point x="201" y="-44"/>
      <point x="146" y="90"/>
    </contour>
  </outline>
</glyph>
<glyph name="nine" format="1">
  <advance width="500"/>
  <unicode hex="0039"/>
  <outline>
    <contour>
      <point x="239" y="610" type="curve" smooth="yes" name="hr00"/>
      <point x="336" y="610"/>
      <point x="362" y="484"/>
      <point x="362" y="393" type="curve" smooth="yes"/>
      <point x="362" y="204"/>
      <point x="300" y="101"/>
      <point x="208" y="33" type="curve" smooth="yes"/>
      <point x="170" y="5"/>
      <point x="120" y="-19"/>
      <point x="60" y="-37" type="curve"/>
      <point x="55" y="-42"/>
      <point x="58" y="-57"/>
      <point x="66" y="-60" type="curve"/>
      <point x="133" y="-48"/>
      <point x="230" y="-11"/>
      <point x="304" y="55" type="curve" smooth="yes"/>
      <point x="406" y="146"/>
      <point x="451" y="276"/>
      <point x="451" y="385" type="curve" smooth="yes"/>
      <point x="451" y="532"/>
      <point x="377" y="640"/>
      <point x="252" y="640" type="curve" smooth="yes"/>
      <point x="138" y="640"/>
      <point x="47" y="556"/>
      <point x="47" y="436" type="curve" smooth="yes"/>
      <point x="47" y="332"/>
      <point x="118" y="267"/>
      <point x="199" y="267" type="curve" smooth="yes"/>
      <point x="238" y="267"/>
      <point x="269" y="279"/>
      <point x="289" y="296" type="curve"/>
      <point x="291" y="300"/>
      <point x="290" y="306"/>
      <point x="286" y="308" type="curve"/>
      <point x="274" y="305"/>
      <point x="267" y="304"/>
      <point x="242" y="304" type="curve" smooth="yes"/>
      <point x="166" y="304"/>
      <point x="127" y="394"/>
      <point x="127" y="472" type="curve" smooth="yes"/>
      <point x="127" y="561"/>
      <point x="175" y="610"/>
    </contour>
  </outline>
</glyph>
<glyph name="semicolon" format="1">
  <advance width="250"/>
  <unicode hex="003B"/>
  <outline>
    <contour>
      <point x="113" y="122" type="curve" smooth="yes" name="hr01"/>
      <point x="81" y="122"/>
      <point x="64" y="100"/>
      <point x="64" y="77" type="curve" smooth="yes"/>
      <point x="64" y="65"/>
      <point x="68" y="55"/>
      <point x="81" y="48" type="curve" smooth="yes"/>
      <point x="90" y="43"/>
      <point x="138" y="32"/>
      <point x="138" y="-10" type="curve" smooth="yes"/>
      <point x="138" y="-62"/>
      <point x="87" y="-87"/>
      <point x="56" y="-97" type="curve"/>
      <point x="50" y="-102"/>
      <point x="53" y="-118"/>
      <point x="62" y="-121" type="curve"/>
      <point x="132" y="-100"/>
      <point x="192" y="-55"/>
      <point x="192" y="24" type="curve" smooth="yes"/>
      <point x="192" y="90"/>
      <point x="148" y="122"/>
    </contour>
    <contour>
      <point x="125" y="280" type="curve" smooth="yes" name="hr02"/>
      <point x="159" y="280"/>
      <point x="181" y="303"/>
      <point x="181" y="335" type="curve" smooth="yes"/>
      <point x="181" y="367"/>
      <point x="159" y="394"/>
      <point x="125" y="394" type="curve" smooth="yes"/>
      <point x="93" y="394"/>
      <point x="69" y="369"/>
      <point x="69" y="335" type="curve" smooth="yes"/>
      <point x="69" y="301"/>
      <point x="96" y="280"/>
    </contour>
  </outline>
</glyph>
<glyph name="I" format="1">
  <advance width="338"/>
  <unicode hex="0049"/>
  <outline>
    <contour>
      <point x="128" y="152" type="line" smooth="yes" name="hr00"/>
      <point x="128" y="46"/>
      <point x="126" y="32"/>
      <point x="67" y="25" type="curve" smooth="yes"/>
      <point x="42" y="22" type="line"/>
      <point x="36" y="16"/>
      <point x="38" y="0"/>
      <point x="44" y="-3" type="curve"/>
      <point x="94" y="-1"/>
      <point x="128" y="0"/>
      <point x="170" y="0" type="curve" smooth="yes"/>
      <point x="210" y="0"/>
      <point x="244" y="-1"/>
      <point x="294" y="-3" type="curve"/>
      <point x="300" y="0"/>
      <point x="302" y="18"/>
      <point x="296" y="22" type="curve"/>
      <point x="271" y="25" type="line" smooth="yes"/>
      <point x="212" y="32"/>
      <point x="210" y="46"/>
      <point x="210" y="152" type="curve" smooth="yes"/>
      <point x="210" y="508" type="line" smooth="yes"/>
      <point x="210" y="614"/>
      <point x="212" y="631"/>
      <point x="271" y="636" type="curve" smooth="yes"/>
      <point x="296" y="638" type="line"/>
      <point x="302" y="642"/>
      <point x="300" y="660"/>
      <point x="294" y="663" type="curve"/>
      <point x="244" y="661"/>
      <point x="210" y="660"/>
      <point x="170" y="660" type="curve" smooth="yes"/>
      <point x="128" y="660"/>
      <point x="94" y="661"/>
      <point x="44" y="663" type="curve"/>
      <point x="38" y="660"/>
      <point x="36" y="642"/>
      <point x="42" y="638" type="curve"/>
      <point x="67" y="636" type="line" smooth="yes"/>
      <point x="126" y="631"/>
      <point x="128" y="614"/>
      <point x="128" y="508" type="curve" smooth="yes"/>
    </contour>
  </outline>
</glyph>
<glyph name="P" format="1">
  <advance width="549"/>
  <unicode hex="0050"/>
  <outline>
    <contour>
      <point x="210" y="596" type="line" smooth="yes" name="hr00"/>
      <point x="210" y="628"/>
      <point x="211" y="632"/>
      <point x="264" y="632" type="curve" smooth="yes"/>
      <point x="368" y="632"/>
      <point x="425" y="569"/>
      <point x="425" y="472" type="curve" smooth="yes"/>
      <point x="425" y="385"/>
      <point x="386" y="324"/>
      <point x="278" y="304" type="curve"/>
      <point x="272" y="302"/>
      <point x="272" y="287"/>
      <point x="279" y="284" type="curve"/>
      <point x="320" y="284"/>
      <point x="373" y="293"/>
      <point x="417" y="314" type="curve" smooth="yes"/>
      <point x="460" y="335"/>
      <point x="517" y="381"/>
      <point x="517" y="473" type="curve" smooth="yes"/>
      <point x="517" y="542"/>
      <point x="483" y="594"/>
      <point x="437" y="623" type="curve" smooth="yes"/>
      <point x="390" y="652"/>
      <point x="328" y="663"/>
      <point x="245" y="663" type="curve" smooth="yes"/>
      <point x="162" y="663"/>
      <point x="100" y="662"/>
      <point x="47" y="655" type="curve"/>
      <point x="39" y="651"/>
      <point x="38" y="636"/>
      <point x="45" y="630" type="curve"/>
      <point x="81" y="626" type="line" smooth="yes"/>
      <point x="126" y="621"/>
      <point x="128" y="604"/>
      <point x="128" y="519" type="curve" smooth="yes"/>
      <point x="128" y="150" type="line" smooth="yes"/>
      <point x="128" y="45"/>
      <point x="126" y="33"/>
      <point x="68" y="25" type="curve" smooth="yes"/>
      <point x="47" y="22" type="line"/>
      <point x="41" y="16"/>
      <point x="43" y="0"/>
      <point x="49" y="-3" type="curve"/>
      <point x="93" y="-1"/>
      <point x="129" y="0"/>
      <point x="171" y="0" type="curve" smooth="yes"/>
      <point x="211" y="0"/>
      <point x="244" y="-1"/>
      <point x="301" y="-3" type="curve"/>
      <point x="307" y="0"/>
      <point x="309" y="17"/>
      <point x="303" y="22" type="curve"/>
      <point x="276" y="25" type="line" smooth="yes"/>
      <point x="212" y="32"/>
      <point x="210" y="45"/>
      <point x="210" y="150" type="curve" smooth="yes"/>
    </contour>
  </outline>
</glyph>
<glyph name="backslash" format="1">
  <advance width="309"/>
  <unicode hex="005C"/>
  <outline>
    <contour>
      <point x="88" y="686" type="line" name="hr00"/>
      <point x="30" y="686" type="line"/>
      <point x="221" y="-16" type="line"/>
      <point x="279" y="-16" type="line"/>
    </contour>
  </outline>
</glyph>
<glyph name="bracketright" format="1">
  <advance width="320"/>
  <unicode hex="005D"/>
  <outline>
    <contour>
      <point x="203" y="686" type="line" name="hr00"/>
      <point x="134" y="686" type="line" smooth="yes"/>
      <point x="97" y="686"/>
      <point x="61" y="684"/>
      <point x="24" y="683" type="curve"/>
      <point x="17" y="679"/>
      <point x="17" y="668"/>
      <point x="23" y="661" type="curve"/>
      <point x="112" y="651" type="line" smooth="yes"/>
      <point x="125" y="650"/>
      <point x="131" y="647"/>
      <point x="137" y="641" type="curve" smooth="yes"/>
      <point x="148" y="630"/>
      <point x="150" y="559"/>
      <point x="150" y="485" type="curve" smooth="yes"/>
      <point x="150" y="51" type="line" smooth="yes"/>
      <point x="150" y="-23"/>
      <point x="148" y="-94"/>
      <point x="137" y="-105" type="curve" smooth="yes"/>
      <point x="131" y="-111"/>
      <point x="125" y="-114"/>
      <point x="112" y="-115" type="curve" smooth="yes"/>
      <point x="23" y="-125" type="line"/>
      <point x="17" y="-132"/>
      <point x="17" y="-143"/>
      <point x="24" y="-147" type="curve"/>
      <point x="61" y="-148"/>
      <point x="97" y="-150"/>
      <point x="134" y="-150" type="curve" smooth="yes"/>
      <point x="203" y="-150" type="line"/>
    </contour>
  </outline>
</glyph>
<glyph name="asciicircum" format="1">
  <advance width="500"/>
  <unicode hex="005E"/>
  <outline>
    <contour>
      <point x="450" y="244" type="line" name="hr00"/>
      <point x="274" y="626" type="line"/>
      <point x="226" y="626" type="line"/>
      <point x="49" y="244" type="line"/>
      <point x="112" y="244" type="line"/>
      <point x="250" y="555" type="line"/>
      <point x="388" y="244" type="line"/>
    </contour>
  </outline>
</glyph>
<glyph name="b" format="1">
  <advance width="500"/>
  <unicode hex="0062"/>
  <outline>
    <contour>
      <point x="75" y="87" type="line" smooth="yes" name="hr01"/>
      <point x="75" y="35"/>
      <point x="74" y="16"/>
      <point x="73" y="2" type="curve"/>
      <point x="75" y="-2"/>
      <point x="79" y="-4"/>
      <point x="83" y="-4" type="curve" smooth="yes"/>
      <point x="85" y="-4"/>
      <point x="86" y="-4"/>
      <point x="87" y="-3" type="curve" smooth="yes"/>
      <point x="92" y="4"/>
      <point x="100" y="12"/>
      <point x="108" y="12" type="curve" smooth="yes" name="hr02"/>
      <point x="116" y="12"/>
      <point x="129" y="6"/>
      <point x="150" y="-1" type="curve" smooth="yes"/>
      <point x="170" y="-7"/>
      <point x="198" y="-14"/>
      <point x="235" y="-14" type="curve" smooth="yes"/>
      <point x="369" y="-14"/>
      <point x="465" y="79"/>
      <point x="465" y="212" type="curve" smooth="yes"/>
      <point x="465" y="322"/>
      <point x="388" y="408"/>
      <point x="274" y="408" type="curve" smooth="yes"/>
      <point x="225" y="408"/>
      <point x="185" y="390"/>
      <point x="159" y="375" type="curve"/>
      <point x="153" y="375"/>
      <point x="149" y="379"/>
      <point x="149" y="396" type="curve" smooth="yes"/>
      <point x="149" y="585" type="line" smooth="yes"/>
      <point x="149" y="629"/>
      <point x="151" y="674"/>
      <point x="153" y="709" type="curve"/>
      <point x="151" y="713"/>
      <point x="147" y="715"/>
      <point x="143" y="715" type="curve"/>
      <point x="105" y="695"/>
      <point x="57" y="682"/>
      <point x="34" y="673" type="curve"/>
      <point x="29" y="670"/>
      <point x="29" y="656"/>
      <point x="34" y="653" type="curve" smooth="yes"/>
      <point x="44" y="647" type="line" smooth="yes"/>
      <point x="74" y="629"/>
      <point x="75" y="623"/>
      <point x="75" y="564" type="curve" smooth="yes"/>
    </contour>
    <contour>
      <point x="149" y="292" type="line" smooth="yes"/>
      <point x="149" y="331"/>
      <point x="151" y="342"/>
      <point x="161" y="349" type="curve" smooth="yes"/>
      <point x="175" y="358"/>
      <point x="199" y="365"/>
      <point x="229" y="365" type="curve" smooth="yes"/>
      <point x="328" y="365"/>
      <point x="381" y="285"/>
      <point x="381" y="182" type="curve" smooth="yes"/>
      <point x="381" y="96"/>
      <point x="344" y="16"/>
      <point x="250" y="16" type="curve" smooth="yes"/>
      <point x="218" y="16"/>
      <point x="191" y="28"/>
      <point x="174" y="49" type="curve" smooth="yes"/>
      <point x="157" y="70"/>
      <point x="149" y="101"/>
      <point x="149" y="136" type="curve" smooth="yes"/>
    </contour>
  </outline>
</glyph>
<glyph name="j" format="1">
  <advance width="253"/>
  <unicode hex="006A"/>
  <outline>
    <contour>
      <point x="100" y="35" type="line" smooth="yes" name="hr01"/>
      <point x="100" y="-87"/>
      <point x="82" y="-159"/>
      <point x="46" y="-201" type="curve" smooth="yes"/>
      <point x="32" y="-217"/>
      <point x="13" y="-233"/>
      <point x="-13" y="-246" type="curve"/>
      <point x="-17" y="-256"/>
      <point x="-11" y="-267"/>
      <point x="1" y="-269" type="curve"/>
      <point x="70" y="-226"/>
      <point x="123" y="-178"/>
      <point x="153" y="-106" type="curve" smooth="yes"/>
      <point x="167" y="-72"/>
      <point x="174" y="-22"/>
      <point x="174" y="50" type="curve" smooth="yes"/>
      <point x="174" y="292" type="line" smooth="yes"/>
      <point x="174" y="333"/>
      <point x="176" y="381"/>
      <point x="178" y="416" type="curve"/>
      <point x="177" y="420"/>
      <point x="173" y="422"/>
      <point x="168" y="422" type="curve"/>
      <point x="145" y="407"/>
      <point x="88" y="381"/>
      <point x="65" y="373" type="curve"/>
      <point x="60" y="370"/>
      <point x="60" y="359"/>
      <point x="64" y="355" type="curve"/>
      <point x="73" y="349" type="line" smooth="yes"/>
      <point x="100" y="331"/>
      <point x="100" y="326"/>
      <point x="100" y="287" type="curve" smooth="yes"/>
    </contour>
    <contour>
      <point x="133" y="624" type="curve" smooth="yes" name="hr02"/>
      <point x="103" y="624"/>
      <point x="79" y="604"/>
      <point x="79" y="571" type="curve" smooth="yes"/>
      <point x="79" y="543"/>
      <point x="99" y="520"/>
      <point x="130" y="520" type="curve" smooth="yes"/>
      <point x="158" y="520"/>
      <point x="183" y="537"/>
      <point x="183" y="572" type="curve" smooth="yes"/>
      <point x="183" y="600"/>
      <point x="163" y="624"/>
    </contour>
  </outline>
</glyph>
<glyph name="n" format="1">
  <advance width="525"/>
  <unicode hex="006E"/>
  <outline>
    <contour>
      <point x="98" y="112" type="line" smooth="yes" name="hr00"/>
      <point x="98" y="40"/>
      <point x="97" y="30"/>
      <point x="60" y="25" type="curve" smooth="yes"/>
      <point x="39" y="22" type="line"/>
      <point x="32" y="17"/>
      <point x="34" y="0"/>
      <point x="41" y="-3" type="curve"/>
      <point x="69" y="-1"/>
      <point x="99" y="0"/>
      <point x="135" y="0" type="curve" smooth="yes"/>
      <point x="170" y="0"/>
      <point x="199" y="-1"/>
      <point x="226" y="-3" type="curve"/>
      <point x="233" y="0"/>
      <point x="235" y="17"/>
      <point x="228" y="22" type="curve"/>
      <point x="210" y="25" type="line" smooth="yes"/>
      <point x="174" y="31"/>
      <point x="172" y="40"/>
      <point x="172" y="112" type="curve" smooth="yes"/>
      <point x="172" y="265" type="line" smooth="yes"/>
      <point x="172" y="294"/>
      <point x="174" y="308"/>
      <point x="187" y="325" type="curve" smooth="yes"/>
      <point x="201" y="344"/>
      <point x="234" y="360"/>
      <point x="272" y="360" type="curve" smooth="yes"/>
      <point x="340" y="360"/>
      <point x="366" y="318"/>
      <point x="366" y="261" type="curve" smooth="yes"/>
      <point x="366" y="112" type="line" smooth="yes"/>
      <point x="366" y="40"/>
      <point x="365" y="31"/>
      <point x="328" y="25" type="curve" smooth="yes"/>
      <point x="309" y="22" type="line"/>
      <point x="302" y="17"/>
      <point x="304" y="0"/>
      <point x="311" y="-3" type="curve"/>
      <point x="338" y="-1"/>
      <point x="368" y="0"/>
      <point x="404" y="0" type="curve" smooth="yes"/>
      <point x="439" y="0"/>
      <point x="468" y="-1"/>
      <point x="498" y="-3" type="curve"/>
      <point x="505" y="0"/>
      <point x="507" y="17"/>
      <point x="500" y="22" type="curve"/>
      <point x="478" y="25" type="line" smooth="yes"/>
      <point x="442" y="30"/>
      <point x="440" y="40"/>
      <point x="440" y="112" type="curve" smooth="yes"/>
      <point x="440" y="284" type="line" smooth="yes"/>
      <point x="440" y="351"/>
      <point x="406" y="408"/>
      <point x="323" y="408" type="curve" smooth="yes"/>
      <point x="272" y="408"/>
      <point x="225" y="383"/>
      <point x="183" y="357" type="curve"/>
      <point x="176" y="357"/>
      <point x="172" y="362"/>
      <point x="172" y="368" type="curve" smooth="yes"/>
      <point x="172" y="377"/>
      <point x="172" y="392"/>
      <point x="174" y="415" type="curve"/>
      <point x="172" y="420"/>
      <point x="167" y="422"/>
      <point x="163" y="422" type="curve"/>
      <point x="143" y="407"/>
      <point x="86" y="381"/>
      <point x="63" y="373" type="curve"/>
      <point x="58" y="370"/>
      <point x="58" y="359"/>
      <point x="62" y="355" type="curve"/>
      <point x="71" y="349" type="line" smooth="yes"/>
      <point x="98" y="331"/>
      <point x="98" y="326"/>
      <point x="98" y="287" type="curve" smooth="yes"/>
    </contour>
  </outline>
</glyph>
<glyph name="braceleft" format="1">
  <advance width="320"/>
  <unicode hex="007B"/>
  <outline>
    <contour>
      <point x="216" y="375" type="curve" smooth="yes" name="hr01"/>
      <point x="216" y="410"/>
      <point x="212" y="444"/>
      <point x="207" y="478" type="curve" smooth="yes"/>
      <point x="202" y="512"/>
      <point x="197" y="546"/>
      <point x="197" y="578" type="curve" smooth="yes" name="hr02"/>
      <point x="197" y="617"/>
      <point x="207" y="662"/>
      <point x="281" y="674" type="curve"/>
      <point x="286" y="679"/>
      <point x="286" y="689"/>
      <point x="281" y="694" type="curve"/>
      <point x="232" y="694"/>
      <point x="139" y="685"/>
      <point x="139" y="568" type="curve" smooth="yes"/>
      <point x="139" y="534"/>
      <point x="144" y="497"/>
      <point x="147" y="462" type="curve" smooth="yes"/>
      <point x="150" y="426"/>
      <point x="154" y="393"/>
      <point x="154" y="362" type="curve" smooth="yes" name="hr03"/>
      <point x="154" y="328"/>
      <point x="150" y="285"/>
      <point x="67" y="279" type="curve"/>
      <point x="62" y="273"/>
      <point x="62" y="263"/>
      <point x="67" y="257" type="curve" name="hr04"/>
      <point x="150" y="251"/>
      <point x="154" y="208"/>
      <point x="154" y="174" type="curve" smooth="yes" name="hr05"/>
      <point x="154" y="144"/>
      <point x="151" y="110"/>
      <point x="147" y="75" type="curve" smooth="yes"/>
      <point x="143" y="39"/>
      <point x="139" y="3"/>
      <point x="139" y="-32" type="curve" smooth="yes" name="hr06"/>
      <point x="139" y="-149"/>
      <point x="232" y="-158"/>
      <point x="281" y="-158" type="curve"/>
      <point x="286" y="-153"/>
      <point x="286" y="-142"/>
      <point x="281" y="-138" type="curve"/>
      <point x="207" y="-126"/>
      <point x="197" y="-81"/>
      <point x="197" y="-42" type="curve" smooth="yes"/>
      <point x="197" y="-9"/>
      <point x="203" y="24"/>
      <point x="207" y="58" type="curve" smooth="yes"/>
      <point x="211" y="92"/>
      <point x="216" y="127"/>
      <point x="216" y="161" type="curve" smooth="yes" name="hr07"/>
      <point x="216" y="218"/>
      <point x="193" y="253"/>
      <point x="141" y="266" type="curve"/>
      <point x="141" y="270" type="line"/>
      <point x="193" y="283"/>
      <point x="216" y="318"/>
    </contour>
  </outline>
</glyph>
<glyph name="uni00AD" format="1">
  <advance width="320"/>
  <unicode hex="00AD"/>
  <outline>
    <contour>
      <point x="40" y="225" type="line" name="hr00"/>
      <point x="35" y="219"/>
      <point x="32" y="210"/>
      <point x="32" y="200" type="curve" smooth="yes"/>
      <point x="32" y="190"/>
      <point x="36" y="177"/>
      <point x="47" y="168" type="curve"/>
      <point x="280" y="190" type="line"/>
      <point x="285" y="196"/>
      <point x="288" y="205"/>
      <point x="288" y="215" type="curve" smooth="yes"/>
      <point x="288" y="228"/>
      <point x="284" y="240"/>
      <point x="273" y="247" type="curve"/>
    </contour>
  </outline>
</glyph>
<glyph name="registered" format="1">
  <advance width="320"/>
  <unicode hex="00AE"/>
  <outline>
    <contour>
      <point x="160" y="676" type="curve" smooth="yes" name="hr01"/>
      <point x="88" y="676"/>
      <point x="30" y="619"/>
      <point x="30" y="549" type="curve" smooth="yes"/>
      <point x="30" y="479"/>
      <point x="88" y="422"/>
      <point x="160" y="422" type="curve" smooth="yes"/>
      <point x="232" y="422"/>
      <point x="290" y="479"/>
      <point x="290" y="549" type="curve" smooth="yes"/>
      <point x="290" y="619"/>
      <point x="232" y="676"/>
    </contour>
    <contour>
      <point x="160" y="654" type="curve" smooth="yes"/>
      <point x="214" y="654"/>
      <point x="259" y="608"/>
      <point x="259" y="549" type="curve" smooth="yes"/>
      <point x="259" y="491"/>
      <point x="214" y="444"/>
      <point x="160" y="444" type="curve" smooth="yes"/>
      <point x="106" y="444"/>
      <point x="61" y="491"/>
      <point x="61" y="549" type="curve" smooth="yes"/>
      <point x="61" y="608"/>
      <point x="106" y="654"/>
    </contour>
    <contour>
      <point x="118" y="521" type="line" smooth="yes"/>
      <point x="118" y="505"/>
      <point x="118" y="503"/>
      <point x="107" y="500" type="curve" smooth="yes"/>
      <point x="103" y="499" type="line" smooth="yes"/>
      <point x="101" y="498"/>
      <point x="101" y="490"/>
      <point x="104" y="489" type="curve"/>
      <point x="113" y="489"/>
      <point x="122" y="490"/>
      <point x="133" y="490" type="curve" smooth="yes"/>
      <point x="145" y="490"/>
      <point x="153" y="489"/>
      <point x="163" y="489" type="curve"/>
      <point x="165" y="490"/>
      <point x="165" y="498"/>
      <point x="163" y="499" type="curve" smooth="yes"/>
      <point x="160" y="500" type="line" smooth="yes"/>
      <point x="146" y="502"/>
      <point x="146" y="506"/>
      <point x="146" y="521" type="curve" smooth="yes"/>
      <point x="146" y="535" type="line" smooth="yes"/>
      <point x="146" y="537"/>
      <point x="147" y="540"/>
      <point x="152" y="540" type="curve" smooth="yes"/>
      <point x="156" y="540"/>
      <point x="159" y="538"/>
      <point x="161" y="534" type="curve" smooth="yes"/>
      <point x="175" y="509" type="line" smooth="yes" name="hr02"/>
      <point x="184" y="494"/>
      <point x="196" y="488"/>
      <point x="212" y="488" type="curve" smooth="yes"/>
      <point x="217" y="488"/>
      <point x="221" y="488"/>
      <point x="226" y="489" type="curve" smooth="yes"/>
      <point x="228" y="490"/>
      <point x="228" y="496"/>
      <point x="226" y="496" type="curve" smooth="yes"/>
      <point x="223" y="497"/>
      <point x="221" y="499"/>
      <point x="217" y="502" type="curve" smooth="yes"/>
      <point x="210" y="507"/>
      <point x="202" y="521"/>
      <point x="192" y="542" type="curve" smooth="yes"/>
      <point x="190" y="546"/>
      <point x="190" y="548"/>
      <point x="192" y="549" type="curve" smooth="yes"/>
      <point x="200" y="553"/>
      <point x="210" y="563"/>
      <point x="210" y="577" type="curve" smooth="yes"/>
      <point x="210" y="606"/>
      <point x="182" y="611"/>
      <point x="160" y="611" type="curve" smooth="yes"/>
      <point x="143" y="611"/>
      <point x="125" y="610"/>
      <point x="104" y="609" type="curve"/>
      <point x="101" y="608"/>
      <point x="101" y="602"/>
      <point x="103" y="598" type="curve"/>
      <point x="107" y="598" type="line" smooth="yes"/>
      <point x="115" y="597"/>
      <point x="118" y="591"/>
      <point x="118" y="578" type="curve" smooth="yes" name="hr03"/>
    </contour>
    <contour>
      <point x="146" y="589" type="line" smooth="yes"/>
      <point x="146" y="595"/>
      <point x="147" y="597"/>
      <point x="159" y="597" type="curve" smooth="yes"/>
      <point x="170" y="597"/>
      <point x="178" y="588"/>
      <point x="178" y="572" type="curve" smooth="yes"/>
      <point x="178" y="564"/>
      <point x="174" y="552"/>
      <point x="158" y="552" type="curve" smooth="yes"/>
      <point x="147" y="552"/>
      <point x="146" y="552"/>
      <point x="146" y="559" type="curve" smooth="yes"/>
    </contour>
  </outline>
</glyph>
<glyph name="paragraph" format="1">
  <advance width="500"/>
  <unicode hex="00B6"/>
  <outline>
    <contour>
      <point x="366" y="441" type="line" smooth="yes" name="hr00"/>
      <point x="366" y="492"/>
      <point x="368" y="498"/>
      <point x="419" y="507" type="curve" smooth="yes"/>
      <point x="458" y="514" type="line"/>
      <point x="464" y="518"/>
      <point x="464" y="531"/>
      <point x="458" y="535" type="curve"/>
      <point x="441" y="538"/>
      <point x="395" y="540"/>
      <point x="337" y="540" type="curve" smooth="yes"/>
      <point x="166" y="540"/>
      <point x="59" y="468"/>
      <point x="59" y="321" type="curve" smooth="yes"/>
      <point x="59" y="195"/>
      <point x="167" y="115"/>
      <point x="302" y="115" type="curve" smooth="yes"/>
      <point x="316" y="115"/>
      <point x="323" y="109"/>
      <point x="323" y="83" type="curve" smooth="yes"/>
      <point x="323" y="-58" type="line" smooth="yes"/>
      <point x="323" y="-163"/>
      <point x="281" y="-185"/>
      <point x="259" y="-185" type="curve" smooth="yes"/>
      <point x="241" y="-185"/>
      <point x="226" y="-173"/>
      <point x="226" y="-154" type="curve" smooth="yes"/>
      <point x="226" y="-135"/>
      <point x="235" y="-126"/>
      <point x="240" y="-120" type="curve"/>
      <point x="236" y="-105"/>
      <point x="210" y="-90"/>
      <point x="189" y="-90" type="curve"/>
      <point x="179" y="-95"/>
      <point x="160" y="-112"/>
      <point x="160" y="-142" type="curve" smooth="yes"/>
      <point x="160" y="-196"/>
      <point x="209" y="-215"/>
      <point x="248" y="-215" type="curve" smooth="yes"/>
      <point x="351" y="-215"/>
      <point x="366" y="-110"/>
      <point x="366" y="-23" type="curve" smooth="yes"/>
    </contour>
  </outline>
</glyph>
<glyph name="ordmasculine" format="1">
  <advance width="387"/>
  <unicode hex="00BA"/>
  <outline>
    <contour>
      <point x="197" y="540" type="curve" smooth="yes" name="hr00"/>
      <point x="103" y="540"/>
      <point x="32" y="475"/>
      <point x="32" y="386" type="curve" smooth="yes"/>
      <point x="32" y="300"/>
      <point x="98" y="240"/>
      <point x="191" y="240" type="curve" smooth="yes"/>
      <point x="290" y="240"/>
      <point x="355" y="305"/>
      <point x="355" y="393" type="curve" smooth="yes"/>
      <point x="355" y="479"/>
      <point x="287" y="540"/>
    </contour>
    <contour>
      <point x="189" y="514" type="curve" smooth="yes"/>
      <point x="256" y="514"/>
      <point x="281" y="436"/>
      <point x="281" y="382" type="curve" smooth="yes"/>
      <point x="281" y="331"/>
      <point x="261" y="266"/>
      <point x="198" y="266" type="curve" smooth="yes"/>
      <point x="134" y="266"/>
      <point x="106" y="334"/>
      <point x="106" y="396" type="curve" smooth="yes"/>
      <point x="106" y="466"/>
      <point x="143" y="514"/>
    </contour>
  </outline>
</glyph>
<glyph name="onehalf" format="1">
  <advance width="780"/>
  <unicode hex="00BD"/>
  <outline>
    <contour>
      <point x="130" y="-14" type="curve" name="hr01"/>
      <point x="131" y="-29"/>
      <point x="140" y="-40"/>
      <point x="157" y="-40" type="curve"/>
      <point x="302" y="184"/>
      <point x="448" y="407"/>
      <point x="597" y="631" type="curve"/>
      <point x="590" y="647"/>
      <point x="578" y="654"/>
      <point x="566" y="654" type="curve"/>
      <point x="423" y="431"/>
      <point x="277" y="209"/>
    </contour>
    <contour>
      <point x="117" y="333" type="line" smooth="yes"/>
      <point x="117" y="283"/>
      <point x="116" y="273"/>
      <point x="75" y="268" type="curve" smooth="yes"/>
      <point x="58" y="266" type="line"/>
      <point x="53" y="262"/>
      <point x="53" y="248"/>
      <point x="59" y="245" type="curve"/>
      <point x="87" y="246"/>
      <point x="119" y="247"/>
      <point x="147" y="247" type="curve" smooth="yes"/>
      <point x="178" y="247"/>
      <point x="209" y="246"/>
      <point x="239" y="245" type="curve"/>
      <point x="245" y="248"/>
      <point x="245" y="262"/>
      <point x="240" y="266" type="curve"/>
      <point x="223" y="268" type="line" smooth="yes"/>
      <point x="182" y="273"/>
      <point x="181" y="283"/>
      <point x="181" y="333" type="curve" smooth="yes"/>
      <point x="181" y="562" type="line" smooth="yes"/>
      <point x="181" y="586"/>
      <point x="181" y="614"/>
      <point x="183" y="635" type="curve" smooth="yes"/>
      <point x="183" y="639"/>
      <point x="179" y="640"/>
      <point x="176" y="640" type="curve"/>
      <point x="149" y="630"/>
      <point x="109" y="614"/>
      <point x="54" y="605" type="curve"/>
      <point x="49" y="601"/>
      <point x="49" y="590"/>
      <point x="55" y="586" type="curve"/>
      <point x="86" y="583" type="line" smooth="yes"/>
      <point x="115" y="580"/>
      <point x="117" y="563"/>
      <point x="117" y="526" type="curve" smooth="yes"/>
    </contour>
    <contour>
      <point x="563" y="48" type="line" smooth="yes" name="hr02"/>
      <point x="556" y="48"/>
      <point x="549" y="50"/>
      <point x="549" y="56" type="curve" smooth="yes"/>
      <point x="549" y="62"/>
      <point x="558" y="71"/>
      <point x="583" y="96" type="curve" smooth="yes"/>
      <point x="639" y="152" type="line" smooth="yes"/>
      <point x="697" y="210"/>
      <point x="715" y="248"/>
      <point x="715" y="290" type="curve" smooth="yes"/>
      <point x="715" y="350"/>
      <point x="670" y="393"/>
      <point x="597" y="393" type="curve" smooth="yes"/>
      <point x="535" y="393"/>
      <point x="485" y="360"/>
      <point x="458" y="298" type="curve"/>
      <point x="458" y="290"/>
      <point x="469" y="284"/>
      <point x="477" y="289" type="curve"/>
      <point x="500" y="328"/>
      <point x="530" y="352"/>
      <point x="567" y="352" type="curve" smooth="yes"/>
      <point x="612" y="352"/>
      <point x="642" y="320"/>
      <point x="642" y="268" type="curve" smooth="yes"/>
      <point x="642" y="205"/>
      <point x="592" y="144"/>
      <point x="550" y="102" type="curve" smooth="yes"/>
      <point x="502" y="54"/>
      <point x="478" y="34"/>
      <point x="446" y="14" type="curve"/>
      <point x="444" y="11"/>
      <point x="444" y="8"/>
      <point x="444" y="5" type="curve" smooth="yes"/>
      <point x="444" y="2"/>
      <point x="447" y="0"/>
      <point x="449" y="-2" type="curve"/>
      <point x="464" y="-1"/>
      <point x="486" y="0"/>
      <point x="524" y="0" type="curve" smooth="yes"/>
      <point x="596" y="0" type="line" smooth="yes"/>
      <point x="627" y="0"/>
      <point x="684" y="-1"/>
      <point x="709" y="-2" type="curve"/>
      <point x="722" y="10"/>
      <point x="732" y="42"/>
      <point x="748" y="77" type="curve"/>
      <point x="744" y="85"/>
      <point x="736" y="87"/>
      <point x="729" y="84" type="curve"/>
      <point x="707" y="51"/>
      <point x="681" y="48"/>
      <point x="634" y="48" type="curve" smooth="yes"/>
    </contour>
  </outline>
</glyph>
<glyph name="Eth" format="1">
  <advance width="786"/>
  <unicode hex="00D0"/>
  <outline>
    <contour>
      <point x="128" y="150" type="line" smooth="yes" name="hr01"/>
      <point x="128" y="45"/>
      <point x="126" y="33"/>
      <point x="68" y="25" type="curve" smooth="yes" name="hr02"/>
      <point x="45" y="22" type="line"/>
      <point x="39" y="16"/>
      <point x="41" y="0"/>
      <point x="47" y="-3" type="curve" name="hr03"/>
      <point x="94" y="-1"/>
      <point x="130" y="0"/>
      <point x="172" y="0" type="curve" smooth="yes" name="hr04"/>
      <point x="207" y="0"/>
      <point x="271" y="-8"/>
      <point x="335" y="-8" type="curve" smooth="yes" name="hr05"/>
      <point x="412" y="-8"/>
      <point x="494" y="5"/>
      <point x="559" y="40" type="curve" smooth="yes"/>
      <point x="673" y="102"/>
      <point x="734" y="211"/>
      <point x="734" y="340" type="curve" smooth="yes"/>
      <point x="734" y="471"/>
      <point x="666" y="585"/>
      <point x="531" y="634" type="curve" smooth="yes"/>
      <point x="466" y="658"/>
      <point x="399" y="663"/>
      <point x="315" y="663" type="curve" smooth="yes"/>
      <point x="230" y="663"/>
      <point x="145" y="660"/>
      <point x="60" y="657" type="curve"/>
      <point x="50" y="653"/>
      <point x="51" y="637"/>
      <point x="59" y="633" type="curve"/>
      <point x="76" y="631" type="line" smooth="yes"/>
      <point x="125" y="625"/>
      <point x="128" y="595"/>
      <point x="128" y="505" type="curve" smooth="yes"/>
      <point x="128" y="361" type="line"/>
      <point x="38" y="361" type="line"/>
      <point x="29" y="354"/>
      <point x="29" y="333"/>
      <point x="38" y="326" type="curve"/>
      <point x="128" y="326" type="line"/>
    </contour>
    <contour>
      <point x="210" y="542" type="line" smooth="yes"/>
      <point x="210" y="587"/>
      <point x="212" y="612"/>
      <point x="220" y="618" type="curve" smooth="yes"/>
      <point x="228" y="624"/>
      <point x="260" y="632"/>
      <point x="319" y="632" type="curve" smooth="yes"/>
      <point x="581" y="632"/>
      <point x="634" y="444"/>
      <point x="634" y="336" type="curve" smooth="yes"/>
      <point x="634" y="150"/>
      <point x="547" y="23"/>
      <point x="353" y="23" type="curve" smooth="yes"/>
      <point x="290" y="23"/>
      <point x="252" y="33"/>
      <point x="230" y="64" type="curve" smooth="yes"/>
      <point x="213" y="88"/>
      <point x="210" y="120"/>
      <point x="210" y="173" type="curve" smooth="yes"/>
      <point x="210" y="326" type="line"/>
      <point x="394" y="326" type="line"/>
      <point x="403" y="333"/>
      <point x="403" y="354"/>
      <point x="394" y="361" type="curve"/>
      <point x="210" y="361" type="line"/>
    </contour>
  </outline>
</glyph>
<glyph name="Ntilde" format="1">
  <advance width="783"/>
  <unicode hex="00D1"/>
  <outline>
    <contour>
      <point x="666" y="409" type="line" smooth="yes" name="hr01"/>
      <point x="666" y="455"/>
      <point x="664" y="579"/>
      <point x="681" y="615" type="curve" smooth="yes"/>
      <point x="685" y="623"/>
      <point x="705" y="631"/>
      <point x="737" y="636" type="curve" smooth="yes"/>
      <point x="751" y="638" type="line"/>
      <point x="757" y="644"/>
      <point x="757" y="658"/>
      <point x="749" y="663" type="curve"/>
      <point x="715" y="661"/>
      <point x="689" y="660"/>
      <point x="646" y="660" type="curve" smooth="yes"/>
      <point x="608" y="660"/>
      <point x="574" y="661"/>
      <point x="528" y="663" type="curve"/>
      <point x="520" y="660"/>
      <point x="519" y="644"/>
      <point x="526" y="638" type="curve"/>
      <point x="543" y="636" type="line" smooth="yes"/>
      <point x="583" y="631"/>
      <point x="599" y="625"/>
      <point x="605" y="616" type="curve" smooth="yes"/>
      <point x="624" y="586"/>
      <point x="625" y="456"/>
      <point x="625" y="409" type="curve" smooth="yes"/>
      <point x="625" y="195" type="line" smooth="yes"/>
      <point x="625" y="174"/>
      <point x="625" y="158"/>
      <point x="621" y="153" type="curve"/>
      <point x="619" y="153" type="line"/>
      <point x="572" y="201"/>
      <point x="523" y="257"/>
      <point x="454" y="334" type="curve" smooth="yes"/>
      <point x="357" y="443" type="line" smooth="yes"/>
      <point x="324" y="480"/>
      <point x="206" y="612"/>
      <point x="186" y="663" type="curve"/>
      <point x="173" y="661"/>
      <point x="156" y="660"/>
      <point x="140" y="660" type="curve" smooth="yes"/>
      <point x="122" y="660"/>
      <point x="69" y="660"/>
      <point x="27" y="663" type="curve"/>
      <point x="19" y="659"/>
      <point x="19" y="644"/>
      <point x="25" y="638" type="curve"/>
      <point x="42" y="636" type="line" smooth="yes"/>
      <point x="66" y="633"/>
      <point x="90" y="626"/>
      <point x="104" y="612" type="curve" smooth="yes"/>
      <point x="125" y="589"/>
      <point x="126" y="568"/>
      <point x="126" y="540" type="curve" smooth="yes"/>
      <point x="126" y="251" type="line" smooth="yes"/>
      <point x="126" y="203"/>
      <point x="127" y="81"/>
      <point x="113" y="45" type="curve" smooth="yes"/>
      <point x="108" y="34"/>
      <point x="92" y="28"/>
      <point x="69" y="25" type="curve" smooth="yes"/>
      <point x="42" y="22" type="line"/>
      <point x="36" y="16"/>
      <point x="37" y="2"/>
      <point x="44" y="-3" type="curve"/>
      <point x="79" y="-1"/>
      <point x="106" y="0"/>
      <point x="148" y="0" type="curve" smooth="yes"/>
      <point x="185" y="0"/>
      <point x="220" y="-1"/>
      <point x="265" y="-3" type="curve"/>
      <point x="272" y="2"/>
      <point x="273" y="14"/>
      <point x="267" y="22" type="curve"/>
      <point x="236" y="25" type="line" smooth="yes"/>
      <point x="211" y="27"/>
      <point x="191" y="33"/>
      <point x="185" y="44" type="curve" smooth="yes"/>
      <point x="168" y="74"/>
      <point x="167" y="204"/>
      <point x="167" y="251" type="curve" smooth="yes"/>
      <point x="167" y="469" type="line" smooth="yes"/>
      <point x="167" y="499"/>
      <point x="168" y="522"/>
      <point x="172" y="534" type="curve"/>
      <point x="174" y="534" type="line"/>
      <point x="195" y="512"/>
      <point x="263" y="430"/>
      <point x="290" y="399" type="curve" smooth="yes"/>
      <point x="522" y="135" type="line" smooth="yes"/>
      <point x="609" y="36"/>
      <point x="638" y="1"/>
      <point x="650" y="-16" type="curve" name="hr02"/>
      <point x="661" y="-16"/>
      <point x="667" y="-11"/>
      <point x="669" y="-5" type="curve"/>
      <point x="666" y="21"/>
      <point x="666" y="140"/>
      <point x="666" y="170" type="curve" smooth="yes"/>
    </contour>
    <contour>
      <point x="374" y="798" type="line" smooth="yes"/>
      <point x="350" y="798"/>
      <point x="335" y="793"/>
      <point x="319" y="775" type="curve"/>
      <point x="301" y="760"/>
      <point x="282" y="709"/>
      <point x="278" y="692" type="curve"/>
      <point x="282" y="684"/>
      <point x="293" y="683"/>
      <point x="299" y="688" type="curve"/>
      <point x="320" y="724"/>
      <point x="338" y="740"/>
      <point x="386" y="740" type="curve" smooth="yes"/>
      <point x="444" y="740" type="line" smooth="yes"/>
      <point x="467" y="740"/>
      <point x="482" y="742"/>
      <point x="497" y="756" type="curve" smooth="yes"/>
      <point x="511" y="770"/>
      <point x="531" y="806"/>
      <point x="538" y="833" type="curve"/>
      <point x="535" y="841"/>
      <point x="526" y="842"/>
      <point x="520" y="838" type="curve"/>
      <point x="494" y="803"/>
      <point x="482" y="798"/>
      <point x="437" y="798" type="curve" smooth="yes"/>
    </contour>
  </outline>
</glyph>
<glyph name="Ucircumflex" format="1">
  <advance width="746"/>
  <unicode hex="00DB"/>
  <outline>
    <contour>
      <point x="605" y="294" type="line" smooth="yes" name="hr00"/>
      <point x="605" y="142"/>
      <point x="550" y="28"/>
      <point x="405" y="28" type="curve" smooth="yes"/>
      <point x="252" y="28"/>
      <point x="202" y="134"/>
      <point x="202" y="295" type="curve" smooth="yes"/>
      <point x="202" y="511" type="line" smooth="yes"/>
      <point x="202" y="615"/>
      <point x="204" y="632"/>
      <point x="262" y="637" type="curve" smooth="yes"/>
      <point x="286" y="639" type="line"/>
      <point x="292" y="643"/>
      <point x="290" y="660"/>
      <point x="284" y="663" type="curve"/>
      <point x="235" y="661"/>
      <point x="202" y="660"/>
      <point x="161" y="660" type="curve" smooth="yes"/>
      <point x="121" y="660"/>
      <point x="87" y="661"/>
      <point x="37" y="663" type="curve"/>
      <point x="31" y="660"/>
      <point x="29" y="643"/>
      <point x="35" y="639" type="curve"/>
      <point x="60" y="637" type="line" smooth="yes"/>
      <point x="118" y="632"/>
      <point x="120" y="615"/>
      <point x="120" y="511" type="curve" smooth="yes"/>
      <point x="120" y="275" type="line" smooth="yes"/>
      <point x="120" y="156"/>
      <point x="145" y="83"/>
      <point x="198" y="39" type="curve" smooth="yes"/>
      <point x="247" y="-3"/>
      <point x="316" y="-16"/>
      <point x="385" y="-16" type="curve" smooth="yes"/>
      <point x="459" y="-16"/>
      <point x="533" y="10"/>
      <point x="576" y="57" type="curve" smooth="yes"/>
      <point x="632" y="117"/>
      <point x="646" y="209"/>
      <point x="646" y="296" type="curve" smooth="yes"/>
      <point x="646" y="409" type="line" smooth="yes"/>
      <point x="646" y="465"/>
      <point x="646" y="580"/>
      <point x="660" y="613" type="curve" smooth="yes"/>
      <point x="666" y="626"/>
      <point x="685" y="635"/>
      <point x="710" y="637" type="curve" smooth="yes"/>
      <point x="734" y="639" type="line"/>
      <point x="739" y="645"/>
      <point x="740" y="658"/>
      <point x="732" y="663" type="curve"/>
      <point x="696" y="661"/>
      <point x="669" y="660"/>
      <point x="627" y="660" type="curve" smooth="yes"/>
      <point x="588" y="660"/>
      <point x="551" y="661"/>
      <point x="513" y="663" type="curve"/>
      <point x="507" y="659"/>
      <point x="505" y="646"/>
      <point x="511" y="639" type="curve"/>
      <point x="536" y="637" type="line" smooth="yes"/>
      <point x="561" y="635"/>
      <point x="579" y="628"/>
      <point x="586" y="616" type="curve" smooth="yes"/>
      <point x="603" y="586"/>
      <point x="605" y="471"/>
      <point x="605" y="409" type="curve" smooth="yes"/>
    </contour>
    <contour>
      <point x="261" y="727" type="line"/>
      <point x="261" y="718"/>
      <point x="265" y="707"/>
      <point x="274" y="707" type="curve"/>
      <point x="387" y="765" type="line" smooth="yes"/>
      <point x="401" y="772"/>
      <point x="405" y="772"/>
      <point x="419" y="765" type="curve" smooth="yes"/>
      <point x="535" y="707" type="line"/>
      <point x="541" y="708"/>
      <point x="547" y="718"/>
      <point x="547" y="727" type="curve"/>
      <point x="425" y="838" type="line" smooth="yes"/>
      <point x="411" y="851"/>
      <point x="398" y="851"/>
      <point x="383" y="838" type="curve" smooth="yes"/>
    </contour>
  </outline>
</glyph>
<glyph name="agrave" format="1">
  <advance width="404"/>
  <unicode hex="00E0"/>
  <outline>
    <contour>
      <point x="118" y="164" type="line" smooth="yes" name="hr00"/>
      <point x="54" y="141"/>
      <point x="35" y="118"/>
      <point x="35" y="79" type="curve" smooth="yes"/>
      <point x="35" y="51"/>
      <point x="47" y="26"/>
      <point x="66" y="9" type="curve" smooth="yes"/>
      <point x="83" y="-6"/>
      <point x="107" y="-14"/>
      <point x="136" y="-14" type="curve" smooth="yes"/>
      <point x="164" y="-14"/>
      <point x="186" y="-1"/>
      <point x="208" y="11" type="curve" smooth="yes"/>
      <point x="228" y="22"/>
      <point x="240" y="31"/>
      <point x="247" y="31" type="curve" smooth="yes"/>
      <point x="253" y="31"/>
      <point x="259" y="23"/>
      <point x="263" y="17" type="curve" smooth="yes"/>
      <point x="280" y="-5"/>
      <point x="304" y="-14"/>
      <point x="328" y="-14" type="curve" smooth="yes"/>
      <point x="377" y="-14"/>
      <point x="412" y="25"/>
      <point x="412" y="30" type="curve" smooth="yes"/>
      <point x="412" y="37"/>
      <point x="409" y="43"/>
      <point x="405" y="43" type="curve" smooth="yes"/>
      <point x="402" y="43"/>
      <point x="397" y="39"/>
      <point x="392" y="36" type="curve" smooth="yes"/>
      <point x="386" y="33"/>
      <point x="377" y="30"/>
      <point x="367" y="30" type="curve" smooth="yes"/>
      <point x="328" y="30"/>
      <point x="319" y="71"/>
      <point x="321" y="117" type="curve" smooth="yes"/>
      <point x="327" y="291" type="line" smooth="yes"/>
      <point x="330" y="366"/>
      <point x="295" y="408"/>
      <point x="223" y="408" type="curve" smooth="yes"/>
      <point x="150" y="408"/>
      <point x="37" y="337"/>
      <point x="37" y="285" type="curve" smooth="yes"/>
      <point x="37" y="276"/>
      <point x="42" y="271"/>
      <point x="51" y="271" type="curve" smooth="yes"/>
      <point x="66" y="271"/>
      <point x="93" y="278"/>
      <point x="108" y="290" type="curve" smooth="yes"/>
      <point x="116" y="296"/>
      <point x="117" y="308"/>
      <point x="118" y="324" type="curve" smooth="yes"/>
      <point x="120" y="355"/>
      <point x="154" y="369"/>
      <point x="182" y="369" type="curve" smooth="yes"/>
      <point x="244" y="369"/>
      <point x="256" y="319"/>
      <point x="255" y="282" type="curve" smooth="yes"/>
      <point x="254" y="236" type="line" smooth="yes"/>
      <point x="254" y="221"/>
      <point x="252" y="212"/>
      <point x="237" y="207" type="curve" smooth="yes"/>
    </contour>
    <contour>
      <point x="112" y="91" type="curve" smooth="yes"/>
      <point x="112" y="130"/>
      <point x="141" y="145"/>
      <point x="200" y="165" type="curve" smooth="yes"/>
      <point x="218" y="171"/>
      <point x="235" y="175"/>
      <point x="241" y="175" type="curve" smooth="yes"/>
      <point x="247" y="175"/>
      <point x="251" y="173"/>
      <point x="251" y="162" type="curve" smooth="yes"/>
      <point x="249" y="103" type="line" smooth="yes"/>
      <point x="248" y="82"/>
      <point x="248" y="68"/>
      <point x="236" y="56" type="curve" smooth="yes"/>
      <point x="226" y="46"/>
      <point x="195" y="31"/>
      <point x="175" y="31" type="curve" smooth="yes"/>
      <point x="124" y="31"/>
      <point x="112" y="74"/>
    </contour>
    <contour>
      <point x="155" y="639" type="line" smooth="yes"/>
      <point x="149" y="652"/>
      <point x="141" y="663"/>
      <point x="130" y="663" type="curve" smooth="yes"/>
      <point x="123" y="663"/>
      <point x="109" y="659"/>
      <point x="95" y="647" type="curve" smooth="yes"/>
      <point x="82" y="637"/>
      <point x="75" y="629"/>
      <point x="75" y="621" type="curve" smooth="yes"/>
      <point x="75" y="613"/>
      <point x="81" y="603"/>
      <point x="93" y="590" type="curve" smooth="yes"/>
      <point x="215" y="457" type="line"/>
      <point x="222" y="456"/>
      <point x="237" y="460"/>
      <point x="237" y="469" type="curve"/>
    </contour>
  </outline>
</glyph>
<glyph name="ecircumflex" format="1">
  <advance width="396"/>
  <unicode hex="00EA"/>
  <outline>
    <contour>
      <point x="315" y="256" type="line" smooth="yes" name="hr00"/>
      <point x="357" y="256"/>
      <point x="371" y="257"/>
      <point x="374" y="263" type="curve" smooth="yes"/>
      <point x="376" y="267"/>
      <point x="378" y="275"/>
      <point x="378" y="289" type="curve" smooth="yes"/>
      <point x="378" y="349"/>
      <point x="322" y="408"/>
      <point x="236" y="408" type="curve" smooth="yes"/>
      <point x="116" y="408"/>
      <point x="35" y="305"/>
      <point x="35" y="182" type="curve" smooth="yes"/>
      <point x="35" y="138"/>
      <point x="47" y="91"/>
      <point x="77" y="52" type="curve" smooth="yes"/>
      <point x="106" y="14"/>
      <point x="157" y="-14"/>
      <point x="222" y="-14" type="curve" smooth="yes"/>
      <point x="274" y="-14"/>
      <point x="346" y="11"/>
      <point x="379" y="79" type="curve"/>
      <point x="378" y="88"/>
      <point x="371" y="94"/>
      <point x="361" y="91" type="curve"/>
      <point x="330" y="52"/>
      <point x="302" y="42"/>
      <point x="269" y="42" type="curve" smooth="yes"/>
      <point x="162" y="42"/>
      <point x="103" y="128"/>
      <point x="103" y="229" type="curve" smooth="yes"/>
      <point x="103" y="254"/>
      <point x="104" y="256"/>
      <point x="130" y="256" type="curve" smooth="yes"/>
    </contour>
    <contour>
      <point x="121" y="286" type="line" smooth="yes"/>
      <point x="114" y="286"/>
      <point x="114" y="289"/>
      <point x="114" y="291" type="curve" smooth="yes"/>
      <point x="115" y="324"/>
      <point x="166" y="378"/>
      <point x="225" y="378" type="curve" smooth="yes"/>
      <point x="283" y="378"/>
      <point x="302" y="343"/>
      <point x="302" y="315" type="curve" smooth="yes"/>
      <point x="302" y="302"/>
      <point x="299" y="298"/>
      <point x="296" y="296" type="curve" smooth="yes"/>
      <point x="288" y="290"/>
      <point x="266" y="286"/>
      <point x="192" y="286" type="curve" smooth="yes"/>
    </contour>
    <contour>
      <point x="316" y="456" type="line"/>
      <point x="321" y="454"/>
      <point x="337" y="459"/>
      <point x="338" y="465" type="curve"/>
      <point x="247" y="642" type="line" smooth="yes"/>
      <point x="236" y="663"/>
      <point x="223" y="663"/>
      <point x="212" y="642" type="curve" smooth="yes"/>
      <point x="122" y="465" type="line"/>
      <point x="123" y="459"/>
      <point x="136" y="454"/>
      <point x="142" y="456" type="curve"/>
      <point x="216" y="548" type="line" smooth="yes"/>
      <point x="228" y="563"/>
      <point x="231" y="563"/>
      <point x="243" y="548" type="curve" smooth="yes"/>
    </contour>
  </outline>
</glyph>
<glyph name="oacute" format="1">
  <advance width="486"/>
  <unicode hex="00F3"/>
  <outline>
    <contour>
      <point x="248" y="408" type="curve" smooth="yes" name="hr00"/>
      <point x="130" y="408"/>
      <point x="35" y="318"/>
      <point x="35" y="192" type="curve" smooth="yes"/>
      <point x="35" y="67"/>
      <point x="125" y="-14"/>
      <point x="240" y="-14" type="curve" smooth="yes"/>
      <point x="365" y="-14"/>
      <point x="451" y="76"/>
      <point x="451" y="201" type="curve" smooth="yes"/>
      <point x="451" y="324"/>
      <point x="360" y="408"/>
    </contour>
    <contour>
      <point x="365" y="185" type="curve" smooth="yes"/>
      <point x="365" y="108"/>
      <point x="338" y="16"/>
      <point x="250" y="16" type="curve" smooth="yes"/>
      <point x="162" y="16"/>
      <point x="121" y="114"/>
      <point x="121" y="205" type="curve" smooth="yes"/>
      <point x="121" y="315"/>
      <point x="170" y="378"/>
      <point x="236" y="378" type="curve" smooth="yes"/>
      <point x="331" y="378"/>
      <point x="365" y="270"/>
    </contour>
    <contour>
      <point x="344" y="588" type="line" smooth="yes"/>
      <point x="354" y="598"/>
      <point x="360" y="609"/>
      <point x="360" y="615" type="curve" smooth="yes"/>
      <point x="360" y="623"/>
      <point x="353" y="633"/>
      <point x="343" y="641" type="curve" smooth="yes"/>
      <point x="331" y="651"/>
      <point x="319" y="656"/>
      <point x="312" y="656" type="curve" smooth="yes"/>
      <point x="302" y="656"/>
      <point x="294" y="643"/>
      <point x="288" y="632" type="curve" smooth="yes"/>
      <point x="202" y="469" type="line"/>
      <point x="203" y="462"/>
      <point x="212" y="457"/>
      <point x="219" y="458" type="curve"/>
    </contour>
  </outline>
</glyph>
<glyph name="otilde" format="1">
  <advance width="486"/>
  <unicode hex="00F5"/>
  <outline>
    <contour>
      <point x="248" y="408" type="curve" smooth="yes" name="hr00"/>
      <point x="130" y="408"/>
      <point x="35" y="318"/>
      <point x="35" y="192" type="curve" smooth="yes"/>
      <point x="35" y="67"/>
      <point x="125" y="-14"/>
      <point x="240" y="-14" type="curve" smooth="yes"/>
      <point x="365" y="-14"/>
      <point x="451" y="76"/>
      <point x="451" y="201" type="curve" smooth="yes"/>
      <point x="451" y="324"/>
      <point x="360" y="408"/>
    </contour>
    <contour>
      <point x="365" y="185" type="curve" smooth="yes"/>
      <point x="365" y="108"/>
      <point x="338" y="16"/>
      <point x="250" y="16" type="curve" smooth="yes"/>
      <point x="162" y="16"/>
      <point x="121" y="114"/>
      <point x="121" y="205" type="curve" smooth="yes"/>
      <point x="121" y="315"/>
      <point x="170" y="378"/>
      <point x="236" y="378" type="curve" smooth="yes"/>
      <point x="331" y="378"/>
      <point x="365" y="270"/>
    </contour>
    <contour>
      <point x="218" y="570" type="line" smooth="yes"/>
      <point x="194" y="570"/>
      <point x="179" y="564"/>
      <point x="164" y="547" type="curve"/>
      <point x="148" y="532"/>
      <point x="130" y="484"/>
      <point x="127" y="468" type="curve"/>
      <point x="130" y="462"/>
      <point x="139" y="460"/>
      <point x="144" y="464" type="curve"/>
      <point x="163" y="499"/>
      <point x="181" y="515"/>
      <point x="225" y="515" type="curve" smooth="yes"/>
      <point x="277" y="515" type="line" smooth="yes"/>
      <point x="299" y="515"/>
      <point x="311" y="518"/>
      <point x="326" y="531" type="curve"/>
      <point x="339" y="545"/>
      <point x="357" y="577"/>
      <point x="363" y="602" type="curve"/>
      <point x="360" y="610"/>
      <point x="352" y="611"/>
      <point x="346" y="608" type="curve"/>
      <point x="323" y="574"/>
      <point x="311" y="570"/>
      <point x="271" y="570" type="curve" smooth="yes"/>
    </contour>
  </outline>
</glyph>
<glyph name="ucircumflex" format="1">
  <advance width="512"/>
  <unicode hex="00FB"/>
  <outline>
    <contour>
      <point x="159" y="314" type="line" smooth="yes" name="hr00"/>
      <point x="159" y="363"/>
      <point x="160" y="384"/>
      <point x="162" y="401" type="curve"/>
      <point x="161" y="405"/>
      <point x="158" y="407"/>
      <point x="152" y="408" type="curve"/>
      <point x="130" y="400"/>
      <point x="91" y="391"/>
      <point x="45" y="390" type="curve"/>
      <point x="38" y="387"/>
      <point x="37" y="373"/>
      <point x="43" y="368" type="curve"/>
      <point x="55" y="363" type="line" smooth="yes"/>
      <point x="85" y="350"/>
      <point x="85" y="341"/>
      <point x="85" y="278" type="curve" smooth="yes"/>
      <point x="85" y="111" type="line" smooth="yes"/>
      <point x="85" y="30"/>
      <point x="118" y="-14"/>
      <point x="206" y="-14" type="curve" smooth="yes"/>
      <point x="265" y="-14"/>
      <point x="314" y="19"/>
      <point x="344" y="38" type="curve"/>
      <point x="350" y="38"/>
      <point x="353" y="33"/>
      <point x="353" y="24" type="curve" smooth="yes"/>
      <point x="353" y="-17" type="line"/>
      <point x="355" y="-21"/>
      <point x="360" y="-24"/>
      <point x="365" y="-24" type="curve"/>
      <point x="399" y="-5"/>
      <point x="457" y="5"/>
      <point x="496" y="13" type="curve"/>
      <point x="504" y="17"/>
      <point x="503" y="37"/>
      <point x="497" y="42" type="curve"/>
      <point x="483" y="39"/>
      <point x="470" y="37"/>
      <point x="458" y="37" type="curve" smooth="yes"/>
      <point x="430" y="37"/>
      <point x="427" y="67"/>
      <point x="427" y="146" type="curve" smooth="yes"/>
      <point x="427" y="314" type="line" smooth="yes"/>
      <point x="427" y="351"/>
      <point x="428" y="382"/>
      <point x="430" y="401" type="curve"/>
      <point x="429" y="405"/>
      <point x="426" y="407"/>
      <point x="421" y="408" type="curve"/>
      <point x="399" y="398"/>
      <point x="344" y="391"/>
      <point x="304" y="390" type="curve"/>
      <point x="296" y="386"/>
      <point x="296" y="372"/>
      <point x="303" y="368" type="curve"/>
      <point x="316" y="363" type="line" smooth="yes"/>
      <point x="346" y="351"/>
      <point x="353" y="349"/>
      <point x="353" y="284" type="curve" smooth="yes"/>
      <point x="353" y="120" type="line" smooth="yes"/>
      <point x="353" y="89"/>
      <point x="346" y="74"/>
      <point x="333" y="62" type="curve" smooth="yes"/>
      <point x="311" y="43"/>
      <point x="279" y="32"/>
      <point x="252" y="32" type="curve" smooth="yes"/>
      <point x="176" y="32"/>
      <point x="159" y="78"/>
      <point x="159" y="147" type="curve" smooth="yes"/>
    </contour>
    <contour>
      <point x="334" y="465" type="line"/>
      <point x="339" y="463"/>
      <point x="355" y="468"/>
      <point x="356" y="474" type="curve"/>
      <point x="265" y="651" type="line" smooth="yes"/>
      <point x="254" y="672"/>
      <point x="241" y="672"/>
      <point x="230" y="651" type="curve" smooth="yes"/>
      <point x="140" y="474" type="line"/>
      <point x="141" y="468"/>
      <point x="154" y="463"/>
      <point x="160" y="465" type="curve"/>
      <point x="234" y="557" type="line" smooth="yes"/>
      <point x="246" y="572"/>
      <point x="249" y="572"/>
      <point x="261" y="557" type="curve" smooth="yes"/>
    </contour>
  </outline>
</glyph>
<glyph name="udieresis" format="1">
  <advance width="512"/>
  <unicode hex="00FC"/>
  <outline>
    <contour>
      <point x="159" y="314" type="line" smooth="yes" name="hr01"/>
      <point x="159" y="363"/>
      <point x="160" y="384"/>
      <point x="162" y="401" type="curve"/>
      <point x="161" y="405"/>
      <point x="158" y="407"/>
      <point x="152" y="408" type="curve"/>
      <point x="130" y="400"/>
      <point x="91" y="391"/>
      <point x="45" y="390" type="curve"/>
      <point x="38" y="387"/>
      <point x="37" y="373"/>
      <point x="43" y="368" type="curve"/>
      <point x="55" y="363" type="line" smooth="yes"/>
      <point x="85" y="350"/>
      <point x="85" y="341"/>
      <point x="85" y="278" type="curve" smooth="yes"/>
      <point x="85" y="111" type="line" smooth="yes"/>
      <point x="85" y="30"/>
      <point x="118" y="-14"/>
      <point x="206" y="-14" type="curve" smooth="yes"/>
      <point x="265" y="-14"/>
      <point x="314" y="19"/>
      <point x="344" y="38" type="curve"/>
      <point x="350" y="38"/>
      <point x="353" y="33"/>
      <point x="353" y="24" type="curve" smooth="yes"/>
      <point x="353" y="-17" type="line"/>
      <point x="355" y="-21"/>
      <point x="360" y="-24"/>
      <point x="365" y="-24" type="curve"/>
      <point x="399" y="-5"/>
      <point x="457" y="5"/>
      <point x="496" y="13" type="curve"/>
      <point x="504" y="17"/>
      <point x="503" y="37"/>
      <point x="497" y="42" type="curve"/>
      <point x="483" y="39"/>
      <point x="470" y="37"/>
      <point x="458" y="37" type="curve" smooth="yes"/>
      <point x="430" y="37"/>
      <point x="427" y="67"/>
      <point x="427" y="146" type="curve" smooth="yes"/>
      <point x="427" y="314" type="line" smooth="yes"/>
      <point x="427" y="351"/>
      <point x="428" y="382"/>
      <point x="430" y="401" type="curve"/>
      <point x="429" y="405"/>
      <point x="426" y="407"/>
      <point x="421" y="408" type="curve"/>
      <point x="399" y="398"/>
      <point x="344" y="391"/>
      <point x="304" y="390" type="curve"/>
      <point x="296" y="386"/>
      <point x="296" y="372"/>
      <point x="303" y="368" type="curve"/>
      <point x="316" y="363" type="line" smooth="yes"/>
      <point x="346" y="351"/>
      <point x="353" y="349"/>
      <point x="353" y="284" type="curve" smooth="yes"/>
      <point x="353" y="120" type="line" smooth="yes"/>
      <point x="353" y="89"/>
      <point x="346" y="74"/>
      <point x="333" y="62" type="curve" smooth="yes"/>
      <point x="311" y="43"/>
      <point x="279" y="32"/>
      <point x="252" y="32" type="curve" smooth="yes"/>
      <point x="176" y="32"/>
      <point x="159" y="78"/>
      <point x="159" y="147" type="curve" smooth="yes"/>
    </contour>
    <contour>
      <point x="161" y="502" type="curve" smooth="yes" name="hr02"/>
      <point x="190" y="502"/>
      <point x="211" y="524"/>
      <point x="211" y="555" type="curve" smooth="yes"/>
      <point x="211" y="579"/>
      <point x="190" y="603"/>
      <point x="161" y="603" type="curve" smooth="yes"/>
      <point x="132" y="603"/>
      <point x="111" y="580"/>
      <point x="112" y="551" type="curve" smooth="yes"/>
      <point x="113" y="520"/>
      <point x="133" y="502"/>
    </contour>
    <contour>
      <point x="336" y="502" type="curve" smooth="yes"/>
      <point x="365" y="502"/>
      <point x="384" y="525"/>
      <point x="384" y="556" type="curve" smooth="yes"/>
      <point x="384" y="579"/>
      <point x="365" y="603"/>
      <point x="336" y="603" type="curve" smooth="yes"/>
      <point x="307" y="603"/>
      <point x="285" y="580"/>
      <point x="285" y="552" type="curve" smooth="yes"/>
      <point x="286" y="521"/>
      <point x="308" y="502"/>
    </contour>
  </outline>
</glyph>
<glyph name="eogonek" format="1">
  <advance width="396"/>
  <unicode hex="0119"/>
  <outline>
    <contour>
      <point x="121" y="286" type="line" smooth="yes" name="hr01"/>
      <point x="114" y="286"/>
      <point x="114" y="289"/>
      <point x="114" y="291" type="curve" smooth="yes"/>
      <point x="115" y="324"/>
      <point x="166" y="378"/>
      <point x="225" y="378" type="curve" smooth="yes" name="hr02"/>
      <point x="283" y="378"/>
      <point x="302" y="343"/>
      <point x="302" y="315" type="curve" smooth="yes"/>
      <point x="302" y="302"/>
      <point x="299" y="298"/>
      <point x="296" y="296" type="curve" smooth="yes"/>
      <point x="288" y="290"/>
      <point x="266" y="286"/>
      <point x="192" y="286" type="curve" smooth="yes"/>
    </contour>
    <contour>
      <point x="236" y="408" type="curve" smooth="yes"/>
      <point x="116" y="408"/>
      <point x="35" y="305"/>
      <point x="35" y="182" type="curve" smooth="yes"/>
      <point x="35" y="138"/>
      <point x="47" y="91"/>
      <point x="77" y="52" type="curve" smooth="yes"/>
      <point x="106" y="14"/>
      <point x="157" y="-14"/>
      <point x="225" y="-14" type="curve" smooth="yes"/>
      <point x="243" y="-14"/>
      <point x="261" y="-12"/>
      <point x="275" y="-6" type="curve"/>
      <point x="193" y="-66"/>
      <point x="176" y="-103"/>
      <point x="176" y="-140" type="curve" smooth="yes"/>
      <point x="176" y="-175"/>
      <point x="208" y="-209"/>
      <point x="252" y="-209" type="curve" smooth="yes"/>
      <point x="282" y="-209"/>
      <point x="321" y="-195"/>
      <point x="345" y="-163" type="curve" name="hr03"/>
      <point x="345" y="-155"/>
      <point x="343" y="-150"/>
      <point x="336" y="-148" type="curve"/>
      <point x="324" y="-157"/>
      <point x="310" y="-162"/>
      <point x="287" y="-162" type="curve" smooth="yes"/>
      <point x="264" y="-162"/>
      <point x="245" y="-145"/>
      <point x="245" y="-119" type="curve" smooth="yes"/>
      <point x="245" y="-81"/>
      <point x="269" y="-37"/>
      <point x="322" y="14" type="curve" smooth="yes"/>
      <point x="344" y="36"/>
      <point x="365" y="55"/>
      <point x="379" y="79" type="curve"/>
      <point x="378" y="88"/>
      <point x="371" y="94"/>
      <point x="361" y="91" type="curve"/>
      <point x="330" y="54"/>
      <point x="302" y="42"/>
      <point x="269" y="42" type="curve" smooth="yes"/>
      <point x="162" y="42"/>
      <point x="103" y="128"/>
      <point x="103" y="229" type="curve" smooth="yes"/>
      <point x="103" y="254"/>
      <point x="104" y="256"/>
      <point x="130" y="256" type="curve" smooth="yes"/>
      <point x="315" y="256" type="line" smooth="yes" name="hr04"/>
      <point x="357" y="256"/>
      <point x="371" y="257"/>
      <point x="374" y="263" type="curve" smooth="yes"/>
      <point x="376" y="267"/>
      <point x="378" y="275"/>
      <point x="378" y="289" type="curve" smooth="yes"/>
      <point x="378" y="349"/>
      <point x="322" y="408"/>
    </contour>
  </outline>
</glyph>
<glyph name="Iogonek" format="1">
  <advance width="338"/>
  <unicode hex="012E"/>
  <outline>
    <contour>
      <point x="128" y="152" type="line" smooth="yes" name="hr01"/>
      <point x="128" y="46"/>
      <point x="126" y="32"/>
      <point x="67" y="25" type="curve" smooth="yes"/>
      <point x="42" y="22" type="line" name="hr02"/>
      <point x="36" y="16"/>
      <point x="38" y="0"/>
      <point x="44" y="-3" type="curve"/>
      <point x="82" y="-1"/>
      <point x="143" y="-1"/>
      <point x="173" y="-1" type="curve"/>
      <point x="114" y="-43"/>
      <point x="85" y="-87"/>
      <point x="85" y="-125" type="curve" smooth="yes"/>
      <point x="85" y="-176"/>
      <point x="122" y="-211"/>
      <point x="175" y="-211" type="curve" smooth="yes"/>
      <point x="215" y="-211"/>
      <point x="255" y="-195"/>
      <point x="280" y="-164" type="curve"/>
      <point x="280" y="-155"/>
      <point x="277" y="-150"/>
      <point x="272" y="-147" type="curve"/>
      <point x="259" y="-154"/>
      <point x="238" y="-158"/>
      <point x="226" y="-158" type="curve" smooth="yes"/>
      <point x="189" y="-158"/>
      <point x="159" y="-143"/>
      <point x="159" y="-94" type="curve" smooth="yes"/>
      <point x="159" y="-69"/>
      <point x="172" y="-35"/>
      <point x="208" y="0" type="curve"/>
      <point x="211" y="0" type="line" smooth="yes"/>
      <point x="221" y="0"/>
      <point x="264" y="-1"/>
      <point x="294" y="-3" type="curve" name="hr03"/>
      <point x="300" y="0"/>
      <point x="302" y="18"/>
      <point x="296" y="22" type="curve"/>
      <point x="271" y="25" type="line" smooth="yes"/>
      <point x="212" y="32"/>
      <point x="210" y="46"/>
      <point x="210" y="152" type="curve" smooth="yes"/>
      <point x="210" y="508" type="line" smooth="yes"/>
      <point x="210" y="614"/>
      <point x="212" y="631"/>
      <point x="271" y="636" type="curve" smooth="yes"/>
      <point x="296" y="638" type="line"/>
      <point x="302" y="642"/>
      <point x="300" y="660"/>
      <point x="294" y="663" type="curve"/>
      <point x="244" y="661"/>
      <point x="210" y="660"/>
      <point x="170" y="660" type="curve" smooth="yes"/>
      <point x="128" y="660"/>
      <point x="94" y="661"/>
      <point x="44" y="663" type="curve"/>
      <point x="38" y="660"/>
      <point x="36" y="642"/>
      <point x="42" y="638" type="curve"/>
      <point x="67" y="636" type="line" smooth="yes"/>
      <point x="126" y="631"/>
      <point x="128" y="614"/>
      <point x="128" y="508" type="curve" smooth="yes"/>
    </contour>
  </outline>
</glyph>
<glyph name="Idotaccent" format="1">
  <advance width="338"/>
  <unicode hex="0130"/>
  <outline>
    <contour>
      <point x="128" y="152" type="line" smooth="yes" name="hr01"/>
      <point x="128" y="46"/>
      <point x="126" y="32"/>
      <point x="67" y="25" type="curve" smooth="yes"/>
      <point x="42" y="22" type="line"/>
      <point x="36" y="16"/>
      <point x="38" y="0"/>
      <point x="44" y="-3" type="curve"/>
      <point x="94" y="-1"/>
      <point x="128" y="0"/>
      <point x="170" y="0" type="curve" smooth="yes"/>
      <point x="210" y="0"/>
      <point x="244" y="-1"/>
      <point x="294" y="-3" type="curve"/>
      <point x="300" y="0"/>
      <point x="302" y="18"/>
      <point x="296" y="22" type="curve"/>
      <point x="271" y="25" type="line" smooth="yes"/>
      <point x="212" y="32"/>
      <point x="210" y="46"/>
      <point x="210" y="152" type="curve" smooth="yes"/>
      <point x="210" y="508" type="line" smooth="yes"/>
      <point x="210" y="614"/>
      <point x="212" y="631"/>
      <point x="271" y="636" type="curve" smooth="yes"/>
      <point x="296" y="638" type="line"/>
      <point x="302" y="642"/>
      <point x="300" y="660"/>
      <point x="294" y="663" type="curve"/>
      <point x="244" y="661"/>
      <point x="210" y="660"/>
      <point x="170" y="660" type="curve" smooth="yes"/>
      <point x="128" y="660"/>
      <point x="94" y="661"/>
      <point x="44" y="663" type="curve"/>
      <point x="38" y="660"/>
      <point x="36" y="642"/>
      <point x="42" y="638" type="curve"/>
      <point x="67" y="636" type="line" smooth="yes"/>
      <point x="126" y="631"/>
      <point x="128" y="614"/>
      <point x="128" y="508" type="curve" smooth="yes"/>
    </contour>
    <contour>
      <point x="170" y="707" type="curve" smooth="yes" name="hr02"/>
      <point x="201" y="707"/>
      <point x="223" y="730"/>
      <point x="223" y="763" type="curve" smooth="yes"/>
      <point x="223" y="788"/>
      <point x="201" y="814"/>
      <point x="170" y="814" type="curve" smooth="yes"/>
      <point x="138" y="814"/>
      <point x="115" y="790"/>
      <point x="116" y="760" type="curve" smooth="yes"/>
      <point x="117" y="726"/>
      <point x="139" y="707"/>
    </contour>
  </outline>
</glyph>
<glyph name="Ncaron" format="1">
  <advance width="783"/>
  <unicode hex="0147"/>
  <outline>
    <contour>
      <point x="666" y="409" type="line" smooth="yes" name="hr01"/>
      <point x="666" y="455"/>
      <point x="664" y="579"/>
      <point x="681" y="615" type="curve" smooth="yes"/>
      <point x="685" y="623"/>
      <point x="705" y="631"/>
      <point x="737" y="636" type="curve" smooth="yes"/>
      <point x="751" y="638" type="line"/>
      <point x="757" y="644"/>
      <point x="757" y="658"/>
      <point x="749" y="663" type="curve"/>
      <point x="715" y="661"/>
      <point x="689" y="660"/>
      <point x="646" y="660" type="curve" smooth="yes"/>
      <point x="608" y="660"/>
      <point x="574" y="661"/>
      <point x="528" y="663" type="curve"/>
      <point x="520" y="660"/>
      <point x="519" y="644"/>
      <point x="526" y="638" type="curve"/>
      <point x="543" y="636" type="line" smooth="yes"/>
      <point x="583" y="631"/>
      <point x="599" y="625"/>
      <point x="605" y="616" type="curve" smooth="yes"/>
      <point x="624" y="586"/>
      <point x="625" y="456"/>
      <point x="625" y="409" type="curve" smooth="yes"/>
      <point x="625" y="195" type="line" smooth="yes"/>
      <point x="625" y="174"/>
      <point x="625" y="158"/>
      <point x="621" y="153" type="curve"/>
      <point x="619" y="153" type="line"/>
      <point x="572" y="201"/>
      <point x="523" y="257"/>
      <point x="454" y="334" type="curve" smooth="yes"/>
      <point x="357" y="443" type="line" smooth="yes"/>
      <point x="324" y="480"/>
      <point x="206" y="612"/>
      <point x="186" y="663" type="curve"/>
      <point x="173" y="661"/>
      <point x="156" y="660"/>
      <point x="140" y="660" type="curve" smooth="yes"/>
      <point x="122" y="660"/>
      <point x="69" y="660"/>
      <point x="27" y="663" type="curve"/>
      <point x="19" y="659"/>
      <point x="19" y="644"/>
      <point x="25" y="638" type="curve"/>
      <point x="42" y="636" type="line" smooth="yes"/>
      <point x="66" y="633"/>
      <point x="90" y="626"/>
      <point x="104" y="612" type="curve" smooth="yes"/>
      <point x="125" y="589"/>
      <point x="126" y="568"/>
      <point x="126" y="540" type="curve" smooth="yes"/>
      <point x="126" y="251" type="line" smooth="yes"/>
      <point x="126" y="203"/>
      <point x="127" y="81"/>
      <point x="113" y="45" type="curve" smooth="yes"/>
      <point x="108" y="34"/>
      <point x="92" y="28"/>
      <point x="69" y="25" type="curve" smooth="yes"/>
      <point x="42" y="22" type="line"/>
      <point x="36" y="16"/>
      <point x="37" y="2"/>
      <point x="44" y="-3" type="curve"/>
      <point x="79" y="-1"/>
      <point x="106" y="0"/>
      <point x="148" y="0" type="curve" smooth="yes"/>
      <point x="185" y="0"/>
      <point x="220" y="-1"/>
      <point x="265" y="-3" type="curve"/>
      <point x="272" y="2"/>
      <point x="273" y="14"/>
      <point x="267" y="22" type="curve"/>
      <point x="236" y="25" type="line" smooth="yes"/>
      <point x="211" y="27"/>
      <point x="191" y="33"/>
      <point x="185" y="44" type="curve" smooth="yes"/>
      <point x="168" y="74"/>
      <point x="167" y="204"/>
      <point x="167" y="251" type="curve" smooth="yes"/>
      <point x="167" y="469" type="line" smooth="yes"/>
      <point x="167" y="499"/>
      <point x="168" y="522"/>
      <point x="172" y="534" type="curve"/>
      <point x="174" y="534" type="line"/>
      <point x="195" y="512"/>
      <point x="263" y="430"/>
      <point x="290" y="399" type="curve" smooth="yes"/>
      <point x="522" y="135" type="line" smooth="yes"/>
      <point x="609" y="36"/>
      <point x="638" y="1"/>
      <point x="650" y="-16" type="curve" name="hr02"/>
      <point x="661" y="-16"/>
      <point x="667" y="-11"/>
      <point x="669" y="-5" type="curve"/>
      <point x="666" y="21"/>
      <point x="666" y="140"/>
      <point x="666" y="170" type="curve" smooth="yes"/>
    </contour>
    <contour>
      <point x="372" y="713" type="line" smooth="yes"/>
      <point x="386" y="701"/>
      <point x="399" y="700"/>
      <point x="413" y="713" type="curve" smooth="yes"/>
      <point x="535" y="826" type="line"/>
      <point x="535" y="835"/>
      <point x="531" y="845"/>
      <point x="524" y="846" type="curve"/>
      <point x="407" y="787" type="line" smooth="yes"/>
      <point x="394" y="781"/>
      <point x="390" y="781"/>
      <point x="379" y="787" type="curve" smooth="yes"/>
      <point x="263" y="846" type="line"/>
      <point x="255" y="846"/>
      <point x="248" y="835"/>
      <point x="248" y="826" type="curve"/>
    </contour>
  </outline>
</glyph>
<glyph name="oe" format="1">
  <advance width="729"/>
  <unicode hex="0153"/>
  <outline>
    <contour>
      <point x="121" y="204" type="curve" smooth="yes" name="hr01"/>
      <point x="121" y="307"/>
      <point x="169" y="378"/>
      <point x="235" y="378" type="curve" smooth="yes"/>
      <point x="331" y="378"/>
      <point x="365" y="269"/>
      <point x="365" y="185" type="curve" smooth="yes"/>
      <point x="365" y="109"/>
      <point x="338" y="16"/>
      <point x="248" y="16" type="curve" smooth="yes"/>
      <point x="164" y="16"/>
      <point x="121" y="118"/>
    </contour>
    <contour>
      <point x="627" y="256" type="line" smooth="yes"/>
      <point x="686" y="256"/>
      <point x="705" y="260"/>
      <point x="708" y="266" type="curve" smooth="yes"/>
      <point x="710" y="270"/>
      <point x="711" y="281"/>
      <point x="711" y="289" type="curve" smooth="yes"/>
      <point x="711" y="349"/>
      <point x="657" y="408"/>
      <point x="563" y="408" type="curve" smooth="yes"/>
      <point x="503" y="408"/>
      <point x="440" y="376"/>
      <point x="405" y="322" type="curve"/>
      <point x="371" y="379"/>
      <point x="311" y="408"/>
      <point x="248" y="408" type="curve" smooth="yes"/>
      <point x="128" y="408"/>
      <point x="35" y="318"/>
      <point x="35" y="192" type="curve" smooth="yes"/>
      <point x="35" y="67"/>
      <point x="122" y="-14"/>
      <point x="239" y="-14" type="curve" smooth="yes"/>
      <point x="302" y="-14"/>
      <point x="365" y="13"/>
      <point x="401" y="68" type="curve"/>
      <point x="432" y="18"/>
      <point x="491" y="-14"/>
      <point x="556" y="-14" type="curve" smooth="yes"/>
      <point x="619" y="-14"/>
      <point x="682" y="10"/>
      <point x="712" y="79" type="curve"/>
      <point x="712" y="86"/>
      <point x="702" y="92"/>
      <point x="694" y="89" type="curve" name="hr02"/>
      <point x="666" y="52"/>
      <point x="646" y="40"/>
      <point x="599" y="40" type="curve" smooth="yes"/>
      <point x="492" y="40"/>
      <point x="435" y="128"/>
      <point x="435" y="218" type="curve" smooth="yes"/>
      <point x="435" y="248"/>
      <point x="438" y="256"/>
      <point x="462" y="256" type="curve" smooth="yes"/>
    </contour>
    <contour>
      <point x="477" y="286" type="line" smooth="yes"/>
      <point x="452" y="286"/>
      <point x="449" y="290"/>
      <point x="449" y="294" type="curve" smooth="yes"/>
      <point x="449" y="334"/>
      <point x="503" y="378"/>
      <point x="558" y="378" type="curve" smooth="yes"/>
      <point x="616" y="378"/>
      <point x="635" y="340"/>
      <point x="635" y="315" type="curve" smooth="yes"/>
      <point x="635" y="302"/>
      <point x="632" y="298"/>
      <point x="629" y="295" type="curve" smooth="yes"/>
      <point x="623" y="289"/>
      <point x="601" y="286"/>
      <point x="540" y="286" type="curve" smooth="yes"/>
    </contour>
  </outline>
</glyph>
<glyph name="uni021B" format="1">
  <advance width="307"/>
  <unicode hex="021B"/>
  <outline>
    <contour>
      <point x="293" y="352" type="line" name="hr01"/>
      <point x="302" y="358"/>
      <point x="304" y="385"/>
      <point x="292" y="394" type="curve"/>
      <point x="181" y="394" type="line" smooth="yes"/>
      <point x="164" y="394"/>
      <point x="163" y="395"/>
      <point x="163" y="413" type="curve" smooth="yes"/>
      <point x="163" y="458" type="line"/>
      <point x="159" y="465"/>
      <point x="147" y="465"/>
      <point x="142" y="463" type="curve"/>
      <point x="132" y="443"/>
      <point x="113" y="416"/>
      <point x="100" y="404" type="curve" smooth="yes"/>
      <point x="90" y="395"/>
      <point x="65" y="382"/>
      <point x="36" y="373" type="curve"/>
      <point x="32" y="367"/>
      <point x="33" y="356"/>
      <point x="39" y="352" type="curve"/>
      <point x="67" y="352" type="line" smooth="yes"/>
      <point x="87" y="352"/>
      <point x="88" y="350"/>
      <point x="88" y="323" type="curve" smooth="yes"/>
      <point x="88" y="94" type="line" smooth="yes"/>
      <point x="88" y="34"/>
      <point x="106" y="-14"/>
      <point x="192" y="-14" type="curve" smooth="yes"/>
      <point x="243" y="-14"/>
      <point x="279" y="11"/>
      <point x="297" y="32" type="curve"/>
      <point x="299" y="38"/>
      <point x="295" y="49"/>
      <point x="287" y="49" type="curve" smooth="yes"/>
      <point x="284" y="49"/>
      <point x="271" y="38"/>
      <point x="262" y="35" type="curve" smooth="yes"/>
      <point x="254" y="32"/>
      <point x="245" y="30"/>
      <point x="235" y="30" type="curve" smooth="yes"/>
      <point x="169" y="30"/>
      <point x="162" y="83"/>
      <point x="162" y="141" type="curve" smooth="yes"/>
      <point x="162" y="328" type="line" smooth="yes"/>
      <point x="162" y="349"/>
      <point x="163" y="352"/>
      <point x="180" y="352" type="curve" smooth="yes"/>
    </contour>
    <contour>
      <point x="162" y="-58" type="curve" smooth="yes" name="hr02"/>
      <point x="135" y="-58"/>
      <point x="120" y="-77"/>
      <point x="120" y="-96" type="curve" smooth="yes"/>
      <point x="120" y="-106"/>
      <point x="124" y="-115"/>
      <point x="135" y="-121" type="curve" smooth="yes"/>
      <point x="142" y="-125"/>
      <point x="173" y="-137"/>
      <point x="173" y="-168" type="curve" smooth="yes"/>
      <point x="173" y="-207"/>
      <point x="138" y="-230"/>
      <point x="114" y="-238" type="curve"/>
      <point x="110" y="-242"/>
      <point x="111" y="-265"/>
      <point x="119" y="-269" type="curve"/>
      <point x="178" y="-251"/>
      <point x="233" y="-212"/>
      <point x="233" y="-146" type="curve" smooth="yes"/>
      <point x="233" y="-85"/>
      <point x="191" y="-58"/>
    </contour>
  </outline>
</glyph>
<glyph name="circumflex" format="1">
  <advance width="360"/>
  <unicode hex="02C6"/>
  <outline>
    <contour>
      <point x="266" y="465" type="line" name="hr00"/>
      <point x="271" y="463"/>
      <point x="287" y="468"/>
      <point x="288" y="474" type="curve"/>
      <point x="197" y="651" type="line" smooth="yes"/>
      <point x="186" y="672"/>
      <point x="173" y="672"/>
      <point x="162" y="651" type="curve" smooth="yes"/>
      <point x="72" y="474" type="line"/>
      <point x="73" y="468"/>
      <point x="86" y="463"/>
      <point x="92" y="465" type="curve"/>
      <point x="166" y="557" type="line" smooth="yes"/>
      <point x="178" y="572"/>
      <point x="181" y="572"/>
      <point x="193" y="557" type="curve" smooth="yes"/>
    </contour>
  </outline>
</glyph>
<glyph name="dotaccent" format="1">
  <advance width="360"/>
  <unicode hex="02D9"/>
  <outline>
    <contour>
      <point x="184" y="612" type="curve" smooth="yes" name="hr00"/>
      <point x="154" y="612"/>
      <point x="131" y="592"/>
      <point x="131" y="559" type="curve" smooth="yes"/>
      <point x="131" y="532"/>
      <point x="150" y="510"/>
      <point x="181" y="510" type="curve" smooth="yes"/>
      <point x="209" y="510"/>
      <point x="232" y="525"/>
      <point x="232" y="560" type="curve" smooth="yes"/>
      <point x="232" y="588"/>
      <point x="214" y="612"/>
    </contour>
  </outline>
</glyph>
<glyph name="tilde" format="1">
  <advance width="360"/>
  <unicode hex="02DC"/>
  <outline>
    <contour>
      <point x="152" y="583" type="line" smooth="yes" name="hr00"/>
      <point x="128" y="583"/>
      <point x="113" y="577"/>
      <point x="97" y="560" type="curve" smooth="yes"/>
      <point x="81" y="544"/>
      <point x="63" y="495"/>
      <point x="60" y="479" type="curve"/>
      <point x="63" y="473"/>
      <point x="72" y="471"/>
      <point x="77" y="475" type="curve"/>
      <point x="96" y="511"/>
      <point x="115" y="527"/>
      <point x="160" y="527" type="curve" smooth="yes"/>
      <point x="213" y="527" type="line" smooth="yes"/>
      <point x="235" y="527"/>
      <point x="247" y="530"/>
      <point x="262" y="543" type="curve"/>
      <point x="276" y="558"/>
      <point x="294" y="590"/>
      <point x="300" y="616" type="curve"/>
      <point x="297" y="624"/>
      <point x="289" y="625"/>
      <point x="283" y="622" type="curve"/>
      <point x="259" y="587"/>
      <point x="247" y="583"/>
      <point x="206" y="583" type="curve" smooth="yes"/>
    </contour>
  </outline>
</glyph>
<glyph name="daggerdbl" format="1">
  <advance width="480"/>
  <unicode hex="2021"/>
  <outline>
    <contour>
      <point x="240" y="676" type="curve" smooth="yes" name="hr00"/>
      <point x="207" y="676"/>
      <point x="195" y="649"/>
      <point x="195" y="630" type="curve" smooth="yes"/>
      <point x="195" y="600"/>
      <point x="225" y="577"/>
      <point x="225" y="467" type="curve"/>
      <point x="196" y="467"/>
      <point x="171" y="474"/>
      <point x="149" y="481" type="curve" smooth="yes"/>
      <point x="129" y="488"/>
      <point x="111" y="497"/>
      <point x="95" y="497" type="curve" smooth="yes"/>
      <point x="64" y="497"/>
      <point x="51" y="478"/>
      <point x="51" y="454" type="curve" smooth="yes"/>
      <point x="51" y="430"/>
      <point x="64" y="412"/>
      <point x="95" y="412" type="curve" smooth="yes"/>
      <point x="128" y="411"/>
      <point x="163" y="441"/>
      <point x="225" y="441" type="curve"/>
      <point x="225" y="363"/>
      <point x="220" y="318"/>
      <point x="189" y="287" type="curve"/>
      <point x="220" y="259"/>
      <point x="225" y="214"/>
      <point x="225" y="122" type="curve"/>
      <point x="196" y="122"/>
      <point x="171" y="129"/>
      <point x="149" y="136" type="curve" smooth="yes"/>
      <point x="129" y="143"/>
      <point x="111" y="152"/>
      <point x="95" y="152" type="curve" smooth="yes"/>
      <point x="64" y="152"/>
      <point x="51" y="133"/>
      <point x="51" y="109" type="curve" smooth="yes"/>
      <point x="51" y="85"/>
      <point x="64" y="67"/>
      <point x="95" y="67" type="curve" smooth="yes"/>
      <point x="128" y="66"/>
      <point x="163" y="96"/>
      <point x="225" y="96" type="curve"/>
      <point x="225" y="-13"/>
      <point x="195" y="-47"/>
      <point x="195" y="-77" type="curve" smooth="yes"/>
      <point x="195" y="-96"/>
      <point x="207" y="-124"/>
      <point x="240" y="-124" type="curve" smooth="yes"/>
      <point x="273" y="-124"/>
      <point x="285" y="-96"/>
      <point x="285" y="-77" type="curve" smooth="yes"/>
      <point x="285" y="-47"/>
      <point x="255" y="-13"/>
      <point x="255" y="96" type="curve"/>
      <point x="317" y="96"/>
      <point x="352" y="67"/>
      <point x="385" y="67" type="curve" smooth="yes"/>
      <point x="416" y="67"/>
      <point x="429" y="85"/>
      <point x="429" y="109" type="curve" smooth="yes"/>
      <point x="429" y="133"/>
      <point x="416" y="152"/>
      <point x="385" y="152" type="curve" smooth="yes"/>
      <point x="369" y="152"/>
      <point x="351" y="143"/>
      <point x="331" y="136" type="curve" smooth="yes"/>
      <point x="309" y="129"/>
      <point x="284" y="122"/>
      <point x="255" y="122" type="curve"/>
      <point x="255" y="214"/>
      <point x="260" y="259"/>
      <point x="291" y="287" type="curve"/>
      <point x="260" y="318"/>
      <point x="255" y="363"/>
      <point x="255" y="441" type="curve"/>
      <point x="317" y="441"/>
      <point x="352" y="412"/>
      <point x="385" y="412" type="curve" smooth="yes"/>
      <point x="416" y="412"/>
      <point x="429" y="430"/>
      <point x="429" y="454" type="curve" smooth="yes"/>
      <point x="429" y="478"/>
      <point x="416" y="497"/>
      <point x="385" y="497" type="curve" smooth="yes"/>
      <point x="369" y="497"/>
      <point x="351" y="488"/>
      <point x="331" y="481" type="curve" smooth="yes"/>
      <point x="309" y="474"/>
      <point x="284" y="467"/>
      <point x="255" y="467" type="curve"/>
      <point x="255" y="577"/>
      <point x="285" y="600"/>
      <point x="285" y="630" type="curve" smooth="yes"/>
      <point x="285" y="649"/>
      <point x="273" y="676"/>
    </contour>
  </outline>
</glyph>
<glyph name="ellipsis" format="1">
  <advance width="1000"/>
  <unicode hex="2026"/>
  <outline>
    <contour>
      <point x="500" y="-14" type="curve" smooth="yes" name="hr00"/>
      <point x="534" y="-14"/>
      <point x="556" y="9"/>
      <point x="556" y="41" type="curve" smooth="yes"/>
      <point x="556" y="73"/>
      <point x="534" y="100"/>
      <point x="500" y="100" type="curve" smooth="yes"/>
      <point x="468" y="100"/>
      <point x="444" y="75"/>
      <point x="444" y="41" type="curve" smooth="yes"/>
      <point x="444" y="7"/>
      <point x="471" y="-14"/>
    </contour>
    <contour>
      <point x="833" y="-14" type="curve" smooth="yes"/>
      <point x="867" y="-14"/>
      <point x="889" y="9"/>
      <point x="889" y="41" type="curve" smooth="yes"/>
      <point x="889" y="73"/>
      <point x="867" y="100"/>
      <point x="833" y="100" type="curve" smooth="yes"/>
      <point x="801" y="100"/>
      <point x="777" y="75"/>
      <point x="777" y="41" type="curve" smooth="yes"/>
      <point x="777" y="7"/>
      <point x="804" y="-14"/>
    </contour>
    <contour>
      <point x="167" y="-14" type="curve" smooth="yes"/>
      <point x="201" y="-14"/>
      <point x="223" y="9"/>
      <point x="223" y="41" type="curve" smooth="yes"/>
      <point x="223" y="73"/>
      <point x="201" y="100"/>
      <point x="167" y="100" type="curve" smooth="yes"/>
      <point x="135" y="100"/>
      <point x="111" y="75"/>
      <point x="111" y="41" type="curve" smooth="yes"/>
      <point x="111" y="7"/>
      <point x="138" y="-14"/>
    </contour>
  </outline>
</glyph>
<glyph name="perthousand" format="1">
  <advance width="1144"/>
  <unicode hex="2030"/>
  <outline>
    <contour>
      <point x="759" y="170" type="curve" smooth="yes" name="hr01"/>
      <point x="759" y="247"/>
      <point x="715" y="355"/>
      <point x="613" y="355" type="curve" smooth="yes"/>
      <point x="511" y="355"/>
      <point x="467" y="247"/>
      <point x="467" y="170" type="curve" smooth="yes"/>
      <point x="467" y="95"/>
      <point x="511" y="-14"/>
      <point x="613" y="-14" type="curve" smooth="yes"/>
      <point x="715" y="-14"/>
      <point x="759" y="95"/>
    </contour>
    <contour>
      <point x="690" y="170" type="curve" smooth="yes"/>
      <point x="690" y="121"/>
      <point x="682" y="14"/>
      <point x="614" y="14" type="curve" smooth="yes"/>
      <point x="546" y="14"/>
      <point x="536" y="119"/>
      <point x="536" y="170" type="curve" smooth="yes"/>
      <point x="536" y="222"/>
      <point x="546" y="327"/>
      <point x="614" y="327" type="curve" smooth="yes"/>
      <point x="682" y="327"/>
      <point x="690" y="220"/>
    </contour>
    <contour>
      <point x="337" y="455" type="curve" smooth="yes" name="hr02"/>
      <point x="337" y="532"/>
      <point x="293" y="640"/>
      <point x="191" y="640" type="curve" smooth="yes"/>
      <point x="89" y="640"/>
      <point x="45" y="532"/>
      <point x="45" y="455" type="curve" smooth="yes"/>
      <point x="45" y="380"/>
      <point x="89" y="271"/>
      <point x="191" y="271" type="curve" smooth="yes"/>
      <point x="293" y="271"/>
      <point x="337" y="380"/>
    </contour>
    <contour>
      <point x="268" y="455" type="curve" smooth="yes"/>
      <point x="268" y="406"/>
      <point x="260" y="299"/>
      <point x="192" y="299" type="curve" smooth="yes"/>
      <point x="124" y="299"/>
      <point x="114" y="404"/>
      <point x="114" y="455" type="curve" smooth="yes"/>
      <point x="114" y="507"/>
      <point x="124" y="612"/>
      <point x="192" y="612" type="curve" smooth="yes"/>
      <point x="260" y="612"/>
      <point x="268" y="505"/>
    </contour>
    <contour>
      <point x="1099" y="170" type="curve" smooth="yes"/>
      <point x="1099" y="247"/>
      <point x="1055" y="355"/>
      <point x="953" y="355" type="curve" smooth="yes" name="hr03"/>
      <point x="851" y="355"/>
      <point x="807" y="247"/>
      <point x="807" y="170" type="curve" smooth="yes"/>
      <point x="807" y="95"/>
      <point x="851" y="-14"/>
      <point x="953" y="-14" type="curve" smooth="yes"/>
      <point x="1055" y="-14"/>
      <point x="1099" y="95"/>
    </contour>
    <contour>
      <point x="1030" y="170" type="curve" smooth="yes" name="hr05"/>
      <point x="1030" y="121"/>
      <point x="1022" y="14"/>
      <point x="954" y="14" type="curve" smooth="yes"/>
      <point x="886" y="14"/>
      <point x="876" y="119"/>
      <point x="876" y="170" type="curve" smooth="yes"/>
      <point x="876" y="222"/>
      <point x="886" y="327"/>
      <point x="954" y="327" type="curve" smooth="yes"/>
      <point x="1022" y="327"/>
      <point x="1030" y="220"/>
    </contour>
    <contour>
      <point x="616" y="635" type="line"/>
      <point x="607" y="647"/>
      <point x="593" y="653"/>
      <point x="583" y="652" type="curve"/>
      <point x="179" y="-18" type="line"/>
      <point x="179" y="-31"/>
      <point x="193" y="-40"/>
      <point x="209" y="-40" type="curve"/>
    </contour>
  </outline>
</glyph>
<glyph name="eight.superior" format="1">
  <advance width="360"/>
  <unicode hex="2078"/>
  <outline>
    <contour>
      <point x="179" y="308" type="curve" smooth="yes" name="hr01"/>
      <point x="260" y="308"/>
      <point x="318" y="346"/>
      <point x="318" y="412" type="curve" smooth="yes"/>
      <point x="318" y="472"/>
      <point x="278" y="503"/>
      <point x="233" y="526" type="curve"/>
      <point x="264" y="541"/>
      <point x="307" y="568"/>
      <point x="307" y="612" type="curve" smooth="yes" name="hr02"/>
      <point x="307" y="676"/>
      <point x="254" y="708"/>
      <point x="186" y="708" type="curve" smooth="yes"/>
      <point x="115" y="708"/>
      <point x="59" y="666"/>
      <point x="59" y="603" type="curve" smooth="yes"/>
      <point x="59" y="559"/>
      <point x="93" y="527"/>
      <point x="132" y="511" type="curve"/>
      <point x="132" y="509" type="line"/>
      <point x="86" y="494"/>
      <point x="43" y="459"/>
      <point x="43" y="408" type="curve" smooth="yes" name="hr03"/>
      <point x="43" y="335"/>
      <point x="110" y="308"/>
    </contour>
    <contour>
      <point x="160" y="497" type="curve"/>
      <point x="215" y="480"/>
      <point x="259" y="449"/>
      <point x="259" y="402" type="curve" smooth="yes"/>
      <point x="259" y="362"/>
      <point x="229" y="334"/>
      <point x="183" y="334" type="curve" smooth="yes"/>
      <point x="136" y="334"/>
      <point x="103" y="372"/>
      <point x="103" y="411" type="curve" smooth="yes"/>
      <point x="103" y="446"/>
      <point x="118" y="481"/>
    </contour>
    <contour>
      <point x="206" y="539" type="curve" name="hr04"/>
      <point x="160" y="554"/>
      <point x="116" y="578"/>
      <point x="116" y="617" type="curve" smooth="yes"/>
      <point x="116" y="653"/>
      <point x="142" y="682"/>
      <point x="183" y="682" type="curve" smooth="yes"/>
      <point x="223" y="682"/>
      <point x="251" y="648"/>
      <point x="251" y="614" type="curve" smooth="yes"/>
      <point x="251" y="576"/>
      <point x="232" y="553"/>
    </contour>
  </outline>
</glyph>
<glyph name="parenright.superior" format="1">
  <advance width="220"/>
  <unicode hex="207E"/>
  <outline>
    <contour>
      <point x="179" y="496" type="curve" smooth="yes" name="hr00"/>
      <point x="179" y="609"/>
      <point x="124" y="707"/>
      <point x="19" y="756" type="curve"/>
      <point x="12" y="755"/>
      <point x="5" y="747"/>
      <point x="9" y="738" type="curve"/>
      <point x="73" y="687"/>
      <point x="113" y="607"/>
      <point x="113" y="496" type="curve" smooth="yes"/>
      <point x="113" y="385"/>
      <point x="73" y="305"/>
      <point x="9" y="254" type="curve"/>
      <point x="5" y="245"/>
      <point x="12" y="237"/>
      <point x="19" y="236" type="curve"/>
      <point x="124" y="285"/>
      <point x="179" y="383"/>
    </contour>
  </outline>
</glyph>
<glyph name="n.superior" format="1">
  <advance width="424"/>
  <unicode hex="207F"/>
  <outline>
    <contour>
      <point x="80" y="399" type="line" smooth="yes" name="hr00"/>
      <point x="80" y="352"/>
      <point x="78" y="340"/>
      <point x="47" y="336" type="curve" smooth="yes"/>
      <point x="26" y="333" type="line"/>
      <point x="20" y="329"/>
      <point x="20" y="316"/>
      <point x="27" y="313" type="curve"/>
      <point x="54" y="314"/>
      <point x="79" y="315"/>
      <point x="113" y="315" type="curve" smooth="yes"/>
      <point x="143" y="315"/>
      <point x="168" y="314"/>
      <point x="187" y="313" type="curve"/>
      <point x="194" y="316"/>
      <point x="194" y="329"/>
      <point x="188" y="333" type="curve"/>
      <point x="177" y="336" type="line" smooth="yes"/>
      <point x="147" y="344"/>
      <point x="144" y="352"/>
      <point x="144" y="399" type="curve" smooth="yes"/>
      <point x="144" y="503" type="line" smooth="yes"/>
      <point x="144" y="519"/>
      <point x="145" y="531"/>
      <point x="156" y="544" type="curve" smooth="yes"/>
      <point x="167" y="556"/>
      <point x="192" y="568"/>
      <point x="216" y="568" type="curve" smooth="yes"/>
      <point x="265" y="568"/>
      <point x="285" y="539"/>
      <point x="285" y="497" type="curve" smooth="yes"/>
      <point x="285" y="399" type="line" smooth="yes"/>
      <point x="285" y="352"/>
      <point x="282" y="344"/>
      <point x="252" y="336" type="curve" smooth="yes"/>
      <point x="241" y="333" type="line"/>
      <point x="235" y="329"/>
      <point x="235" y="316"/>
      <point x="242" y="313" type="curve"/>
      <point x="259" y="314"/>
      <point x="284" y="315"/>
      <point x="318" y="315" type="curve" smooth="yes"/>
      <point x="348" y="315"/>
      <point x="373" y="314"/>
      <point x="402" y="313" type="curve"/>
      <point x="409" y="316"/>
      <point x="409" y="329"/>
      <point x="403" y="333" type="curve"/>
      <point x="382" y="336" type="line" smooth="yes"/>
      <point x="351" y="340"/>
      <point x="349" y="352"/>
      <point x="349" y="399" type="curve" smooth="yes"/>
      <point x="349" y="511" type="line" smooth="yes"/>
      <point x="349" y="566"/>
      <point x="326" y="608"/>
      <point x="258" y="608" type="curve" smooth="yes"/>
      <point x="221" y="608"/>
      <point x="185" y="590"/>
      <point x="153" y="571" type="curve"/>
      <point x="147" y="571"/>
      <point x="144" y="575"/>
      <point x="144" y="579" type="curve" smooth="yes"/>
      <point x="144" y="608" type="line"/>
      <point x="143" y="611"/>
      <point x="141" y="614"/>
      <point x="137" y="614" type="curve"/>
      <point x="109" y="600"/>
      <point x="68" y="589"/>
      <point x="46" y="582" type="curve"/>
      <point x="42" y="578"/>
      <point x="42" y="569"/>
      <point x="47" y="565" type="curve"/>
      <point x="61" y="558" type="line" smooth="yes"/>
      <point x="79" y="549"/>
      <point x="80" y="544"/>
      <point x="80" y="516" type="curve" smooth="yes"/>
    </contour>
  </outline>
</glyph>
<glyph name="two.inferior" format="1">
  <advance width="360"/>
  <unicode hex="2082"/>
  <outline>
    <contour>
      <point x="148" y="-116" type="line" smooth="yes" name="hr00"/>
      <point x="141" y="-116"/>
      <point x="134" y="-114"/>
      <point x="134" y="-108" type="curve" smooth="yes"/>
      <point x="134" y="-102"/>
      <point x="143" y="-93"/>
      <point x="168" y="-68" type="curve" smooth="yes"/>
      <point x="224" y="-12" type="line" smooth="yes"/>
      <point x="282" y="46"/>
      <point x="300" y="84"/>
      <point x="300" y="126" type="curve" smooth="yes"/>
      <point x="300" y="186"/>
      <point x="255" y="229"/>
      <point x="182" y="229" type="curve" smooth="yes"/>
      <point x="120" y="229"/>
      <point x="70" y="196"/>
      <point x="43" y="134" type="curve"/>
      <point x="43" y="126"/>
      <point x="54" y="120"/>
      <point x="62" y="125" type="curve"/>
      <point x="85" y="164"/>
      <point x="115" y="188"/>
      <point x="152" y="188" type="curve" smooth="yes"/>
      <point x="197" y="188"/>
      <point x="227" y="156"/>
      <point x="227" y="104" type="curve" smooth="yes"/>
      <point x="227" y="41"/>
      <point x="177" y="-20"/>
      <point x="135" y="-62" type="curve" smooth="yes"/>
      <point x="87" y="-110"/>
      <point x="63" y="-130"/>
      <point x="31" y="-150" type="curve"/>
      <point x="29" y="-153"/>
      <point x="29" y="-156"/>
      <point x="29" y="-159" type="curve" smooth="yes"/>
      <point x="29" y="-162"/>
      <point x="32" y="-164"/>
      <point x="34" y="-166" type="curve"/>
      <point x="49" y="-165"/>
      <point x="71" y="-164"/>
      <point x="109" y="-164" type="curve" smooth="yes"/>
      <point x="181" y="-164" type="line" smooth="yes"/>
      <point x="212" y="-164"/>
      <point x="269" y="-165"/>
      <point x="294" y="-166" type="curve"/>
      <point x="307" y="-154"/>
      <point x="317" y="-122"/>
      <point x="333" y="-87" type="curve"/>
      <point x="329" y="-79"/>
      <point x="321" y="-77"/>
      <point x="314" y="-80" type="curve"/>
      <point x="292" y="-113"/>
      <point x="266" y="-116"/>
      <point x="219" y="-116" type="curve" smooth="yes"/>
    </contour>
  </outline>
</glyph>
<glyph name="four.inferior" format="1">
  <advance width="360"/>
  <unicode hex="2084"/>
  <outline>
    <contour>
      <point x="191" y="-48" type="line" smooth="yes" name="hr00"/>
      <point x="209" y="-48"/>
      <point x="210" y="-51"/>
      <point x="210" y="-66" type="curve" smooth="yes"/>
      <point x="210" y="-78" type="line" smooth="yes"/>
      <point x="210" y="-132"/>
      <point x="210" y="-138"/>
      <point x="169" y="-143" type="curve" smooth="yes"/>
      <point x="151" y="-145" type="line"/>
      <point x="146" y="-151"/>
      <point x="147" y="-163"/>
      <point x="153" y="-166" type="curve"/>
      <point x="166" y="-165"/>
      <point x="205" y="-164"/>
      <point x="242" y="-164" type="curve" smooth="yes"/>
      <point x="285" y="-164"/>
      <point x="308" y="-165"/>
      <point x="329" y="-166" type="curve"/>
      <point x="335" y="-163"/>
      <point x="335" y="-151"/>
      <point x="331" y="-145" type="curve"/>
      <point x="313" y="-143" type="line" smooth="yes"/>
      <point x="273" y="-139"/>
      <point x="274" y="-134"/>
      <point x="274" y="-78" type="curve" smooth="yes"/>
      <point x="274" y="-64" type="line" smooth="yes"/>
      <point x="274" y="-50"/>
      <point x="275" y="-48"/>
      <point x="293" y="-48" type="curve" smooth="yes"/>
      <point x="326" y="-48" type="line"/>
      <point x="334" y="-42"/>
      <point x="334" y="-24"/>
      <point x="326" y="-19" type="curve"/>
      <point x="289" y="-19" type="line" smooth="yes"/>
      <point x="276" y="-19"/>
      <point x="274" y="-17"/>
      <point x="274" y="-5" type="curve" smooth="yes"/>
      <point x="274" y="110" type="line" smooth="yes"/>
      <point x="274" y="122"/>
      <point x="274" y="129"/>
      <point x="263" y="129" type="curve" smooth="yes"/>
      <point x="247" y="129"/>
      <point x="225" y="123"/>
      <point x="216" y="118" type="curve" smooth="yes"/>
      <point x="211" y="115"/>
      <point x="210" y="110"/>
      <point x="210" y="106" type="curve" smooth="yes"/>
      <point x="210" y="-3" type="line" smooth="yes"/>
      <point x="210" y="-17"/>
      <point x="208" y="-19"/>
      <point x="192" y="-19" type="curve" smooth="yes"/>
      <point x="102" y="-19" type="line" smooth="yes"/>
      <point x="83" y="-19"/>
      <point x="74" y="-19"/>
      <point x="84" y="-7" type="curve" smooth="yes"/>
      <point x="290" y="257" type="line" smooth="yes"/>
      <point x="291" y="259"/>
      <point x="292" y="261"/>
      <point x="292" y="263" type="curve" smooth="yes"/>
      <point x="292" y="267"/>
      <point x="282" y="268"/>
      <point x="270" y="268" type="curve" smooth="yes"/>
      <point x="260" y="268"/>
      <point x="256" y="265"/>
      <point x="249" y="256" type="curve" smooth="yes"/>
      <point x="36" y="-18" type="line" smooth="yes"/>
      <point x="29" y="-27"/>
      <point x="27" y="-31"/>
      <point x="27" y="-38" type="curve" smooth="yes"/>
      <point x="27" y="-44"/>
      <point x="31" y="-48"/>
      <point x="36" y="-48" type="curve" smooth="yes"/>
    </contour>
  </outline>
</glyph>
<glyph name="seven.inferior" format="1">
  <advance width="360"/>
  <unicode hex="2087"/>
  <outline>
    <contour>
      <point x="238" y="171" type="line" smooth="yes" name="hr00"/>
      <point x="271" y="171"/>
      <point x="251" y="145"/>
      <point x="239" y="123" type="curve" smooth="yes"/>
      <point x="71" y="-180" type="line"/>
      <point x="71" y="-191"/>
      <point x="88" y="-197"/>
      <point x="99" y="-194" type="curve"/>
      <point x="271" y="117" type="line" smooth="yes"/>
      <point x="295" y="161"/>
      <point x="314" y="191"/>
      <point x="335" y="217" type="curve"/>
      <point x="335" y="220"/>
      <point x="334" y="223"/>
      <point x="331" y="224" type="curve"/>
      <point x="321" y="222"/>
      <point x="275" y="222"/>
      <point x="238" y="222" type="curve" smooth="yes"/>
      <point x="123" y="222" type="line" smooth="yes"/>
      <point x="86" y="222"/>
      <point x="72" y="223"/>
      <point x="51" y="224" type="curve"/>
      <point x="46" y="201"/>
      <point x="37" y="175"/>
      <point x="26" y="146" type="curve"/>
      <point x="28" y="139"/>
      <point x="37" y="135"/>
      <point x="45" y="139" type="curve"/>
      <point x="62" y="170"/>
      <point x="74" y="171"/>
      <point x="115" y="171" type="curve" smooth="yes"/>
    </contour>
  </outline>
</glyph>
<glyph name="parenright.inferior" format="1">
  <advance width="220"/>
  <unicode hex="208E"/>
  <outline>
    <contour>
      <point x="179" y="27" type="curve" smooth="yes" name="hr00"/>
      <point x="179" y="140"/>
      <point x="124" y="238"/>
      <point x="19" y="287" type="curve"/>
      <point x="12" y="286"/>
      <point x="5" y="278"/>
      <point x="9" y="269" type="curve"/>
      <point x="73" y="218"/>
      <point x="113" y="138"/>
      <point x="113" y="27" type="curve" smooth="yes"/>
      <point x="113" y="-84"/>
      <point x="73" y="-164"/>
      <point x="9" y="-215" type="curve"/>
      <point x="5" y="-224"/>
      <point x="12" y="-232"/>
      <point x="19" y="-233" type="curve"/>
      <point x="124" y="-184"/>
      <point x="179" y="-86"/>
    </contour>
  </outline>
</glyph>
<glyph name="franc" format="1">
  <advance width="500"/>
  <unicode hex="20A3"/>
  <outline>
    <contour>
      <point x="36" y="210" type="line" name="hr01"/>
      <point x="28" y="204"/>
      <point x="28" y="184"/>
      <point x="36" y="178" type="curve"/>
      <point x="124" y="178" type="line"/>
      <point x="124" y="142" type="line" smooth="yes"/>
      <point x="124" y="43"/>
      <point x="122" y="31"/>
      <point x="67" y="24" type="curve" smooth="yes"/>
      <point x="43" y="21" type="line"/>
      <point x="38" y="15"/>
      <point x="40" y="0"/>
      <point x="45" y="-3" type="curve"/>
      <point x="94" y="-1"/>
      <point x="118" y="0"/>
      <point x="160" y="0" type="curve" smooth="yes"/>
      <point x="198" y="0"/>
      <point x="230" y="-1"/>
      <point x="286" y="-3" type="curve"/>
      <point x="292" y="0"/>
      <point x="294" y="17"/>
      <point x="288" y="21" type="curve"/>
      <point x="256" y="24" type="line" smooth="yes"/>
      <point x="200" y="29"/>
      <point x="198" y="43"/>
      <point x="198" y="142" type="curve" smooth="yes"/>
      <point x="198" y="178" type="line"/>
      <point x="399" y="178" type="line"/>
      <point x="407" y="184"/>
      <point x="407" y="204"/>
      <point x="399" y="210" type="curve"/>
      <point x="198" y="210" type="line"/>
      <point x="198" y="302" type="line" smooth="yes"/>
      <point x="198" y="325"/>
      <point x="201" y="328"/>
      <point x="229" y="328" type="curve" smooth="yes"/>
      <point x="294" y="328" type="line" smooth="yes"/>
      <point x="330" y="328"/>
      <point x="354" y="327"/>
      <point x="367" y="323" type="curve" smooth="yes"/>
      <point x="385" y="317"/>
      <point x="394" y="306"/>
      <point x="400" y="290" type="curve" smooth="yes"/>
      <point x="407" y="272" type="line"/>
      <point x="413" y="266"/>
      <point x="428" y="266"/>
      <point x="431" y="272" type="curve"/>
      <point x="431" y="294"/>
      <point x="428" y="310"/>
      <point x="428" y="344" type="curve" smooth="yes"/>
      <point x="428" y="379"/>
      <point x="431" y="397"/>
      <point x="431" y="420" type="curve"/>
      <point x="428" y="426"/>
      <point x="411" y="426"/>
      <point x="407" y="420" type="curve"/>
      <point x="401" y="401" type="line" smooth="yes"/>
      <point x="393" y="377"/>
      <point x="385" y="373"/>
      <point x="374" y="369" type="curve" smooth="yes"/>
      <point x="363" y="365"/>
      <point x="333" y="363"/>
      <point x="294" y="363" type="curve" smooth="yes"/>
      <point x="229" y="363" type="line" smooth="yes"/>
      <point x="201" y="363"/>
      <point x="198" y="363"/>
      <point x="198" y="389" type="curve" smooth="yes"/>
      <point x="198" y="559" type="line" smooth="yes"/>
      <point x="198" y="593"/>
      <point x="198" y="595"/>
      <point x="226" y="595" type="curve" smooth="yes"/>
      <point x="284" y="595" type="line" smooth="yes"/>
      <point x="324" y="595"/>
      <point x="356" y="594"/>
      <point x="376" y="589" type="curve" smooth="yes"/>
      <point x="424" y="576"/>
      <point x="435" y="544"/>
      <point x="443" y="501" type="curve"/>
      <point x="449" y="495"/>
      <point x="463" y="498"/>
      <point x="466" y="504" type="curve"/>
      <point x="464" y="540"/>
      <point x="463" y="586"/>
      <point x="463" y="629" type="curve" name="hr02"/>
      <point x="450" y="626"/>
      <point x="395" y="626"/>
      <point x="335" y="626" type="curve" smooth="yes" name="hr03"/>
      <point x="160" y="626" type="line" smooth="yes"/>
      <point x="130" y="626"/>
      <point x="98" y="627"/>
      <point x="54" y="629" type="curve" name="hr04"/>
      <point x="48" y="626"/>
      <point x="46" y="609"/>
      <point x="52" y="605" type="curve"/>
      <point x="67" y="604" type="line" smooth="yes" name="hr05"/>
      <point x="122" y="600"/>
      <point x="124" y="584"/>
      <point x="124" y="484" type="curve" smooth="yes"/>
      <point x="124" y="210" type="line"/>
    </contour>
  </outline>
</glyph>
<glyph name="lira" format="1">
  <advance width="500"/>
  <unicode hex="20A4"/>
  <outline>
    <contour>
      <point x="28" y="364" type="line" name="hr01"/>
      <point x="20" y="360"/>
      <point x="20" y="335"/>
      <point x="28" y="332" type="curve"/>
      <point x="115" y="332" type="line" smooth="yes"/>
      <point x="130" y="332"/>
      <point x="131" y="329"/>
      <point x="131" y="318" type="curve" smooth="yes"/>
      <point x="131" y="272" type="line"/>
      <point x="132" y="264"/>
      <point x="129" y="263"/>
      <point x="115" y="263" type="curve" smooth="yes"/>
      <point x="24" y="263" type="line"/>
      <point x="16" y="257"/>
      <point x="16" y="234"/>
      <point x="24" y="231" type="curve"/>
      <point x="113" y="231" type="line" smooth="yes"/>
      <point x="128" y="231"/>
      <point x="129" y="228"/>
      <point x="129" y="217" type="curve" smooth="yes"/>
      <point x="129" y="179"/>
      <point x="111" y="110"/>
      <point x="63" y="69" type="curve" smooth="yes"/>
      <point x="37" y="48"/>
      <point x="15" y="24"/>
      <point x="15" y="4" type="curve" smooth="yes"/>
      <point x="15" y="-8"/>
      <point x="20" y="-14"/>
      <point x="33" y="-14" type="curve" smooth="yes"/>
      <point x="44" y="-14"/>
      <point x="71" y="-1"/>
      <point x="71" y="13" type="curve" smooth="yes"/>
      <point x="71" y="27"/>
      <point x="76" y="46"/>
      <point x="105" y="46" type="curve" smooth="yes"/>
      <point x="135" y="46"/>
      <point x="173" y="28"/>
      <point x="208" y="9" type="curve" smooth="yes"/>
      <point x="258" y="-18"/>
      <point x="287" y="-30"/>
      <point x="322" y="-30" type="curve" smooth="yes" name="hr02"/>
      <point x="404" y="-30"/>
      <point x="474" y="31"/>
      <point x="474" y="82" type="curve" smooth="yes"/>
      <point x="474" y="106"/>
      <point x="459" y="127"/>
      <point x="438" y="127" type="curve" smooth="yes"/>
      <point x="422" y="127"/>
      <point x="410" y="116"/>
      <point x="414" y="92" type="curve" smooth="yes"/>
      <point x="420" y="54"/>
      <point x="417" y="20"/>
      <point x="375" y="20" type="curve" smooth="yes"/>
      <point x="347" y="20"/>
      <point x="316" y="32"/>
      <point x="283" y="46" type="curve" smooth="yes"/>
      <point x="250" y="60"/>
      <point x="217" y="74"/>
      <point x="195" y="77" type="curve" smooth="yes" name="hr03"/>
      <point x="151" y="83"/>
      <point x="130" y="80"/>
      <point x="115" y="78" type="curve"/>
      <point x="114" y="80" type="line"/>
      <point x="186" y="125"/>
      <point x="204" y="203"/>
      <point x="205" y="217" type="curve" smooth="yes"/>
      <point x="206" y="230"/>
      <point x="213" y="231"/>
      <point x="227" y="231" type="curve" smooth="yes"/>
      <point x="366" y="231" type="line"/>
      <point x="375" y="233"/>
      <point x="375" y="257"/>
      <point x="366" y="263" type="curve"/>
      <point x="226" y="263" type="line" smooth="yes"/>
      <point x="209" y="263"/>
      <point x="206" y="265"/>
      <point x="206" y="278" type="curve" smooth="yes"/>
      <point x="206" y="312" type="line" smooth="yes"/>
      <point x="206" y="325"/>
      <point x="210" y="326"/>
      <point x="227" y="326" type="curve" smooth="yes"/>
      <point x="366" y="326" type="line"/>
      <point x="375" y="328"/>
      <point x="375" y="354"/>
      <point x="366" y="358" type="curve"/>
      <point x="219" y="358" type="line" smooth="yes" name="hr04"/>
      <point x="207" y="358"/>
      <point x="205" y="360"/>
      <point x="204" y="373" type="curve" smooth="yes"/>
      <point x="203" y="394"/>
      <point x="202" y="420"/>
      <point x="202" y="438" type="curve" smooth="yes"/>
      <point x="202" y="552"/>
      <point x="250" y="598"/>
      <point x="296" y="598" type="curve" smooth="yes"/>
      <point x="320" y="598"/>
      <point x="340" y="586"/>
      <point x="364" y="567" type="curve" smooth="yes"/>
      <point x="371" y="562"/>
      <point x="375" y="560"/>
      <point x="379" y="560" type="curve" smooth="yes"/>
      <point x="389" y="560"/>
      <point x="408" y="582"/>
      <point x="408" y="602" type="curve" smooth="yes"/>
      <point x="408" y="612"/>
      <point x="405" y="618"/>
      <point x="397" y="625" type="curve" smooth="yes"/>
      <point x="385" y="634"/>
      <point x="363" y="640"/>
      <point x="341" y="640" type="curve" smooth="yes"/>
      <point x="216" y="640"/>
      <point x="128" y="539"/>
      <point x="128" y="401" type="curve" smooth="yes"/>
      <point x="128" y="373" type="line" name="hr05"/>
      <point x="129" y="365"/>
      <point x="128" y="364"/>
      <point x="114" y="364" type="curve" smooth="yes"/>
    </contour>
  </outline>
</glyph>
<glyph name="trademark" format="1">
  <advance width="550"/>
  <unicode hex="2122"/>
  <outline>
    <contour>
      <point x="464" y="517" type="line" smooth="yes" name="hr01"/>
      <point x="464" y="497"/>
      <point x="464" y="494"/>
      <point x="449" y="489" type="curve" smooth="yes"/>
      <point x="440" y="486" type="line" smooth="yes"/>
      <point x="436" y="484"/>
      <point x="437" y="475"/>
      <point x="440" y="473" type="curve"/>
      <point x="453" y="474"/>
      <point x="466" y="474"/>
      <point x="481" y="474" type="curve" smooth="yes"/>
      <point x="492" y="474"/>
      <point x="514" y="474"/>
      <point x="527" y="473" type="curve"/>
      <point x="530" y="475"/>
      <point x="530" y="484"/>
      <point x="527" y="486" type="curve"/>
      <point x="513" y="489" type="line"/>
      <point x="504" y="492"/>
      <point x="502" y="495"/>
      <point x="501" y="516" type="curve" smooth="yes"/>
      <point x="499" y="547"/>
      <point x="498" y="594"/>
      <point x="498" y="625" type="curve" smooth="yes" name="hr02"/>
      <point x="498" y="638"/>
      <point x="500" y="645"/>
      <point x="515" y="647" type="curve" smooth="yes"/>
      <point x="524" y="648" type="line"/>
      <point x="529" y="650"/>
      <point x="529" y="660"/>
      <point x="523" y="661" type="curve"/>
      <point x="512" y="660"/>
      <point x="500" y="660"/>
      <point x="487" y="660" type="curve" smooth="yes"/>
      <point x="480" y="660"/>
      <point x="472" y="660"/>
      <point x="457" y="661" type="curve"/>
      <point x="451" y="639"/>
      <point x="442" y="620"/>
      <point x="434" y="606" type="curve" smooth="yes"/>
      <point x="410" y="563" type="line"/>
      <point x="393" y="535" type="line"/>
      <point x="391" y="536"/>
      <point x="383" y="551"/>
      <point x="376" y="563" type="curve" smooth="yes"/>
      <point x="351" y="610" type="line" smooth="yes"/>
      <point x="343" y="625"/>
      <point x="329" y="651"/>
      <point x="329" y="661" type="curve"/>
      <point x="314" y="660"/>
      <point x="303" y="660"/>
      <point x="287" y="660" type="curve" smooth="yes"/>
      <point x="276" y="660"/>
      <point x="266" y="660"/>
      <point x="256" y="661" type="curve"/>
      <point x="254" y="660"/>
      <point x="253" y="651"/>
      <point x="255" y="648" type="curve"/>
      <point x="262" y="647" type="line" smooth="yes"/>
      <point x="277" y="645"/>
      <point x="284" y="638"/>
      <point x="284" y="627" type="curve" smooth="yes"/>
      <point x="284" y="587"/>
      <point x="280" y="547"/>
      <point x="276" y="508" type="curve" smooth="yes"/>
      <point x="275" y="496"/>
      <point x="265" y="488"/>
      <point x="253" y="487" type="curve" smooth="yes"/>
      <point x="248" y="486" type="line"/>
      <point x="246" y="482"/>
      <point x="246" y="475"/>
      <point x="249" y="473" type="curve"/>
      <point x="264" y="474"/>
      <point x="276" y="474"/>
      <point x="286" y="474" type="curve" smooth="yes"/>
      <point x="307" y="474"/>
      <point x="320" y="474"/>
      <point x="329" y="473" type="curve"/>
      <point x="331" y="477"/>
      <point x="331" y="483"/>
      <point x="329" y="486" type="curve"/>
      <point x="321" y="487" type="line" smooth="yes"/>
      <point x="306" y="489"/>
      <point x="302" y="493"/>
      <point x="302" y="513" type="curve" smooth="yes"/>
      <point x="302" y="532"/>
      <point x="302" y="557"/>
      <point x="303" y="574" type="curve" smooth="yes"/>
      <point x="304" y="606"/>
      <point x="305" y="619"/>
      <point x="306" y="621" type="curve"/>
      <point x="308" y="620"/>
      <point x="319" y="596"/>
      <point x="327" y="579" type="curve" smooth="yes"/>
      <point x="352" y="529" type="line" smooth="yes" name="hr03"/>
      <point x="359" y="515"/>
      <point x="372" y="488"/>
      <point x="378" y="472" type="curve" smooth="yes"/>
      <point x="379" y="471"/>
      <point x="384" y="471"/>
      <point x="389" y="473" type="curve"/>
      <point x="393" y="486"/>
      <point x="416" y="530"/>
      <point x="419" y="537" type="curve" smooth="yes"/>
      <point x="444" y="586" type="line" smooth="yes"/>
      <point x="450" y="597"/>
      <point x="460" y="616"/>
      <point x="461" y="616" type="curve" smooth="yes"/>
      <point x="462" y="615"/>
      <point x="462" y="611"/>
      <point x="462" y="606" type="curve" smooth="yes"/>
    </contour>
    <contour>
      <point x="110" y="531" type="line" smooth="yes" name="hr04"/>
      <point x="110" y="504"/>
      <point x="108" y="490"/>
      <point x="93" y="488" type="curve" smooth="yes"/>
      <point x="79" y="486" type="line"/>
      <point x="76" y="481"/>
      <point x="76" y="475"/>
      <point x="80" y="473" type="curve"/>
      <point x="96" y="474"/>
      <point x="110" y="474"/>
      <point x="132" y="474" type="curve" smooth="yes"/>
      <point x="148" y="474"/>
      <point x="160" y="474"/>
      <point x="180" y="473" type="curve"/>
      <point x="183" y="474"/>
      <point x="184" y="483"/>
      <point x="181" y="486" type="curve"/>
      <point x="166" y="488" type="line"/>
      <point x="151" y="492"/>
      <point x="150" y="501"/>
      <point x="150" y="528" type="curve" smooth="yes"/>
      <point x="150" y="629" type="line" smooth="yes"/>
      <point x="150" y="639"/>
      <point x="150" y="640"/>
      <point x="157" y="640" type="curve" smooth="yes"/>
      <point x="178" y="640" type="line" smooth="yes"/>
      <point x="208" y="640"/>
      <point x="211" y="628"/>
      <point x="215" y="607" type="curve"/>
      <point x="217" y="605"/>
      <point x="223" y="605"/>
      <point x="225" y="608" type="curve"/>
      <point x="224" y="625"/>
      <point x="226" y="655"/>
      <point x="230" y="671" type="curve" name="hr05"/>
      <point x="222" y="671" type="line"/>
      <point x="211" y="660"/>
      <point x="207" y="660"/>
      <point x="194" y="660" type="curve" smooth="yes" name="hr06"/>
      <point x="79" y="660" type="line" smooth="yes"/>
      <point x="61" y="660"/>
      <point x="59" y="661"/>
      <point x="51" y="671" type="curve" name="hr07"/>
      <point x="42" y="671" type="line"/>
      <point x="39" y="658"/>
      <point x="35" y="640"/>
      <point x="30" y="611" type="curve" name="hr08"/>
      <point x="31" y="608"/>
      <point x="37" y="607"/>
      <point x="40" y="608" type="curve"/>
      <point x="46" y="631"/>
      <point x="59" y="640"/>
      <point x="83" y="640" type="curve" smooth="yes"/>
      <point x="100" y="640" type="line" smooth="yes"/>
      <point x="110" y="640"/>
      <point x="110" y="639"/>
      <point x="110" y="629" type="curve" smooth="yes"/>
    </contour>
  </outline>
</glyph>
<glyph name="uni2206" format="1">
  <advance width="636"/>
  <unicode hex="2206"/>
  <outline>
    <contour>
      <point x="599" y="0" type="line" smooth="yes" name="hr00"/>
      <point x="609" y="0"/>
      <point x="608" y="26"/>
      <point x="600" y="46" type="curve" smooth="yes"/>
      <point x="401" y="532" type="line" smooth="yes"/>
      <point x="383" y="577"/>
      <point x="369" y="623"/>
      <point x="352" y="667" type="curve" smooth="yes"/>
      <point x="350" y="674"/>
      <point x="346" y="676"/>
      <point x="340" y="676" type="curve"/>
      <point x="328" y="663"/>
      <point x="309" y="645"/>
      <point x="288" y="638" type="curve"/>
      <point x="291" y="622"/>
      <point x="285" y="603"/>
      <point x="269" y="567" type="curve" smooth="yes"/>
      <point x="148" y="296" type="line" smooth="yes"/>
      <point x="99" y="185"/>
      <point x="69" y="120"/>
      <point x="38" y="48" type="curve" smooth="yes"/>
      <point x="33" y="37"/>
      <point x="23" y="0"/>
      <point x="39" y="0" type="curve" smooth="yes"/>
    </contour>
    <contour>
      <point x="136" y="47" type="line" smooth="yes"/>
      <point x="99" y="47"/>
      <point x="93" y="50"/>
      <point x="103" y="73" type="curve" smooth="yes"/>
      <point x="281" y="495" type="line" smooth="yes"/>
      <point x="294" y="525"/>
      <point x="304" y="549"/>
      <point x="307" y="554" type="curve"/>
      <point x="314" y="554" type="line"/>
      <point x="320" y="542"/>
      <point x="330" y="515"/>
      <point x="339" y="491" type="curve" smooth="yes"/>
      <point x="506" y="68" type="line" smooth="yes"/>
      <point x="512" y="53"/>
      <point x="507" y="47"/>
      <point x="475" y="47" type="curve" smooth="yes"/>
    </contour>
  </outline>
</glyph>
<glyph name="summation" format="1">
  <advance width="684"/>
  <unicode hex="2211"/>
  <outline>
    <contour>
      <point x="570" y="700" type="line" name="hr00"/>
      <point x="117" y="700" type="line" smooth="yes"/>
      <point x="93" y="700"/>
      <point x="68" y="700"/>
      <point x="44" y="702" type="curve" smooth="yes"/>
      <point x="37" y="702"/>
      <point x="29" y="693"/>
      <point x="36" y="683" type="curve" smooth="yes"/>
      <point x="320" y="288" type="line" smooth="yes"/>
      <point x="329" y="276"/>
      <point x="329" y="267"/>
      <point x="319" y="255" type="curve" smooth="yes"/>
      <point x="30" y="-91" type="line" smooth="yes"/>
      <point x="21" y="-102"/>
      <point x="26" y="-113"/>
      <point x="34" y="-112" type="curve" smooth="yes"/>
      <point x="52" y="-111"/>
      <point x="62" y="-110"/>
      <point x="73" y="-110" type="curve" smooth="yes"/>
      <point x="532" y="-110" type="line" smooth="yes"/>
      <point x="555" y="-110"/>
      <point x="579" y="-115"/>
      <point x="602" y="-117" type="curve"/>
      <point x="615" y="-53"/>
      <point x="622" y="-9"/>
      <point x="641" y="65" type="curve"/>
      <point x="638" y="75"/>
      <point x="624" y="75"/>
      <point x="620" y="65" type="curve" smooth="yes"/>
      <point x="588" y="-11"/>
      <point x="568" y="-34"/>
      <point x="498" y="-34" type="curve" smooth="yes"/>
      <point x="131" y="-34" type="line"/>
      <point x="398" y="291" type="line" smooth="yes"/>
      <point x="409" y="305"/>
      <point x="406" y="314"/>
      <point x="397" y="327" type="curve" smooth="yes"/>
      <point x="150" y="667" type="line"/>
      <point x="418" y="667" type="line" smooth="yes"/>
      <point x="530" y="667"/>
      <point x="541" y="620"/>
      <point x="558" y="557" type="curve" smooth="yes"/>
      <point x="561" y="547"/>
      <point x="574" y="547"/>
      <point x="576" y="557" type="curve"/>
    </contour>
  </outline>
</glyph>
<glyph name="uni2215" format="1">
  <advance width="100"/>
  <unicode hex="2215"/>
  <outline>
    <contour>
      <point x="-183" y="-14" type="curve" name="hr00"/>
      <point x="-182" y="-29"/>
      <point x="-173" y="-40"/>
      <point x="-156" y="-40" type="curve"/>
      <point x="-11" y="184"/>
      <point x="135" y="407"/>
      <point x="284" y="631" type="curve"/>
      <point x="277" y="647"/>
      <point x="265" y="654"/>
      <point x="253" y="654" type="curve"/>
      <point x="110" y="431"/>
      <point x="-36" y="209"/>
    </contour>
  </outline>
</glyph>
<glyph name="infinity" format="1">
  <advance width="763"/>
  <unicode hex="221E"/>
  <outline>
    <contour>
      <point x="51" y="229" type="curve" smooth="yes" name="hr00"/>
      <point x="43" y="155"/>
      <point x="106" y="66"/>
      <point x="198" y="75" type="curve" smooth="yes"/>
      <point x="301" y="85"/>
      <point x="358" y="160"/>
      <point x="382" y="181" type="curve"/>
      <point x="406" y="160"/>
      <point x="463" y="85"/>
      <point x="566" y="75" type="curve" smooth="yes"/>
      <point x="658" y="66"/>
      <point x="721" y="155"/>
      <point x="713" y="229" type="curve" smooth="yes"/>
      <point x="704" y="317"/>
      <point x="608" y="384"/>
      <point x="511" y="341" type="curve" smooth="yes"/>
      <point x="464" y="320"/>
      <point x="443" y="302"/>
      <point x="382" y="247" type="curve"/>
      <point x="321" y="302"/>
      <point x="300" y="320"/>
      <point x="253" y="341" type="curve" smooth="yes"/>
      <point x="156" y="384"/>
      <point x="60" y="317"/>
    </contour>
    <contour>
      <point x="101" y="209" type="curve" smooth="yes"/>
      <point x="100" y="253"/>
      <point x="144" y="325"/>
      <point x="230" y="295" type="curve" smooth="yes"/>
      <point x="264" y="283"/>
      <point x="292" y="262"/>
      <point x="349" y="214" type="curve"/>
      <point x="290" y="157"/>
      <point x="273" y="138"/>
      <point x="217" y="125" type="curve" smooth="yes"/>
      <point x="162" y="112"/>
      <point x="103" y="150"/>
    </contour>
    <contour>
      <point x="663" y="209" type="curve" smooth="yes"/>
      <point x="661" y="150"/>
      <point x="602" y="112"/>
      <point x="547" y="125" type="curve" smooth="yes"/>
      <point x="491" y="138"/>
      <point x="474" y="157"/>
      <point x="415" y="214" type="curve"/>
      <point x="472" y="262"/>
      <point x="500" y="283"/>
      <point x="534" y="295" type="curve" smooth="yes"/>
      <point x="620" y="325"/>
      <point x="664" y="253"/>
    </contour>
  </outline>
</glyph>
<glyph name="approxequal" format="1">
  <advance width="500"/>
  <unicode hex="2248"/>
  <outline>
    <contour>
      <point x="419" y="352" type="line" name="hr01"/>
      <point x="397" y="316"/>
      <point x="377" y="296"/>
      <point x="344" y="296" type="curve" smooth="yes"/>
      <point x="326" y="296"/>
      <point x="301" y="302"/>
      <point x="271" y="317" type="curve" smooth="yes"/>
      <point x="240" y="333"/>
      <point x="207" y="352"/>
      <point x="168" y="352" type="curve" smooth="yes" name="hr02"/>
      <point x="113" y="352"/>
      <point x="71" y="319"/>
      <point x="47" y="271" type="curve"/>
      <point x="77" y="246" type="line"/>
      <point x="101" y="277"/>
      <point x="124" y="302"/>
      <point x="162" y="302" type="curve" smooth="yes"/>
      <point x="193" y="302"/>
      <point x="215" y="289"/>
      <point x="248" y="273" type="curve" smooth="yes"/>
      <point x="279" y="258"/>
      <point x="314" y="247"/>
      <point x="342" y="247" type="curve" smooth="yes" name="hr03"/>
      <point x="384" y="247"/>
      <point x="424" y="272"/>
      <point x="450" y="330" type="curve"/>
    </contour>
    <contour>
      <point x="419" y="199" type="line"/>
      <point x="397" y="163"/>
      <point x="377" y="143"/>
      <point x="344" y="143" type="curve" smooth="yes"/>
      <point x="326" y="143"/>
      <point x="299" y="149"/>
      <point x="267" y="166" type="curve" smooth="yes"/>
      <point x="239" y="180"/>
      <point x="205" y="199"/>
      <point x="165" y="199" type="curve" smooth="yes" name="hr04"/>
      <point x="108" y="199"/>
      <point x="71" y="166"/>
      <point x="47" y="118" type="curve"/>
      <point x="77" y="93" type="line"/>
      <point x="101" y="124"/>
      <point x="124" y="149"/>
      <point x="159" y="149" type="curve" smooth="yes"/>
      <point x="193" y="149"/>
      <point x="215" y="136"/>
      <point x="248" y="120" type="curve" smooth="yes"/>
      <point x="279" y="105"/>
      <point x="314" y="94"/>
      <point x="340" y="94" type="curve" smooth="yes" name="hr05"/>
      <point x="384" y="94"/>
      <point x="424" y="119"/>
      <point x="450" y="177" type="curve"/>
    </contour>
  </outline>
</glyph>
<glyph name="Cacute.titling" format="1">
  <advance width="704"/>
  <unicode hex="E00D"/>
  <outline>
    <contour>
      <point x="432" y="653" type="curve" smooth="yes" name="hr00"/>
      <point x="586" y="653"/>
      <point x="628" y="571"/>
      <point x="645" y="508" type="curve"/>
      <point x="649" y="506"/>
      <point x="660" y="506"/>
      <point x="663" y="510" type="curve"/>
      <point x="655" y="566"/>
      <point x="647" y="625"/>
      <point x="647" y="653" type="curve"/>
      <point x="641" y="652"/>
      <point x="634" y="653"/>
      <point x="622" y="656" type="curve" smooth="yes"/>
      <point x="575" y="667"/>
      <point x="495" y="676"/>
      <point x="446" y="676" type="curve" smooth="yes"/>
      <point x="340" y="676"/>
      <point x="248" y="648"/>
      <point x="176" y="591" type="curve" smooth="yes"/>
      <point x="103" y="534"/>
      <point x="50" y="443"/>
      <point x="50" y="331" type="curve" smooth="yes"/>
      <point x="50" y="194"/>
      <point x="112" y="107"/>
      <point x="191" y="52" type="curve" smooth="yes"/>
      <point x="264" y="1"/>
      <point x="351" y="-16"/>
      <point x="436" y="-16" type="curve" smooth="yes"/>
      <point x="506" y="-16"/>
      <point x="575" y="0"/>
      <point x="597" y="7" type="curve" smooth="yes"/>
      <point x="608" y="10"/>
      <point x="620" y="14"/>
      <point x="632" y="16" type="curve"/>
      <point x="646" y="36"/>
      <point x="673" y="102"/>
      <point x="680" y="156" type="curve"/>
      <point x="677" y="162"/>
      <point x="666" y="163"/>
      <point x="662" y="159" type="curve"/>
      <point x="629" y="93"/>
      <point x="571" y="7"/>
      <point x="439" y="7" type="curve" smooth="yes"/>
      <point x="276" y="7"/>
      <point x="140" y="123"/>
      <point x="140" y="341" type="curve" smooth="yes"/>
      <point x="140" y="553"/>
      <point x="274" y="653"/>
    </contour>
    <contour>
      <point x="500" y="765" type="line" smooth="yes"/>
      <point x="510" y="770"/>
      <point x="517" y="774"/>
      <point x="519" y="779" type="curve"/>
      <point x="522" y="783"/>
      <point x="520" y="793"/>
      <point x="514" y="806" type="curve" smooth="yes"/>
      <point x="508" y="818"/>
      <point x="499" y="823"/>
      <point x="493" y="823" type="curve" smooth="yes"/>
      <point x="488" y="823"/>
      <point x="483" y="822"/>
      <point x="473" y="812" type="curve"/>
      <point x="363" y="721" type="line"/>
      <point x="360" y="714"/>
      <point x="364" y="708"/>
      <point x="369" y="706" type="curve"/>
    </contour>
  </outline>
</glyph>
<glyph name="Eacute.titling" format="1">
  <advance width="577"/>
  <unicode hex="E014"/>
  <outline>
    <contour>
      <point x="134" y="158" type="line" smooth="yes" name="hr01"/>
      <point x="134" y="100"/>
      <point x="130" y="52"/>
      <point x="119" y="38" type="curve" smooth="yes" name="hr02"/>
      <point x="111" y="28"/>
      <point x="90" y="21"/>
      <point x="74" y="19" type="curve" smooth="yes"/>
      <point x="34" y="13" type="line"/>
      <point x="30" y="8"/>
      <point x="31" y="0"/>
      <point x="36" y="-3" type="curve" name="hr03"/>
      <point x="82" y="-1"/>
      <point x="127" y="0"/>
      <point x="177" y="0" type="curve" smooth="yes" name="hr04"/>
      <point x="272" y="0" type="line" smooth="yes"/>
      <point x="368" y="0"/>
      <point x="449" y="-1"/>
      <point x="530" y="-3" type="curve"/>
      <point x="547" y="24"/>
      <point x="567" y="100"/>
      <point x="572" y="132" type="curve"/>
      <point x="571" y="137"/>
      <point x="559" y="140"/>
      <point x="554" y="137" type="curve"/>
      <point x="511" y="34"/>
      <point x="466" y="22"/>
      <point x="345" y="23" type="curve" smooth="yes"/>
      <point x="258" y="24"/>
      <point x="238" y="34"/>
      <point x="227" y="46" type="curve" smooth="yes"/>
      <point x="212" y="63"/>
      <point x="210" y="109"/>
      <point x="210" y="156" type="curve" smooth="yes"/>
      <point x="210" y="297" type="line" smooth="yes"/>
      <point x="210" y="328"/>
      <point x="211" y="331"/>
      <point x="240" y="331" type="curve" smooth="yes"/>
      <point x="296" y="331" type="line" smooth="yes"/>
      <point x="340" y="331"/>
      <point x="371" y="327"/>
      <point x="388" y="321" type="curve" smooth="yes"/>
      <point x="401" y="316"/>
      <point x="409" y="305"/>
      <point x="415" y="285" type="curve" smooth="yes"/>
      <point x="426" y="245" type="line"/>
      <point x="430" y="242"/>
      <point x="441" y="242"/>
      <point x="444" y="246" type="curve"/>
      <point x="444" y="267"/>
      <point x="441" y="305"/>
      <point x="441" y="343" type="curve" smooth="yes"/>
      <point x="441" y="380"/>
      <point x="444" y="420"/>
      <point x="444" y="440" type="curve"/>
      <point x="441" y="444"/>
      <point x="430" y="444"/>
      <point x="426" y="441" type="curve"/>
      <point x="416" y="403" type="line" smooth="yes"/>
      <point x="409" y="378"/>
      <point x="398" y="368"/>
      <point x="388" y="365" type="curve" smooth="yes"/>
      <point x="372" y="360"/>
      <point x="340" y="358"/>
      <point x="296" y="358" type="curve" smooth="yes"/>
      <point x="240" y="358" type="line" smooth="yes"/>
      <point x="211" y="358"/>
      <point x="210" y="361"/>
      <point x="210" y="392" type="curve" smooth="yes"/>
      <point x="210" y="551" type="line" smooth="yes"/>
      <point x="210" y="599"/>
      <point x="213" y="616"/>
      <point x="215" y="624" type="curve" smooth="yes"/>
      <point x="217" y="633"/>
      <point x="224" y="637"/>
      <point x="258" y="637" type="curve" smooth="yes"/>
      <point x="313" y="637" type="line" smooth="yes"/>
      <point x="358" y="637"/>
      <point x="390" y="634"/>
      <point x="411" y="629" type="curve" smooth="yes"/>
      <point x="466" y="617"/>
      <point x="482" y="578"/>
      <point x="493" y="533" type="curve"/>
      <point x="499" y="531"/>
      <point x="508" y="532"/>
      <point x="511" y="536" type="curve"/>
      <point x="506" y="574"/>
      <point x="500" y="646"/>
      <point x="496" y="663" type="curve" name="hr05"/>
      <point x="481" y="660"/>
      <point x="425" y="660"/>
      <point x="361" y="660" type="curve" smooth="yes" name="hr06"/>
      <point x="177" y="660" type="line" smooth="yes"/>
      <point x="132" y="660"/>
      <point x="94" y="661"/>
      <point x="57" y="663" type="curve" name="hr07"/>
      <point x="52" y="659"/>
      <point x="51" y="652"/>
      <point x="55" y="647" type="curve"/>
      <point x="74" y="643" type="line" smooth="yes"/>
      <point x="97" y="638"/>
      <point x="111" y="632"/>
      <point x="120" y="620" type="curve" smooth="yes"/>
      <point x="130" y="605"/>
      <point x="134" y="568"/>
      <point x="134" y="502" type="curve" smooth="yes"/>
    </contour>
    <contour>
      <point x="387" y="765" type="line" smooth="yes"/>
      <point x="397" y="770"/>
      <point x="404" y="774"/>
      <point x="406" y="779" type="curve"/>
      <point x="409" y="783"/>
      <point x="407" y="793"/>
      <point x="401" y="806" type="curve" smooth="yes"/>
      <point x="395" y="818"/>
      <point x="386" y="823"/>
      <point x="380" y="823" type="curve" smooth="yes"/>
      <point x="375" y="823"/>
      <point x="370" y="822"/>
      <point x="360" y="812" type="curve"/>
      <point x="250" y="721" type="line"/>
      <point x="247" y="714"/>
      <point x="251" y="708"/>
      <point x="256" y="706" type="curve"/>
    </contour>
  </outline>
</glyph>
<glyph name="Euro.fitted" format="1">
  <advance width="618"/>
  <unicode hex="E01D"/>
  <outline>
    <contour>
      <point x="60" y="377" type="line" name="hr01"/>
      <point x="53" y="371"/>
      <point x="43" y="351"/>
      <point x="50" y="345" type="curve"/>
      <point x="109" y="345" type="line"/>
      <point x="108" y="333"/>
      <point x="107" y="298"/>
      <point x="108" y="288" type="curve"/>
      <point x="40" y="288" type="line"/>
      <point x="33" y="282"/>
      <point x="23" y="262"/>
      <point x="30" y="256" type="curve"/>
      <point x="110" y="256" type="line"/>
      <point x="124" y="102"/>
      <point x="216" y="-14"/>
      <point x="389" y="-14" type="curve" smooth="yes"/>
      <point x="446" y="-14"/>
      <point x="494" y="1"/>
      <point x="510" y="6" type="curve"/>
      <point x="519" y="10"/>
      <point x="531" y="14"/>
      <point x="536" y="16" type="curve"/>
      <point x="550" y="35"/>
      <point x="567" y="83"/>
      <point x="577" y="131" type="curve"/>
      <point x="574" y="138"/>
      <point x="563" y="140"/>
      <point x="558" y="135" type="curve"/>
      <point x="536" y="95"/>
      <point x="493" y="16"/>
      <point x="395" y="16" type="curve" smooth="yes"/>
      <point x="294" y="16"/>
      <point x="213" y="98"/>
      <point x="198" y="256" type="curve"/>
      <point x="497" y="256" type="line"/>
      <point x="509" y="262"/>
      <point x="514" y="282"/>
      <point x="507" y="288" type="curve"/>
      <point x="196" y="288" type="line"/>
      <point x="194" y="300"/>
      <point x="194" y="333"/>
      <point x="195" y="345" type="curve"/>
      <point x="517" y="345" type="line"/>
      <point x="529" y="351"/>
      <point x="529" y="371"/>
      <point x="527" y="377" type="curve"/>
      <point x="198" y="377" type="line"/>
      <point x="213" y="539"/>
      <point x="308" y="612"/>
      <point x="400" y="612" type="curve" smooth="yes"/>
      <point x="503" y="612"/>
      <point x="536" y="536"/>
      <point x="547" y="493" type="curve"/>
      <point x="553" y="486"/>
      <point x="564" y="487"/>
      <point x="568" y="495" type="curve" name="hr02"/>
      <point x="562" y="532"/>
      <point x="558" y="592"/>
      <point x="557" y="613" type="curve"/>
      <point x="550" y="614"/>
      <point x="545" y="615"/>
      <point x="536" y="618" type="curve" smooth="yes"/>
      <point x="501" y="631"/>
      <point x="455" y="640"/>
      <point x="414" y="640" type="curve" smooth="yes" name="hr03"/>
      <point x="247" y="640"/>
      <point x="136" y="526"/>
      <point x="111" y="377" type="curve"/>
    </contour>
  </outline>
</glyph>
<glyph name="Euro.titling" format="1">
  <advance width="500"/>
  <unicode hex="E01F"/>
  <outline>
    <contour>
      <point x="44" y="372" type="line" name="hr01"/>
      <point x="37" y="366"/>
      <point x="27" y="351"/>
      <point x="34" y="345" type="curve"/>
      <point x="74" y="345" type="line"/>
      <point x="73" y="333"/>
      <point x="72" y="298"/>
      <point x="73" y="288" type="curve"/>
      <point x="24" y="288" type="line" name="hr02"/>
      <point x="17" y="282"/>
      <point x="7" y="267"/>
      <point x="14" y="261" type="curve"/>
      <point x="75" y="261" type="line"/>
      <point x="89" y="107"/>
      <point x="153" y="-14"/>
      <point x="326" y="-14" type="curve" smooth="yes"/>
      <point x="352" y="-14"/>
      <point x="379" y="-8"/>
      <point x="410" y="0" type="curve"/>
      <point x="419" y="4"/>
      <point x="431" y="8"/>
      <point x="436" y="10" type="curve"/>
      <point x="450" y="29"/>
      <point x="472" y="74"/>
      <point x="482" y="122" type="curve"/>
      <point x="479" y="129"/>
      <point x="473" y="131"/>
      <point x="468" y="126" type="curve"/>
      <point x="435" y="60"/>
      <point x="384" y="8"/>
      <point x="329" y="8" type="curve" smooth="yes"/>
      <point x="230" y="8"/>
      <point x="159" y="125"/>
      <point x="153" y="261" type="curve"/>
      <point x="402" y="261" type="line"/>
      <point x="414" y="267"/>
      <point x="419" y="282"/>
      <point x="412" y="288" type="curve"/>
      <point x="151" y="288" type="line" name="hr03"/>
      <point x="149" y="300"/>
      <point x="149" y="333"/>
      <point x="150" y="345" type="curve"/>
      <point x="422" y="345" type="line"/>
      <point x="434" y="351"/>
      <point x="434" y="366"/>
      <point x="432" y="372" type="curve"/>
      <point x="153" y="372" type="line" name="hr04"/>
      <point x="169" y="544"/>
      <point x="254" y="617"/>
      <point x="338" y="617" type="curve" smooth="yes"/>
      <point x="425" y="617"/>
      <point x="447" y="544"/>
      <point x="457" y="506" type="curve"/>
      <point x="463" y="499"/>
      <point x="469" y="500"/>
      <point x="473" y="508" type="curve"/>
      <point x="467" y="545"/>
      <point x="463" y="597"/>
      <point x="462" y="618" type="curve"/>
      <point x="455" y="619"/>
      <point x="450" y="620"/>
      <point x="441" y="623" type="curve" smooth="yes"/>
      <point x="406" y="636"/>
      <point x="388" y="640"/>
      <point x="347" y="640" type="curve" smooth="yes"/>
      <point x="190" y="640"/>
      <point x="101" y="522"/>
      <point x="76" y="372" type="curve" name="hr05"/>
    </contour>
  </outline>
</glyph>
<glyph name="F.titling" format="1">
  <advance width="535"/>
  <unicode hex="E020"/>
  <outline>
    <contour>
      <point x="134" y="157" type="line" smooth="yes" name="hr01"/>
      <point x="134" y="100"/>
      <point x="130" y="51"/>
      <point x="121" y="37" type="curve" smooth="yes"/>
      <point x="112" y="25"/>
      <point x="90" y="21"/>
      <point x="74" y="18" type="curve" smooth="yes"/>
      <point x="47" y="13" type="line"/>
      <point x="42" y="9"/>
      <point x="44" y="-1"/>
      <point x="49" y="-3" type="curve"/>
      <point x="82" y="-1"/>
      <point x="120" y="0"/>
      <point x="170" y="0" type="curve" smooth="yes"/>
      <point x="217" y="0"/>
      <point x="260" y="-1"/>
      <point x="306" y="-3" type="curve"/>
      <point x="311" y="0"/>
      <point x="311" y="8"/>
      <point x="307" y="13" type="curve"/>
      <point x="270" y="19" type="line" smooth="yes"/>
      <point x="254" y="22"/>
      <point x="234" y="27"/>
      <point x="224" y="38" type="curve" smooth="yes"/>
      <point x="214" y="51"/>
      <point x="210" y="100"/>
      <point x="210" y="157" type="curve" smooth="yes"/>
      <point x="210" y="285" type="line" smooth="yes"/>
      <point x="210" y="315"/>
      <point x="211" y="317"/>
      <point x="239" y="317" type="curve" smooth="yes"/>
      <point x="275" y="317" type="line" smooth="yes"/>
      <point x="340" y="317"/>
      <point x="377" y="317"/>
      <point x="402" y="309" type="curve" smooth="yes"/>
      <point x="418" y="303"/>
      <point x="425" y="293"/>
      <point x="430" y="274" type="curve" smooth="yes"/>
      <point x="442" y="231" type="line"/>
      <point x="448" y="229"/>
      <point x="457" y="229"/>
      <point x="460" y="232" type="curve"/>
      <point x="458" y="254"/>
      <point x="456" y="292"/>
      <point x="456" y="328" type="curve" smooth="yes"/>
      <point x="456" y="366"/>
      <point x="458" y="401"/>
      <point x="460" y="426" type="curve"/>
      <point x="457" y="430"/>
      <point x="446" y="430"/>
      <point x="442" y="427" type="curve"/>
      <point x="432" y="387" type="line" smooth="yes"/>
      <point x="426" y="362"/>
      <point x="416" y="356"/>
      <point x="402" y="352" type="curve" smooth="yes"/>
      <point x="381" y="346"/>
      <point x="342" y="344"/>
      <point x="275" y="344" type="curve" smooth="yes"/>
      <point x="239" y="344" type="line" smooth="yes"/>
      <point x="211" y="344"/>
      <point x="210" y="347"/>
      <point x="210" y="379" type="curve" smooth="yes"/>
      <point x="210" y="550" type="line" smooth="yes"/>
      <point x="210" y="598"/>
      <point x="212" y="615"/>
      <point x="215" y="625" type="curve" smooth="yes"/>
      <point x="217" y="634"/>
      <point x="229" y="637"/>
      <point x="255" y="637" type="curve" smooth="yes"/>
      <point x="304" y="637" type="line" smooth="yes"/>
      <point x="349" y="637"/>
      <point x="382" y="634"/>
      <point x="402" y="630" type="curve" smooth="yes" name="hr02"/>
      <point x="458" y="618"/>
      <point x="471" y="578"/>
      <point x="479" y="532" type="curve"/>
      <point x="486" y="530"/>
      <point x="495" y="531"/>
      <point x="497" y="535" type="curve"/>
      <point x="495" y="574"/>
      <point x="494" y="621"/>
      <point x="494" y="663" type="curve" name="hr03"/>
      <point x="479" y="660"/>
      <point x="420" y="660"/>
      <point x="356" y="660" type="curve" smooth="yes" name="hr04"/>
      <point x="170" y="660" type="line" smooth="yes"/>
      <point x="151" y="660"/>
      <point x="135" y="660"/>
      <point x="118" y="661" type="curve" smooth="yes"/>
      <point x="102" y="661"/>
      <point x="85" y="662"/>
      <point x="63" y="663" type="curve" name="hr05"/>
      <point x="58" y="660"/>
      <point x="57" y="652"/>
      <point x="60" y="647" type="curve"/>
      <point x="74" y="644" type="line" smooth="yes"/>
      <point x="99" y="639"/>
      <point x="113" y="634"/>
      <point x="121" y="622" type="curve" smooth="yes"/>
      <point x="131" y="607"/>
      <point x="134" y="559"/>
      <point x="134" y="501" type="curve" smooth="yes"/>
    </contour>
  </outline>
</glyph>
<glyph name="H.titling" format="1">
  <advance width="811"/>
  <unicode hex="E024"/>
  <outline>
    <contour>
      <point x="134" y="157" type="line" smooth="yes" name="hr00"/>
      <point x="134" y="99"/>
      <point x="130" y="52"/>
      <point x="120" y="37" type="curve" smooth="yes"/>
      <point x="112" y="25"/>
      <point x="92" y="20"/>
      <point x="74" y="16" type="curve" smooth="yes"/>
      <point x="59" y="13" type="line"/>
      <point x="55" y="8"/>
      <point x="56" y="-1"/>
      <point x="61" y="-3" type="curve"/>
      <point x="102" y="-1"/>
      <point x="128" y="0"/>
      <point x="168" y="0" type="curve" smooth="yes"/>
      <point x="214" y="0"/>
      <point x="256" y="-1"/>
      <point x="301" y="-3" type="curve"/>
      <point x="305" y="1"/>
      <point x="305" y="8"/>
      <point x="302" y="13" type="curve"/>
      <point x="270" y="17" type="line" smooth="yes"/>
      <point x="252" y="19"/>
      <point x="234" y="25"/>
      <point x="224" y="37" type="curve" smooth="yes"/>
      <point x="213" y="52"/>
      <point x="210" y="99"/>
      <point x="210" y="157" type="curve" smooth="yes"/>
      <point x="210" y="296" type="line" smooth="yes"/>
      <point x="210" y="326"/>
      <point x="212" y="328"/>
      <point x="258" y="328" type="curve" smooth="yes"/>
      <point x="554" y="328" type="line" smooth="yes"/>
      <point x="599" y="328"/>
      <point x="601" y="326"/>
      <point x="601" y="296" type="curve" smooth="yes"/>
      <point x="601" y="157" type="line" smooth="yes"/>
      <point x="601" y="99"/>
      <point x="597" y="54"/>
      <point x="588" y="39" type="curve" smooth="yes"/>
      <point x="579" y="26"/>
      <point x="564" y="21"/>
      <point x="542" y="17" type="curve" smooth="yes"/>
      <point x="521" y="13" type="line"/>
      <point x="517" y="8"/>
      <point x="518" y="0"/>
      <point x="523" y="-3" type="curve"/>
      <point x="559" y="-1"/>
      <point x="598" y="0"/>
      <point x="637" y="0" type="curve" smooth="yes"/>
      <point x="676" y="0"/>
      <point x="719" y="-1"/>
      <point x="759" y="-3" type="curve"/>
      <point x="764" y="0"/>
      <point x="765" y="8"/>
      <point x="761" y="13" type="curve"/>
      <point x="737" y="17" type="line" smooth="yes"/>
      <point x="722" y="20"/>
      <point x="701" y="24"/>
      <point x="691" y="36" type="curve" smooth="yes"/>
      <point x="680" y="51"/>
      <point x="677" y="99"/>
      <point x="677" y="157" type="curve" smooth="yes"/>
      <point x="677" y="503" type="line" smooth="yes"/>
      <point x="677" y="559"/>
      <point x="680" y="609"/>
      <point x="691" y="624" type="curve" smooth="yes"/>
      <point x="701" y="636"/>
      <point x="722" y="638"/>
      <point x="737" y="642" type="curve" smooth="yes"/>
      <point x="758" y="647" type="line"/>
      <point x="762" y="653"/>
      <point x="761" y="660"/>
      <point x="756" y="663" type="curve"/>
      <point x="715" y="661"/>
      <point x="682" y="660"/>
      <point x="636" y="660" type="curve" smooth="yes"/>
      <point x="597" y="660"/>
      <point x="563" y="661"/>
      <point x="523" y="663" type="curve"/>
      <point x="517" y="660"/>
      <point x="517" y="652"/>
      <point x="521" y="647" type="curve"/>
      <point x="541" y="643" type="line" smooth="yes"/>
      <point x="557" y="640"/>
      <point x="578" y="636"/>
      <point x="587" y="623" type="curve" smooth="yes"/>
      <point x="597" y="609"/>
      <point x="601" y="559"/>
      <point x="601" y="503" type="curve" smooth="yes"/>
      <point x="601" y="391" type="line" smooth="yes"/>
      <point x="601" y="361"/>
      <point x="599" y="359"/>
      <point x="554" y="359" type="curve" smooth="yes"/>
      <point x="258" y="359" type="line" smooth="yes"/>
      <point x="212" y="359"/>
      <point x="210" y="362"/>
      <point x="210" y="391" type="curve" smooth="yes"/>
      <point x="210" y="503" type="line" smooth="yes"/>
      <point x="210" y="560"/>
      <point x="212" y="608"/>
      <point x="223" y="623" type="curve" smooth="yes"/>
      <point x="233" y="635"/>
      <point x="247" y="640"/>
      <point x="270" y="644" type="curve" smooth="yes"/>
      <point x="289" y="647" type="line"/>
      <point x="292" y="654"/>
      <point x="293" y="660"/>
      <point x="288" y="663" type="curve"/>
      <point x="244" y="661"/>
      <point x="208" y="660"/>
      <point x="168" y="660" type="curve" smooth="yes"/>
      <point x="128" y="660"/>
      <point x="96" y="661"/>
      <point x="50" y="663" type="curve"/>
      <point x="45" y="660"/>
      <point x="45" y="654"/>
      <point x="49" y="647" type="curve"/>
      <point x="73" y="643" type="line" smooth="yes"/>
      <point x="91" y="640"/>
      <point x="112" y="635"/>
      <point x="120" y="623" type="curve" smooth="yes"/>
      <point x="131" y="607"/>
      <point x="134" y="560"/>
      <point x="134" y="503" type="curve" smooth="yes"/>
    </contour>
  </outline>
</glyph>
<glyph name="J.titling" format="1">
  <advance width="349"/>
  <unicode hex="E02D"/>
  <outline>
    <contour>
      <point x="225" y="500" type="line" smooth="yes" name="hr00"/>
      <point x="225" y="558"/>
      <point x="228" y="608"/>
      <point x="239" y="623" type="curve" smooth="yes"/>
      <point x="249" y="636"/>
      <point x="270" y="641"/>
      <point x="286" y="644" type="curve" smooth="yes"/>
      <point x="301" y="647" type="line"/>
      <point x="305" y="653"/>
      <point x="305" y="660"/>
      <point x="300" y="663" type="curve"/>
      <point x="265" y="661"/>
      <point x="230" y="660"/>
      <point x="187" y="660" type="curve" smooth="yes"/>
      <point x="146" y="660"/>
      <point x="114" y="661"/>
      <point x="59" y="663" type="curve"/>
      <point x="54" y="659"/>
      <point x="54" y="653"/>
      <point x="58" y="647" type="curve"/>
      <point x="88" y="642" type="line" smooth="yes"/>
      <point x="104" y="639"/>
      <point x="125" y="636"/>
      <point x="135" y="623" type="curve" smooth="yes"/>
      <point x="146" y="609"/>
      <point x="149" y="558"/>
      <point x="149" y="500" type="curve" smooth="yes"/>
      <point x="149" y="125" type="line" smooth="yes"/>
      <point x="149" y="72"/>
      <point x="146" y="-81"/>
      <point x="123" y="-127" type="curve" smooth="yes"/>
      <point x="116" y="-141"/>
      <point x="104" y="-153"/>
      <point x="83" y="-153" type="curve" smooth="yes"/>
      <point x="54" y="-153"/>
      <point x="25" y="-138"/>
      <point x="2" y="-138" type="curve" smooth="yes"/>
      <point x="-16" y="-138"/>
      <point x="-32" y="-162"/>
      <point x="-32" y="-179" type="curve" smooth="yes"/>
      <point x="-32" y="-200"/>
      <point x="-1" y="-201"/>
      <point x="11" y="-201" type="curve" smooth="yes"/>
      <point x="104" y="-201"/>
      <point x="168" y="-137"/>
      <point x="201" y="-57" type="curve" smooth="yes"/>
      <point x="220" y="-11"/>
      <point x="225" y="58"/>
      <point x="225" y="137" type="curve" smooth="yes"/>
    </contour>
  </outline>
</glyph>
<glyph name="Lslash.titling" format="1">
  <advance width="562"/>
  <unicode hex="E034"/>
  <outline>
    <contour>
      <point x="372" y="396" type="line" name="hr01"/>
      <point x="376" y="409"/>
      <point x="370" y="422"/>
      <point x="363" y="425" type="curve"/>
      <point x="216" y="353" type="line"/>
      <point x="216" y="500" type="line" smooth="yes"/>
      <point x="216" y="558"/>
      <point x="219" y="608"/>
      <point x="230" y="623" type="curve" smooth="yes"/>
      <point x="240" y="636"/>
      <point x="261" y="640"/>
      <point x="277" y="643" type="curve" smooth="yes"/>
      <point x="300" y="647" type="line"/>
      <point x="304" y="653"/>
      <point x="304" y="660"/>
      <point x="299" y="663" type="curve"/>
      <point x="256" y="661"/>
      <point x="221" y="660"/>
      <point x="178" y="660" type="curve" smooth="yes"/>
      <point x="137" y="660"/>
      <point x="105" y="661"/>
      <point x="51" y="663" type="curve"/>
      <point x="46" y="659"/>
      <point x="46" y="653"/>
      <point x="50" y="647" type="curve"/>
      <point x="79" y="643" type="line" smooth="yes"/>
      <point x="95" y="641"/>
      <point x="116" y="636"/>
      <point x="126" y="623" type="curve" smooth="yes"/>
      <point x="137" y="609"/>
      <point x="140" y="558"/>
      <point x="140" y="500" type="curve" smooth="yes"/>
      <point x="140" y="317" type="line"/>
      <point x="42" y="272" type="line"/>
      <point x="40" y="260"/>
      <point x="44" y="247"/>
      <point x="53" y="243" type="curve"/>
      <point x="140" y="285" type="line"/>
      <point x="140" y="160" type="line" smooth="yes"/>
      <point x="140" y="102"/>
      <point x="137" y="52"/>
      <point x="126" y="37" type="curve" smooth="yes" name="hr02"/>
      <point x="116" y="24"/>
      <point x="95" y="19"/>
      <point x="79" y="17" type="curve" smooth="yes"/>
      <point x="50" y="13" type="line"/>
      <point x="47" y="8"/>
      <point x="47" y="0"/>
      <point x="52" y="-3" type="curve" name="hr03"/>
      <point x="108" y="-1"/>
      <point x="138" y="0"/>
      <point x="178" y="0" type="curve" smooth="yes" name="hr04"/>
      <point x="260" y="0" type="line" smooth="yes"/>
      <point x="360" y="0"/>
      <point x="440" y="0"/>
      <point x="519" y="-3" type="curve"/>
      <point x="535" y="24"/>
      <point x="555" y="100"/>
      <point x="561" y="133" type="curve"/>
      <point x="558" y="138"/>
      <point x="550" y="139"/>
      <point x="543" y="137" type="curve"/>
      <point x="496" y="30"/>
      <point x="463" y="23"/>
      <point x="352" y="23" type="curve" smooth="yes"/>
      <point x="264" y="23"/>
      <point x="242" y="35"/>
      <point x="232" y="46" type="curve" smooth="yes"/>
      <point x="218" y="63"/>
      <point x="216" y="109"/>
      <point x="216" y="156" type="curve" smooth="yes"/>
      <point x="216" y="320" type="line"/>
    </contour>
  </outline>
</glyph>
<glyph name="N.titling" format="1">
  <advance width="782"/>
  <unicode hex="E036"/>
  <outline>
    <contour>
      <point x="663" y="414" type="line" smooth="yes" name="hr01"/>
      <point x="663" y="450"/>
      <point x="662" y="584"/>
      <point x="678" y="620" type="curve" smooth="yes"/>
      <point x="682" y="630"/>
      <point x="701" y="638"/>
      <point x="720" y="642" type="curve" smooth="yes"/>
      <point x="747" y="647" type="line"/>
      <point x="751" y="653"/>
      <point x="750" y="660"/>
      <point x="746" y="663" type="curve"/>
      <point x="712" y="661"/>
      <point x="685" y="660"/>
      <point x="648" y="660" type="curve" smooth="yes"/>
      <point x="610" y="660"/>
      <point x="573" y="661"/>
      <point x="533" y="663" type="curve"/>
      <point x="529" y="661"/>
      <point x="528" y="651"/>
      <point x="532" y="647" type="curve"/>
      <point x="562" y="643" type="line" smooth="yes"/>
      <point x="587" y="640"/>
      <point x="605" y="632"/>
      <point x="612" y="621" type="curve" smooth="yes"/>
      <point x="629" y="591"/>
      <point x="631" y="461"/>
      <point x="631" y="414" type="curve" smooth="yes"/>
      <point x="631" y="195" type="line" smooth="yes"/>
      <point x="631" y="167"/>
      <point x="631" y="147"/>
      <point x="626" y="143" type="curve"/>
      <point x="600" y="168"/>
      <point x="495" y="286"/>
      <point x="448" y="338" type="curve" smooth="yes"/>
      <point x="349" y="447" type="line" smooth="yes"/>
      <point x="270" y="534"/>
      <point x="200" y="616"/>
      <point x="180" y="663" type="curve"/>
      <point x="166" y="661"/>
      <point x="149" y="660"/>
      <point x="126" y="660" type="curve" smooth="yes"/>
      <point x="93" y="660"/>
      <point x="61" y="661"/>
      <point x="27" y="663" type="curve"/>
      <point x="22" y="660"/>
      <point x="21" y="653"/>
      <point x="25" y="647" type="curve"/>
      <point x="46" y="643" type="line" smooth="yes"/>
      <point x="70" y="638"/>
      <point x="90" y="633"/>
      <point x="105" y="620" type="curve" smooth="yes"/>
      <point x="133" y="596"/>
      <point x="132" y="560"/>
      <point x="132" y="456" type="curve" smooth="yes"/>
      <point x="132" y="246" type="line" smooth="yes"/>
      <point x="132" y="210"/>
      <point x="133" y="76"/>
      <point x="117" y="40" type="curve" smooth="yes"/>
      <point x="113" y="30"/>
      <point x="94" y="22"/>
      <point x="75" y="18" type="curve" smooth="yes"/>
      <point x="48" y="13" type="line"/>
      <point x="44" y="7"/>
      <point x="45" y="0"/>
      <point x="49" y="-3" type="curve"/>
      <point x="83" y="-1"/>
      <point x="110" y="0"/>
      <point x="147" y="0" type="curve" smooth="yes"/>
      <point x="185" y="0"/>
      <point x="222" y="-1"/>
      <point x="262" y="-3" type="curve"/>
      <point x="266" y="-1"/>
      <point x="267" y="9"/>
      <point x="263" y="13" type="curve"/>
      <point x="233" y="17" type="line" smooth="yes"/>
      <point x="208" y="20"/>
      <point x="190" y="28"/>
      <point x="183" y="39" type="curve" smooth="yes"/>
      <point x="166" y="69"/>
      <point x="164" y="199"/>
      <point x="164" y="246" type="curve" smooth="yes"/>
      <point x="164" y="472" type="line" smooth="yes"/>
      <point x="164" y="519"/>
      <point x="164" y="534"/>
      <point x="174" y="534" type="curve"/>
      <point x="192" y="518"/>
      <point x="212" y="494"/>
      <point x="287" y="409" type="curve" smooth="yes"/>
      <point x="556" y="106" type="line" smooth="yes"/>
      <point x="616" y="38"/>
      <point x="642" y="1"/>
      <point x="654" y="-16" type="curve" name="hr02"/>
      <point x="662" y="-15"/>
      <point x="666" y="-11"/>
      <point x="667" y="-6" type="curve"/>
      <point x="663" y="17"/>
      <point x="663" y="140"/>
      <point x="663" y="170" type="curve" smooth="yes"/>
    </contour>
  </outline>
</glyph>
<glyph name="O.titling" format="1">
  <advance width="797"/>
  <unicode hex="E03B"/>
  <outline>
    <contour>
      <point x="403" y="676" type="curve" smooth="yes" name="hr00"/>
      <point x="200" y="676"/>
      <point x="50" y="523"/>
      <point x="50" y="323" type="curve" smooth="yes"/>
      <point x="50" y="143"/>
      <point x="181" y="-16"/>
      <point x="401" y="-16" type="curve" smooth="yes"/>
      <point x="596" y="-16"/>
      <point x="747" y="129"/>
      <point x="747" y="334" type="curve" smooth="yes"/>
      <point x="747" y="512"/>
      <point x="629" y="676"/>
    </contour>
    <contour>
      <point x="388" y="653" type="curve" smooth="yes"/>
      <point x="584" y="653"/>
      <point x="657" y="464"/>
      <point x="657" y="307" type="curve" smooth="yes"/>
      <point x="657" y="92"/>
      <point x="540" y="7"/>
      <point x="411" y="7" type="curve" smooth="yes"/>
      <point x="213" y="7"/>
      <point x="140" y="205"/>
      <point x="140" y="358" type="curve" smooth="yes"/>
      <point x="140" y="583"/>
      <point x="277" y="653"/>
    </contour>
  </outline>
</glyph>
<glyph name="OE.titling" format="1">
  <advance width="1002"/>
  <unicode hex="E03C"/>
  <outline>
    <contour>
      <point x="619" y="660" type="line" smooth="yes" name="hr01"/>
      <point x="565" y="660"/>
      <point x="513" y="666"/>
      <point x="443" y="666" type="curve" smooth="yes" name="hr02"/>
      <point x="202" y="666"/>
      <point x="50" y="521"/>
      <point x="50" y="325" type="curve" smooth="yes"/>
      <point x="50" y="130"/>
      <point x="199" y="-6"/>
      <point x="433" y="-6" type="curve" smooth="yes"/>
      <point x="467" y="-6"/>
      <point x="499" y="-4"/>
      <point x="531" y="-3" type="curve" smooth="yes"/>
      <point x="563" y="-1"/>
      <point x="595" y="0"/>
      <point x="628" y="0" type="curve" smooth="yes" name="hr03"/>
      <point x="697" y="0" type="line" smooth="yes"/>
      <point x="793" y="0"/>
      <point x="874" y="-1"/>
      <point x="955" y="-3" type="curve"/>
      <point x="972" y="24"/>
      <point x="992" y="100"/>
      <point x="997" y="132" type="curve"/>
      <point x="996" y="137"/>
      <point x="984" y="140"/>
      <point x="979" y="137" type="curve"/>
      <point x="936" y="34"/>
      <point x="891" y="22"/>
      <point x="770" y="23" type="curve" smooth="yes"/>
      <point x="683" y="24"/>
      <point x="663" y="34"/>
      <point x="652" y="46" type="curve" smooth="yes"/>
      <point x="637" y="63"/>
      <point x="635" y="109"/>
      <point x="635" y="156" type="curve" smooth="yes"/>
      <point x="635" y="297" type="line" smooth="yes"/>
      <point x="635" y="328"/>
      <point x="636" y="331"/>
      <point x="665" y="331" type="curve" smooth="yes"/>
      <point x="721" y="331" type="line" smooth="yes"/>
      <point x="765" y="331"/>
      <point x="796" y="327"/>
      <point x="813" y="321" type="curve" smooth="yes"/>
      <point x="826" y="316"/>
      <point x="834" y="305"/>
      <point x="840" y="285" type="curve" smooth="yes"/>
      <point x="851" y="245" type="line"/>
      <point x="855" y="242"/>
      <point x="866" y="242"/>
      <point x="869" y="246" type="curve"/>
      <point x="869" y="267"/>
      <point x="866" y="305"/>
      <point x="866" y="343" type="curve" smooth="yes"/>
      <point x="866" y="380"/>
      <point x="869" y="420"/>
      <point x="869" y="440" type="curve"/>
      <point x="866" y="444"/>
      <point x="855" y="444"/>
      <point x="851" y="441" type="curve"/>
      <point x="841" y="403" type="line" smooth="yes"/>
      <point x="834" y="378"/>
      <point x="823" y="368"/>
      <point x="813" y="365" type="curve" smooth="yes"/>
      <point x="797" y="360"/>
      <point x="765" y="358"/>
      <point x="721" y="358" type="curve" smooth="yes"/>
      <point x="665" y="358" type="line" smooth="yes"/>
      <point x="636" y="358"/>
      <point x="635" y="361"/>
      <point x="635" y="392" type="curve" smooth="yes"/>
      <point x="635" y="551" type="line" smooth="yes"/>
      <point x="635" y="599"/>
      <point x="638" y="616"/>
      <point x="640" y="624" type="curve" smooth="yes"/>
      <point x="642" y="633"/>
      <point x="649" y="637"/>
      <point x="683" y="637" type="curve" smooth="yes"/>
      <point x="738" y="637" type="line" smooth="yes"/>
      <point x="783" y="637"/>
      <point x="815" y="634"/>
      <point x="836" y="629" type="curve" smooth="yes"/>
      <point x="891" y="617"/>
      <point x="907" y="578"/>
      <point x="918" y="533" type="curve"/>
      <point x="924" y="531"/>
      <point x="933" y="532"/>
      <point x="936" y="536" type="curve"/>
      <point x="931" y="574"/>
      <point x="925" y="646"/>
      <point x="921" y="663" type="curve" name="hr04"/>
      <point x="906" y="660"/>
      <point x="850" y="660"/>
      <point x="786" y="660" type="curve" smooth="yes" name="hr05"/>
    </contour>
    <contour>
      <point x="559" y="119" type="line" smooth="yes"/>
      <point x="559" y="64"/>
      <point x="554" y="43"/>
      <point x="530" y="32" type="curve" smooth="yes"/>
      <point x="512" y="24"/>
      <point x="479" y="17"/>
      <point x="446" y="17" type="curve" smooth="yes"/>
      <point x="189" y="17"/>
      <point x="140" y="224"/>
      <point x="140" y="331" type="curve" smooth="yes"/>
      <point x="140" y="499"/>
      <point x="216" y="643"/>
      <point x="445" y="643" type="curve" smooth="yes" name="hr06"/>
      <point x="478" y="643"/>
      <point x="507" y="637"/>
      <point x="523" y="632" type="curve" smooth="yes"/>
      <point x="549" y="623"/>
      <point x="559" y="607"/>
      <point x="559" y="547" type="curve" smooth="yes"/>
    </contour>
  </outline>
</glyph>
<glyph name="Omacron.titling" format="1">
  <advance width="797"/>
  <unicode hex="E042"/>
  <outline>
    <contour>
      <point x="403" y="676" type="curve" smooth="yes" name="hr00"/>
      <point x="200" y="676"/>
      <point x="50" y="523"/>
      <point x="50" y="323" type="curve" smooth="yes"/>
      <point x="50" y="143"/>
      <point x="181" y="-16"/>
      <point x="401" y="-16" type="curve" smooth="yes"/>
      <point x="596" y="-16"/>
      <point x="747" y="129"/>
      <point x="747" y="334" type="curve" smooth="yes"/>
      <point x="747" y="512"/>
      <point x="629" y="676"/>
    </contour>
    <contour>
      <point x="388" y="653" type="curve" smooth="yes"/>
      <point x="584" y="653"/>
      <point x="657" y="464"/>
      <point x="657" y="307" type="curve" smooth="yes"/>
      <point x="657" y="92"/>
      <point x="540" y="7"/>
      <point x="411" y="7" type="curve" smooth="yes"/>
      <point x="213" y="7"/>
      <point x="140" y="205"/>
      <point x="140" y="358" type="curve" smooth="yes"/>
      <point x="140" y="583"/>
      <point x="277" y="653"/>
    </contour>
    <contour>
      <point x="484" y="717" type="line"/>
      <point x="493" y="728"/>
      <point x="493" y="750"/>
      <point x="484" y="761" type="curve"/>
      <point x="313" y="761" type="line"/>
      <point x="304" y="750"/>
      <point x="304" y="728"/>
      <point x="313" y="717" type="curve"/>
    </contour>
  </outline>
</glyph>
<glyph name="Q.alttitling" format="1">
  <advance width="797"/>
  <unicode hex="E047"/>
  <outline>
    <contour>
      <point x="403" y="676" type="curve" smooth="yes" name="hr00"/>
      <point x="200" y="676"/>
      <point x="50" y="523"/>
      <point x="50" y="323" type="curve" smooth="yes"/>
      <point x="50" y="149"/>
      <point x="172" y="1"/>
      <point x="360" y="-13" type="curve" smooth="yes"/>
      <point x="385" y="-15"/>
      <point x="394" y="-21"/>
      <point x="407" y="-30" type="curve" smooth="yes"/>
      <point x="422" y="-41"/>
      <point x="573" y="-156"/>
      <point x="702" y="-227" type="curve" smooth="yes"/>
      <point x="810" y="-286"/>
      <point x="962" y="-346"/>
      <point x="1120" y="-346" type="curve" smooth="yes"/>
      <point x="1197" y="-346"/>
      <point x="1300" y="-327"/>
      <point x="1352" y="-276" type="curve"/>
      <point x="1355" y="-268"/>
      <point x="1352" y="-265"/>
      <point x="1345" y="-263" type="curve"/>
      <point x="1300" y="-294"/>
      <point x="1239" y="-313"/>
      <point x="1156" y="-313" type="curve" smooth="yes"/>
      <point x="1029" y="-313"/>
      <point x="889" y="-255"/>
      <point x="791" y="-199" type="curve" smooth="yes"/>
      <point x="652" y="-119"/>
      <point x="559" y="-45"/>
      <point x="522" y="-11" type="curve" smooth="yes"/>
      <point x="516" y="-5"/>
      <point x="511" y="-1"/>
      <point x="513" y="2" type="curve"/>
      <point x="651" y="45"/>
      <point x="747" y="171"/>
      <point x="747" y="334" type="curve" smooth="yes"/>
      <point x="747" y="512"/>
      <point x="629" y="676"/>
    </contour>
    <contour>
      <point x="388" y="653" type="curve" smooth="yes"/>
      <point x="584" y="653"/>
      <point x="657" y="464"/>
      <point x="657" y="307" type="curve" smooth="yes"/>
      <point x="657" y="92"/>
      <point x="540" y="7"/>
      <point x="411" y="7" type="curve" smooth="yes"/>
      <point x="213" y="7"/>
      <point x="140" y="205"/>
      <point x="140" y="358" type="curve" smooth="yes"/>
      <point x="140" y="583"/>
      <point x="277" y="653"/>
    </contour>
  </outline>
</glyph>
<glyph name="V.titling" format="1">
  <advance width="664"/>
  <unicode hex="E062"/>
  <outline>
    <contour>
      <point x="274" y="120" type="line" smooth="yes" name="hr00"/>
      <point x="291" y="78"/>
      <point x="310" y="29"/>
      <point x="321" y="-13" type="curve"/>
      <point x="323" y="-15"/>
      <point x="327" y="-16"/>
      <point x="330" y="-16" type="curve" smooth="yes"/>
      <point x="333" y="-16"/>
      <point x="337" y="-15"/>
      <point x="339" y="-13" type="curve"/>
      <point x="356" y="40"/>
      <point x="401" y="157"/>
      <point x="441" y="248" type="curve" smooth="yes"/>
      <point x="495" y="372" type="line" smooth="yes"/>
      <point x="539" y="473"/>
      <point x="589" y="575"/>
      <point x="603" y="601" type="curve" smooth="yes"/>
      <point x="618" y="630"/>
      <point x="633" y="638"/>
      <point x="658" y="642" type="curve" smooth="yes"/>
      <point x="688" y="647" type="line"/>
      <point x="691" y="652"/>
      <point x="691" y="659"/>
      <point x="686" y="663" type="curve"/>
      <point x="656" y="661"/>
      <point x="626" y="660"/>
      <point x="593" y="660" type="curve" smooth="yes"/>
      <point x="562" y="660"/>
      <point x="530" y="661"/>
      <point x="493" y="663" type="curve"/>
      <point x="487" y="660"/>
      <point x="487" y="651"/>
      <point x="491" y="647" type="curve"/>
      <point x="522" y="641" type="line" smooth="yes"/>
      <point x="543" y="637"/>
      <point x="554" y="632"/>
      <point x="554" y="625" type="curve" smooth="yes"/>
      <point x="554" y="616"/>
      <point x="550" y="599"/>
      <point x="543" y="579" type="curve" smooth="yes"/>
      <point x="527" y="535"/>
      <point x="504" y="473"/>
      <point x="454" y="355" type="curve" smooth="yes"/>
      <point x="398" y="223" type="line" smooth="yes"/>
      <point x="375" y="169"/>
      <point x="362" y="142"/>
      <point x="354" y="126" type="curve"/>
      <point x="349" y="138"/>
      <point x="331" y="176"/>
      <point x="308" y="233" type="curve" smooth="yes"/>
      <point x="210" y="477" type="line" smooth="yes"/>
      <point x="179" y="554"/>
      <point x="158" y="609"/>
      <point x="158" y="622" type="curve" smooth="yes"/>
      <point x="158" y="635"/>
      <point x="168" y="636"/>
      <point x="190" y="641" type="curve" smooth="yes"/>
      <point x="216" y="647" type="line"/>
      <point x="220" y="651"/>
      <point x="220" y="659"/>
      <point x="215" y="663" type="curve"/>
      <point x="178" y="661"/>
      <point x="144" y="660"/>
      <point x="104" y="660" type="curve" smooth="yes"/>
      <point x="62" y="660"/>
      <point x="29" y="661"/>
      <point x="-1" y="663" type="curve"/>
      <point x="-6" y="660"/>
      <point x="-7" y="653"/>
      <point x="-3" y="647" type="curve"/>
      <point x="27" y="641" type="line" smooth="yes"/>
      <point x="50" y="636"/>
      <point x="63" y="626"/>
      <point x="73" y="610" type="curve" smooth="yes"/>
      <point x="83" y="593"/>
      <point x="94" y="566"/>
      <point x="119" y="504" type="curve" smooth="yes"/>
    </contour>
  </outline>
</glyph>
<glyph name="Ydieresis.titling" format="1">
  <advance width="576"/>
  <unicode hex="E067"/>
  <outline>
    <contour>
      <point x="328" y="204" type="line" smooth="yes" name="hr01"/>
      <point x="328" y="225"/>
      <point x="329" y="260"/>
      <point x="332" y="275" type="curve" smooth="yes"/>
      <point x="337" y="296"/>
      <point x="342" y="316"/>
      <point x="380" y="380" type="curve" smooth="yes"/>
      <point x="424" y="455"/>
      <point x="467" y="532"/>
      <point x="517" y="603" type="curve" smooth="yes"/>
      <point x="532" y="625"/>
      <point x="542" y="632"/>
      <point x="567" y="639" type="curve" smooth="yes"/>
      <point x="596" y="647" type="line"/>
      <point x="600" y="651"/>
      <point x="599" y="660"/>
      <point x="594" y="663" type="curve"/>
      <point x="566" y="661"/>
      <point x="538" y="660"/>
      <point x="507" y="660" type="curve" smooth="yes"/>
      <point x="476" y="660"/>
      <point x="447" y="661"/>
      <point x="411" y="663" type="curve"/>
      <point x="406" y="660"/>
      <point x="405" y="652"/>
      <point x="409" y="647" type="curve"/>
      <point x="441" y="640" type="line" smooth="yes"/>
      <point x="460" y="636"/>
      <point x="472" y="631"/>
      <point x="472" y="624" type="curve" smooth="yes"/>
      <point x="472" y="609"/>
      <point x="439" y="543"/>
      <point x="409" y="488" type="curve" smooth="yes"/>
      <point x="375" y="428"/>
      <point x="343" y="369"/>
      <point x="309" y="310" type="curve"/>
      <point x="268" y="386"/>
      <point x="231" y="463"/>
      <point x="193" y="541" type="curve" smooth="yes"/>
      <point x="174" y="580"/>
      <point x="160" y="611"/>
      <point x="160" y="624" type="curve" smooth="yes"/>
      <point x="160" y="631"/>
      <point x="168" y="635"/>
      <point x="184" y="639" type="curve" smooth="yes"/>
      <point x="216" y="647" type="line"/>
      <point x="221" y="652"/>
      <point x="220" y="660"/>
      <point x="215" y="663" type="curve"/>
      <point x="185" y="661"/>
      <point x="147" y="660"/>
      <point x="105" y="660" type="curve" smooth="yes"/>
      <point x="63" y="660"/>
      <point x="25" y="661"/>
      <point x="-3" y="663" type="curve"/>
      <point x="-8" y="661"/>
      <point x="-9" y="652"/>
      <point x="-5" y="647" type="curve"/>
      <point x="22" y="641" type="line" smooth="yes"/>
      <point x="36" y="638"/>
      <point x="53" y="632"/>
      <point x="65" y="621" type="curve" smooth="yes"/>
      <point x="80" y="607"/>
      <point x="98" y="575"/>
      <point x="118" y="534" type="curve" smooth="yes"/>
      <point x="220" y="327" type="line" smooth="yes"/>
      <point x="234" y="298"/>
      <point x="247" y="269"/>
      <point x="249" y="253" type="curve" smooth="yes"/>
      <point x="252" y="232"/>
      <point x="252" y="212"/>
      <point x="252" y="203" type="curve" smooth="yes"/>
      <point x="252" y="158" type="line" smooth="yes"/>
      <point x="252" y="100"/>
      <point x="249" y="50"/>
      <point x="238" y="36" type="curve" smooth="yes"/>
      <point x="228" y="24"/>
      <point x="207" y="20"/>
      <point x="194" y="18" type="curve" smooth="yes"/>
      <point x="160" y="13" type="line"/>
      <point x="156" y="9"/>
      <point x="157" y="-1"/>
      <point x="162" y="-3" type="curve"/>
      <point x="215" y="-1"/>
      <point x="249" y="0"/>
      <point x="293" y="0" type="curve" smooth="yes"/>
      <point x="347" y="0"/>
      <point x="387" y="-1"/>
      <point x="428" y="-3" type="curve"/>
      <point x="433" y="0"/>
      <point x="434" y="8"/>
      <point x="430" y="13" type="curve"/>
      <point x="389" y="18" type="line" smooth="yes"/>
      <point x="373" y="20"/>
      <point x="352" y="24"/>
      <point x="342" y="36" type="curve" smooth="yes"/>
      <point x="331" y="51"/>
      <point x="328" y="100"/>
      <point x="328" y="158" type="curve" smooth="yes"/>
    </contour>
    <contour>
      <point x="241" y="705" type="curve" smooth="yes" name="hr02"/>
      <point x="264" y="705"/>
      <point x="281" y="723"/>
      <point x="281" y="746" type="curve" smooth="yes"/>
      <point x="281" y="766"/>
      <point x="264" y="787"/>
      <point x="241" y="787" type="curve" smooth="yes"/>
      <point x="218" y="787"/>
      <point x="202" y="767"/>
      <point x="202" y="745" type="curve" smooth="yes"/>
      <point x="203" y="719"/>
      <point x="218" y="705"/>
    </contour>
    <contour>
      <point x="396" y="705" type="curve" smooth="yes"/>
      <point x="419" y="705"/>
      <point x="434" y="723"/>
      <point x="434" y="746" type="curve" smooth="yes"/>
      <point x="434" y="766"/>
      <point x="419" y="787"/>
      <point x="396" y="787" type="curve" smooth="yes"/>
      <point x="372" y="787"/>
      <point x="355" y="767"/>
      <point x="355" y="745" type="curve" smooth="yes"/>
      <point x="356" y="719"/>
      <point x="373" y="705"/>
    </contour>
  </outline>
</glyph>
<glyph name="a.swash" format="1">
  <advance width="714"/>
  <unicode hex="E06C"/>
  <outline>
    <contour>
      <point x="223" y="408" type="curve" smooth="yes" name="hr01"/>
      <point x="150" y="408"/>
      <point x="37" y="337"/>
      <point x="37" y="285" type="curve" smooth="yes"/>
      <point x="37" y="276"/>
      <point x="42" y="271"/>
      <point x="51" y="271" type="curve" smooth="yes"/>
      <point x="66" y="271"/>
      <point x="93" y="278"/>
      <point x="108" y="290" type="curve" smooth="yes"/>
      <point x="116" y="296"/>
      <point x="117" y="308"/>
      <point x="118" y="324" type="curve" smooth="yes"/>
      <point x="120" y="355"/>
      <point x="154" y="369"/>
      <point x="182" y="369" type="curve" smooth="yes"/>
      <point x="244" y="369"/>
      <point x="256" y="317"/>
      <point x="255" y="282" type="curve" smooth="yes"/>
      <point x="254" y="236" type="line" smooth="yes"/>
      <point x="254" y="221"/>
      <point x="252" y="212"/>
      <point x="237" y="207" type="curve" smooth="yes"/>
      <point x="118" y="164" type="line" smooth="yes"/>
      <point x="54" y="141"/>
      <point x="35" y="118"/>
      <point x="35" y="78" type="curve" smooth="yes" name="hr02"/>
      <point x="35" y="18"/>
      <point x="87" y="-14"/>
      <point x="124" y="-14" type="curve" smooth="yes"/>
      <point x="163" y="-14"/>
      <point x="190" y="-3"/>
      <point x="209" y="9" type="curve" smooth="yes"/>
      <point x="228" y="21"/>
      <point x="245" y="31"/>
      <point x="251" y="31" type="curve" smooth="yes" name="hr03"/>
      <point x="257" y="31"/>
      <point x="262" y="26"/>
      <point x="267" y="20" type="curve" smooth="yes"/>
      <point x="281" y="2"/>
      <point x="314" y="-21"/>
      <point x="422" y="-21" type="curve" smooth="yes"/>
      <point x="531" y="-21"/>
      <point x="619" y="4"/>
      <point x="659" y="34" type="curve" smooth="yes"/>
      <point x="681" y="50"/>
      <point x="697" y="70"/>
      <point x="697" y="94" type="curve" smooth="yes"/>
      <point x="697" y="112"/>
      <point x="685" y="135"/>
      <point x="661" y="135" type="curve" smooth="yes"/>
      <point x="643" y="135"/>
      <point x="627" y="119"/>
      <point x="627" y="101" type="curve" smooth="yes"/>
      <point x="627" y="85"/>
      <point x="642" y="73"/>
      <point x="642" y="66" type="curve" smooth="yes"/>
      <point x="642" y="58"/>
      <point x="635" y="50"/>
      <point x="622" y="43" type="curve" smooth="yes"/>
      <point x="599" y="31"/>
      <point x="563" y="17"/>
      <point x="456" y="19" type="curve" smooth="yes"/>
      <point x="375" y="21"/>
      <point x="348" y="42"/>
      <point x="335" y="58" type="curve" smooth="yes"/>
      <point x="323" y="73"/>
      <point x="320" y="102"/>
      <point x="321" y="127" type="curve" smooth="yes"/>
      <point x="327" y="291" type="line" smooth="yes"/>
      <point x="330" y="366"/>
      <point x="299" y="408"/>
    </contour>
    <contour>
      <point x="112" y="91" type="curve" smooth="yes" name="hr05"/>
      <point x="112" y="130"/>
      <point x="141" y="145"/>
      <point x="200" y="165" type="curve" smooth="yes"/>
      <point x="218" y="171"/>
      <point x="235" y="175"/>
      <point x="241" y="175" type="curve" smooth="yes"/>
      <point x="247" y="175"/>
      <point x="251" y="173"/>
      <point x="251" y="162" type="curve" smooth="yes"/>
      <point x="249" y="103" type="line" smooth="yes"/>
      <point x="248" y="82"/>
      <point x="248" y="68"/>
      <point x="236" y="56" type="curve" smooth="yes"/>
      <point x="224" y="43"/>
      <point x="195" y="31"/>
      <point x="175" y="31" type="curve" smooth="yes"/>
      <point x="124" y="31"/>
      <point x="112" y="74"/>
    </contour>
  </outline>
</glyph>
<glyph name="acute.titling" format="1">
  <advance width="360"/>
  <unicode hex="E06D"/>
  <outline>
    <contour>
      <point x="278" y="765" type="line" smooth="yes" name="hr00"/>
      <point x="288" y="770"/>
      <point x="295" y="774"/>
      <point x="297" y="779" type="curve"/>
      <point x="300" y="783"/>
      <point x="298" y="793"/>
      <point x="292" y="806" type="curve" smooth="yes"/>
      <point x="286" y="818"/>
      <point x="277" y="823"/>
      <point x="271" y="823" type="curve" smooth="yes"/>
      <point x="266" y="823"/>
      <point x="261" y="822"/>
      <point x="251" y="812" type="curve"/>
      <point x="141" y="721" type="line"/>
      <point x="138" y="714"/>
      <point x="142" y="708"/>
      <point x="147" y="706" type="curve"/>
    </contour>
  </outline>
</glyph>
<glyph name="bracketleft.titling" format="1">
  <advance width="320"/>
  <unicode hex="E072"/>
  <outline>
    <contour>
      <point x="124" y="-152" type="line" name="hr00"/>
      <point x="145" y="-153"/>
      <point x="163" y="-153"/>
      <point x="186" y="-153" type="curve" smooth="yes"/>
      <point x="241" y="-153"/>
      <point x="281" y="-151"/>
      <point x="296" y="-149" type="curve"/>
      <point x="301" y="-145"/>
      <point x="301" y="-139"/>
      <point x="297" y="-135" type="curve"/>
      <point x="208" y="-124" type="line" smooth="yes"/>
      <point x="195" y="-122"/>
      <point x="186" y="-120"/>
      <point x="182" y="-114" type="curve" smooth="yes"/>
      <point x="173" y="-100"/>
      <point x="170" y="-30"/>
      <point x="170" y="44" type="curve" smooth="yes"/>
      <point x="170" y="492" type="line" smooth="yes"/>
      <point x="170" y="566"/>
      <point x="173" y="636"/>
      <point x="182" y="650" type="curve" smooth="yes"/>
      <point x="186" y="656"/>
      <point x="195" y="658"/>
      <point x="208" y="660" type="curve" smooth="yes"/>
      <point x="297" y="671" type="line"/>
      <point x="301" y="675"/>
      <point x="301" y="681"/>
      <point x="296" y="685" type="curve"/>
      <point x="281" y="687"/>
      <point x="241" y="689"/>
      <point x="186" y="689" type="curve" smooth="yes"/>
      <point x="163" y="689"/>
      <point x="145" y="689"/>
      <point x="124" y="688" type="curve"/>
    </contour>
  </outline>
</glyph>
<glyph name="bullet.titling" format="1">
  <advance width="456"/>
  <unicode hex="E075"/>
  <outline>
    <contour>
      <point x="366" y="321" type="curve" smooth="yes" name="hr00"/>
      <point x="366" y="397"/>
      <point x="304" y="458"/>
      <point x="228" y="458" type="curve" smooth="yes"/>
      <point x="150" y="458"/>
      <point x="90" y="397"/>
      <point x="90" y="321" type="curve" smooth="yes"/>
      <point x="90" y="243"/>
      <point x="152" y="183"/>
      <point x="228" y="183" type="curve" smooth="yes"/>
      <point x="304" y="183"/>
      <point x="366" y="244"/>
    </contour>
  </outline>
</glyph>
<glyph name="cedilla.titling" format="1">
  <advance width="360"/>
  <unicode hex="E079"/>
  <outline>
    <contour>
      <point x="204" y="0" type="line" name="hr00"/>
      <point x="150" y="-87" type="line"/>
      <point x="150" y="-92" type="line"/>
      <point x="178" y="-103"/>
      <point x="200" y="-124"/>
      <point x="200" y="-145" type="curve" smooth="yes"/>
      <point x="200" y="-164"/>
      <point x="188" y="-170"/>
      <point x="178" y="-170" type="curve" smooth="yes"/>
      <point x="167" y="-170"/>
      <point x="152" y="-147"/>
      <point x="137" y="-147" type="curve" smooth="yes"/>
      <point x="124" y="-147"/>
      <point x="117" y="-158"/>
      <point x="117" y="-167" type="curve" smooth="yes"/>
      <point x="117" y="-184"/>
      <point x="133" y="-195"/>
      <point x="163" y="-195" type="curve" smooth="yes"/>
      <point x="204" y="-195"/>
      <point x="245" y="-166"/>
      <point x="245" y="-130" type="curve" smooth="yes"/>
      <point x="245" y="-105"/>
      <point x="230" y="-86"/>
      <point x="205" y="-69" type="curve" smooth="yes"/>
      <point x="199" y="-65"/>
      <point x="195" y="-60"/>
      <point x="199" y="-54" type="curve" smooth="yes"/>
      <point x="232" y="0" type="line"/>
    </contour>
  </outline>
</glyph>
<glyph name="dollar.titling" format="1">
  <advance width="500"/>
  <unicode hex="E081"/>
  <outline>
    <contour>
      <point x="250" y="381" type="line" name="hr01"/>
      <point x="196" y="408"/>
      <point x="154" y="444"/>
      <point x="154" y="502" type="curve" smooth="yes"/>
      <point x="154" y="551"/>
      <point x="172" y="617"/>
      <point x="279" y="617" type="curve"/>
    </contour>
    <contour>
      <point x="268" y="289" type="line"/>
      <point x="281" y="282" type="line" smooth="yes"/>
      <point x="361" y="239"/>
      <point x="372" y="189"/>
      <point x="372" y="138" type="curve" smooth="yes"/>
      <point x="372" y="79"/>
      <point x="331" y="23"/>
      <point x="246" y="23" type="curve" smooth="yes"/>
      <point x="243" y="23"/>
      <point x="239" y="23"/>
      <point x="236" y="24" type="curve"/>
    </contour>
    <contour>
      <point x="308" y="614" type="line"/>
      <point x="378" y="597"/>
      <point x="406" y="540"/>
      <point x="419" y="510" type="curve"/>
      <point x="423" y="508"/>
      <point x="431" y="509"/>
      <point x="434" y="513" type="curve"/>
      <point x="433" y="544"/>
      <point x="422" y="598"/>
      <point x="413" y="620" type="curve"/>
      <point x="376" y="628"/>
      <point x="342" y="636"/>
      <point x="311" y="639" type="curve"/>
      <point x="321" y="717" type="line" name="hr02"/>
      <point x="315" y="720"/>
      <point x="297" y="720"/>
      <point x="291" y="717" type="curve"/>
      <point x="282" y="640" type="line" name="hr03"/>
      <point x="161" y="638"/>
      <point x="91" y="568"/>
      <point x="91" y="480" type="curve" smooth="yes"/>
      <point x="91" y="402"/>
      <point x="147" y="350"/>
      <point x="210" y="318" type="curve" smooth="yes"/>
      <point x="240" y="303" type="line"/>
      <point x="207" y="27" type="line"/>
      <point x="124" y="46"/>
      <point x="85" y="123"/>
      <point x="69" y="166" type="curve"/>
      <point x="65" y="169"/>
      <point x="57" y="168"/>
      <point x="54" y="163" type="curve"/>
      <point x="54" y="111"/>
      <point x="66" y="59"/>
      <point x="83" y="40" type="curve"/>
      <point x="99" y="29"/>
      <point x="137" y="7"/>
      <point x="204" y="2" type="curve"/>
      <point x="192" y="-94" type="line"/>
      <point x="198" y="-99"/>
      <point x="216" y="-99"/>
      <point x="222" y="-94" type="curve"/>
      <point x="233" y="0" type="line"/>
      <point x="362" y="0"/>
      <point x="442" y="73"/>
      <point x="442" y="173" type="curve" smooth="yes"/>
      <point x="442" y="255"/>
      <point x="391" y="312"/>
      <point x="321" y="346" type="curve" smooth="yes"/>
      <point x="278" y="367" type="line"/>
    </contour>
  </outline>
</glyph>
<glyph name="e.swash" format="1">
  <advance width="657"/>
  <unicode hex="E083"/>
  <outline>
    <contour>
      <point x="313" y="256" type="line" smooth="yes" name="hr00"/>
      <point x="355" y="256"/>
      <point x="369" y="257"/>
      <point x="372" y="263" type="curve" smooth="yes"/>
      <point x="374" y="267"/>
      <point x="376" y="275"/>
      <point x="376" y="289" type="curve" smooth="yes"/>
      <point x="376" y="349"/>
      <point x="320" y="408"/>
      <point x="234" y="408" type="curve" smooth="yes"/>
      <point x="112" y="408"/>
      <point x="35" y="303"/>
      <point x="35" y="198" type="curve" smooth="yes"/>
      <point x="35" y="120"/>
      <point x="73" y="64"/>
      <point x="118" y="32" type="curve" smooth="yes"/>
      <point x="164" y="-2"/>
      <point x="233" y="-14"/>
      <point x="311" y="-14" type="curve" smooth="yes"/>
      <point x="403" y="-14"/>
      <point x="506" y="19"/>
      <point x="567" y="62" type="curve" smooth="yes"/>
      <point x="628" y="105"/>
      <point x="650" y="144"/>
      <point x="650" y="171" type="curve" smooth="yes"/>
      <point x="650" y="199"/>
      <point x="633" y="215"/>
      <point x="611" y="215" type="curve" smooth="yes"/>
      <point x="590" y="215"/>
      <point x="579" y="199"/>
      <point x="579" y="183" type="curve" smooth="yes"/>
      <point x="579" y="171"/>
      <point x="587" y="164"/>
      <point x="591" y="159" type="curve" smooth="yes"/>
      <point x="596" y="153"/>
      <point x="596" y="146"/>
      <point x="596" y="141" type="curve" smooth="yes"/>
      <point x="596" y="134"/>
      <point x="593" y="117"/>
      <point x="561" y="92" type="curve" smooth="yes"/>
      <point x="522" y="62"/>
      <point x="439" y="32"/>
      <point x="353" y="32" type="curve" smooth="yes"/>
      <point x="267" y="32"/>
      <point x="210" y="51"/>
      <point x="163" y="93" type="curve" smooth="yes"/>
      <point x="119" y="132"/>
      <point x="105" y="193"/>
      <point x="105" y="235" type="curve" smooth="yes"/>
      <point x="105" y="254"/>
      <point x="106" y="256"/>
      <point x="132" y="256" type="curve" smooth="yes"/>
    </contour>
    <contour>
      <point x="123" y="286" type="line" smooth="yes"/>
      <point x="116" y="286"/>
      <point x="114" y="289"/>
      <point x="114" y="291" type="curve" smooth="yes"/>
      <point x="118" y="326"/>
      <point x="164" y="378"/>
      <point x="223" y="378" type="curve" smooth="yes"/>
      <point x="281" y="378"/>
      <point x="300" y="343"/>
      <point x="300" y="315" type="curve" smooth="yes"/>
      <point x="300" y="302"/>
      <point x="297" y="298"/>
      <point x="294" y="296" type="curve" smooth="yes"/>
      <point x="286" y="290"/>
      <point x="264" y="286"/>
      <point x="190" y="286" type="curve" smooth="yes"/>
    </contour>
  </outline>
</glyph>
<glyph name="eight.titling" format="1">
  <advance width="500"/>
  <unicode hex="E084"/>
  <outline>
    <contour>
      <point x="428" y="494" type="curve" smooth="yes" name="hr01"/>
      <point x="428" y="592"/>
      <point x="349" y="640"/>
      <point x="262" y="640" type="curve" smooth="yes"/>
      <point x="162" y="640"/>
      <point x="82" y="578"/>
      <point x="82" y="479" type="curve" smooth="yes"/>
      <point x="82" y="403"/>
      <point x="138" y="355"/>
      <point x="200" y="320" type="curve"/>
      <point x="127" y="288"/>
      <point x="62" y="233"/>
      <point x="62" y="146" type="curve" smooth="yes" name="hr02"/>
      <point x="62" y="33"/>
      <point x="157" y="-12"/>
      <point x="247" y="-12" type="curve" smooth="yes"/>
      <point x="357" y="-12"/>
      <point x="439" y="52"/>
      <point x="439" y="154" type="curve" smooth="yes"/>
      <point x="439" y="253"/>
      <point x="376" y="304"/>
      <point x="305" y="344" type="curve"/>
      <point x="359" y="371"/>
      <point x="428" y="415"/>
    </contour>
    <contour>
      <point x="222" y="307" type="curve" name="hr04"/>
      <point x="292" y="275"/>
      <point x="368" y="218"/>
      <point x="368" y="138" type="curve" smooth="yes"/>
      <point x="368" y="58"/>
      <point x="324" y="11"/>
      <point x="253" y="11" type="curve" smooth="yes"/>
      <point x="177" y="11"/>
      <point x="130" y="71"/>
      <point x="130" y="149" type="curve" smooth="yes"/>
      <point x="130" y="203"/>
      <point x="153" y="268"/>
    </contour>
    <contour>
      <point x="257" y="617" type="curve" smooth="yes" name="hr05"/>
      <point x="321" y="617"/>
      <point x="365" y="560"/>
      <point x="365" y="497" type="curve" smooth="yes"/>
      <point x="365" y="437"/>
      <point x="333" y="389"/>
      <point x="283" y="358" type="curve"/>
      <point x="219" y="387"/>
      <point x="150" y="431"/>
      <point x="150" y="500" type="curve" smooth="yes"/>
      <point x="150" y="564"/>
      <point x="188" y="617"/>
    </contour>
  </outline>
</glyph>
